mtllib 0.mtl
v -1.714509964 0.01879500411 2.733713627
vn 0.08504457027 0.9817520976 -0.170089066
v -1.866647959 0.01879500411 2.733713627
vn -0.323102951 0.9324727654 -0.1615517735
v -1.866648197 0.01879500411 2.88585186
vn -0.08504457027 0.9817520976 0.170089066
v -1.714510083 0.01879500411 2.88585186
vn 0.323102951 0.9324727654 0.1615517735
v -1.714510083 -0.007563001476 2.88585186
vn 0.4472134411 5.476787651e-17 0.8944272995
v -1.714509964 -0.007563001476 2.733713627
vn 0.8944275379 -2.738361731e-17 -0.4472129345
v -1.866647959 -0.007563001476 2.733713627
vn -0.4472134411 -5.476787651e-17 -0.8944272995
v -1.866648197 -0.007563001476 2.88585186
vn -0.8944275379 2.738417152e-17 0.4472129345
vt 0.4228299856 0.2024410069
vt 0.457554996 0.2024410069
vt 0.457554996 0.2371660024
vt 0.4228299856 0.2371660024
vt 0.4168139994 0.2371660024
vt 0.4168139994 0.2024410069
vt 0.4228299856 0.1964250058
vt 0.457554996 0.1964250058
vt 0.4635719955 0.2024410069
vt 0.4635719955 0.2371660024
vt 0.457554996 0.2431820035
vt 0.4228299856 0.2431820035
# mm_gid 0
g mmGroup0
usemtl Material.001
f 1/1/1 2/2/2 3/3/3 
f 1/1/1 3/3/3 4/4/4 
f 4/4/4 5/5/5 6/6/6 
f 4/4/4 6/6/6 1/1/1 
f 1/1/1 6/7/6 7/8/7 
f 1/1/1 7/8/7 2/2/2 
f 2/2/2 7/9/7 8/10/8 
f 2/2/2 8/10/8 3/3/3 
f 3/3/3 8/11/8 5/12/5 
f 3/3/3 5/12/5 4/4/4 
