mtllib 5.mtl
v -1.713594079 0.01879500411 3.113480806
vn 0.08504457027 0.981752038 -0.1700891405
v -1.865732074 0.01879500411 3.113480806
vn -0.3231029809 0.9324728251 -0.1615514904
v -1.865732074 0.01879500411 3.265618801
vn -0.08504457027 0.981752038 0.1700891405
v -1.713594079 0.01879500411 3.265618801
vn 0.3231029809 0.9324728251 0.1615514904
v -1.865732074 -0.007563001476 3.113480806
vn -0.4472135901 -5.476786989e-17 -0.8944271803
v -1.865732074 -0.007563001476 3.265618801
vn -0.8944271803 2.738393495e-17 0.4472135901
v -1.713594079 -0.007563001476 3.265618801
vn 0.4472135901 5.476786989e-17 0.8944271803
v -1.713594079 -0.007563001476 3.113480806
vn 0.8944271803 -2.738393495e-17 -0.4472135901
vt 0.5689949989 0.1499529928
vt 0.6037200093 0.1499529928
vt 0.6037200093 0.1846780032
vt 0.5689949989 0.1846780032
vt 0.609736979 0.1499529928
vt 0.609736979 0.1846780032
vt 0.6037200093 0.1906950027
vt 0.5689949989 0.1906950027
vt 0.5629789829 0.1846780032
vt 0.5629789829 0.1499529928
vt 0.5689949989 0.1439370066
vt 0.6037200093 0.1439370066
# mm_gid 0
g mmGroup0
usemtl Material.001
f 1/1/1 2/2/2 3/3/3 
f 1/1/1 3/3/3 4/4/4 
f 2/2/2 5/5/5 6/6/6 
f 2/2/2 6/6/6 3/3/3 
f 3/3/3 6/7/6 7/8/7 
f 3/3/3 7/8/7 4/4/4 
f 4/4/4 7/9/7 8/10/8 
f 4/4/4 8/10/8 1/1/1 
f 1/1/1 8/11/8 5/12/5 
f 1/1/1 5/12/5 2/2/2 
