mtllib 6.mtl
v -1.903532147 0.01879500411 3.113480806
vn 0.08504457027 0.981752038 -0.1700891405
v -2.055670023 0.01879500411 3.113480806
vn -0.3231029809 0.9324728251 -0.1615514904
v -2.055670023 0.01879500411 3.265618801
vn -0.08504457027 0.981752038 0.1700891405
v -1.903532147 0.01879500411 3.265618801
vn 0.3231029809 0.9324728251 0.1615514904
v -1.903532147 -0.007563001476 3.265618801
vn 0.4472135901 5.476786989e-17 0.8944271803
v -1.903532147 -0.007563001476 3.113480806
vn 0.8944271803 -2.738393495e-17 -0.4472135901
v -2.055670023 -0.007563001476 3.113480806
vn -0.4472135901 -5.476786989e-17 -0.8944271803
v -2.055670023 -0.007563001476 3.265618801
vn -0.8944271803 2.738393495e-17 0.4472135901
vt 0.7125229836 0.1021109968
vt 0.7472479939 0.1021109968
vt 0.7472479939 0.1368360072
vt 0.7125229836 0.1368360072
vt 0.7065070271 0.1368360072
vt 0.7065070271 0.1021109968
vt 0.7125229836 0.09609500319
vt 0.7472479939 0.09609500319
vt 0.75326401 0.1021109968
vt 0.75326401 0.1368360072
vt 0.7472479939 0.1428519934
vt 0.7125229836 0.1428519934
# mm_gid 0
g mmGroup0
usemtl Material.001
f 1/1/1 2/2/2 3/3/3 
f 1/1/1 3/3/3 4/4/4 
f 4/4/4 5/5/5 6/6/6 
f 4/4/4 6/6/6 1/1/1 
f 1/1/1 6/7/6 7/8/7 
f 1/1/1 7/8/7 2/2/2 
f 2/2/2 7/9/7 8/10/8 
f 2/2/2 8/10/8 3/3/3 
f 3/3/3 8/11/8 5/12/5 
f 3/3/3 5/12/5 4/4/4 
