mtllib 7.mtl
v -1.526770115 0.01879500411 3.303784847
vn 0.08504464477 0.981752038 -0.1700892895
v -1.67890811 0.01879500411 3.303784847
vn -0.323102951 0.9324727654 -0.1615517735
v -1.67890811 0.01879500411 3.455922604
vn -0.08504480124 0.981752038 0.1700892895
v -1.526770115 0.01879500411 3.455922842
vn 0.3231027126 0.9324729443 0.1615515053
v -1.526770115 -0.007563001476 3.455922842
vn 0.4472122788 5.476846546e-17 0.8944278359
v -1.526770115 -0.007563001476 3.303784847
vn 0.8944271803 -2.738393495e-17 -0.4472135901
v -1.67890811 -0.007563001476 3.303784847
vn -0.4472129345 -5.476788975e-17 -0.8944275379
v -1.67890811 -0.007563001476 3.455922604
vn -0.8944270015 2.73839548e-17 0.447213918
vt 0.4228299856 0.2981260121
vt 0.457554996 0.2981260121
vt 0.457554996 0.3328509927
vt 0.4228299856 0.3328509927
vt 0.4168139994 0.3328509927
vt 0.4168139994 0.2981260121
vt 0.4228299856 0.2921099961
vt 0.457554996 0.2921099961
vt 0.4635719955 0.2981260121
vt 0.4635719955 0.3328509927
vt 0.457554996 0.3388679922
vt 0.4228299856 0.3388679922
# mm_gid 0
g mmGroup0
usemtl Material.001
f 1/1/1 2/2/2 3/3/3 
f 1/1/1 3/3/3 4/4/4 
f 4/4/4 5/5/5 6/6/6 
f 4/4/4 6/6/6 1/1/1 
f 1/1/1 6/7/6 7/8/7 
f 1/1/1 7/8/7 2/2/2 
f 2/2/2 7/9/7 8/10/8 
f 2/2/2 8/10/8 3/3/3 
f 3/3/3 8/11/8 5/12/5 
f 3/3/3 5/12/5 4/4/4 
