mtllib 8.mtl
v -1.713594079 0.01879500411 3.303784847
vn 0.08504457027 0.9817519784 -0.1700894535
v -1.865732074 0.01879500411 3.303784847
vn -0.323102951 0.9324727654 -0.1615517735
v -1.865732074 0.01879500411 3.455922604
vn -0.08504457027 0.9817519784 0.1700894535
v -1.713594079 0.01879500411 3.455922604
vn 0.323102951 0.9324727654 0.1615517735
v -1.713594079 -0.007563001476 3.455922604
vn 0.4472129345 5.476788975e-17 0.8944275379
v -1.713594079 -0.007563001476 3.303784847
vn 0.8944268823 -2.738397465e-17 -0.4472142458
v -1.865732074 -0.007563001476 3.303784847
vn -0.4472129345 -5.476788975e-17 -0.8944275379
v -1.865732074 -0.007563001476 3.455922604
vn -0.8944268823 2.738397465e-17 0.4472142458
vt 0.6168379784 0.2456389964
vt 0.6515629888 0.2456389964
vt 0.6515629888 0.2803640068
vt 0.6168379784 0.2803640068
vt 0.610822022 0.2803640068
vt 0.610822022 0.2456389964
vt 0.6168379784 0.2396229953
vt 0.6515629888 0.2396229953
vt 0.6575790048 0.2456389964
vt 0.6575790048 0.2803640068
vt 0.6515629888 0.286379993
vt 0.6168379784 0.286379993
# mm_gid 0
g mmGroup0
usemtl Material.001
f 1/1/1 2/2/2 3/3/3 
f 1/1/1 3/3/3 4/4/4 
f 4/4/4 5/5/5 6/6/6 
f 4/4/4 6/6/6 1/1/1 
f 1/1/1 6/7/6 7/8/7 
f 1/1/1 7/8/7 2/2/2 
f 2/2/2 7/9/7 8/10/8 
f 2/2/2 8/10/8 3/3/3 
f 3/3/3 8/11/8 5/12/5 
f 3/3/3 5/12/5 4/4/4 
