mtllib alarm.mtl
v -1.713404059 0.01879500411 1.653247833
vn 0.08504404128 0.9817522764 -0.1700880826
v -1.865543008 0.01879500411 1.653247833
vn -0.3231011629 0.9324735999 -0.1615505815
v -1.865543008 0.01879500411 1.805386782
vn -0.08504404128 0.9817522764 0.1700880826
v -1.713404059 0.01879500411 1.805386782
vn 0.3231011629 0.9324735999 0.1615505815
v -1.713404059 -0.007563001476 1.805386782
vn 0.4472135901 5.476786989e-17 0.8944271803
v -1.713404059 -0.007563001476 1.653247833
vn 0.8944271803 -2.738393495e-17 -0.4472135901
v -1.865543008 -0.007563001476 1.653247833
vn -0.4472135901 -5.476786989e-17 -0.8944271803
v -1.865543008 -0.007563001476 1.805386782
vn -0.8944271803 2.738393495e-17 0.4472135901
vt 0.5211529732 0.197796002
vt 0.5558779836 0.197796002
vt 0.5558779836 0.2325209975
vt 0.5211529732 0.2325209975
vt 0.5151370168 0.2325209975
vt 0.5151370168 0.197796002
vt 0.5211529732 0.1917800009
vt 0.5558779836 0.1917800009
vt 0.5618939996 0.197796002
vt 0.5618939996 0.2325209975
vt 0.5558779836 0.2385369986
vt 0.5211529732 0.2385369986
# mm_gid 0
g mmGroup0
usemtl Material.001
f 1/1/1 2/2/2 3/3/3 
f 1/1/1 3/3/3 4/4/4 
f 4/4/4 5/5/5 6/6/6 
f 4/4/4 6/6/6 1/1/1 
f 1/1/1 6/7/6 7/8/7 
f 1/1/1 7/8/7 2/2/2 
f 2/2/2 7/9/7 8/10/8 
f 2/2/2 8/10/8 3/3/3 
f 3/3/3 8/11/8 5/12/5 
f 3/3/3 5/12/5 4/4/4 
