mtllib btn1.mtl
v -1.106703043 0.007190000731 1.157377839
vn -0.029522283 0.1743503958 0.9842410088
v -1.106555939 0.1370880157 1.134371758
vn 0.03513002023 0.1887268722 0.9814010859
v -1.138121843 0.1370880157 1.131262779
vn -0.01223363727 0.9970686436 0.07552818954
v -1.142745018 0.007190000731 1.153827906
vn -0.2209722102 0.1745501757 0.9595329762
v -1.16847384 0.1370880157 1.122054815
vn -0.3430916071 0.1891113669 0.920067966
v -1.177401781 0.007190000731 1.143314719
vn -0.4038951993 0.1747262329 0.8979640603
v -1.196447849 0.1370880157 1.107102871
vn -0.5112093091 0.231385529 0.8277232647
v -1.209341764 0.007190000731 1.126242757
vn -0.5713127255 0.1748655438 0.801887691
v -1.220965862 0.1370880157 1.0869807
vn -0.6505900025 0.2971293032 0.6988896728
v -1.237337708 0.007190000731 1.103266716
vn -0.7167562246 0.1749671251 0.675016284
v -1.241087794 0.1370880157 1.062462687
vn -0.7504876256 0.3792030215 0.5412701964
v -1.260313749 0.007190000731 1.075270772
vn -0.8346679807 0.1750275791 0.5222017765
v -1.256039739 0.1370880157 1.034488678
vn -0.8037239313 0.4682358801 0.3671280146
v -1.277385831 0.007190000731 1.043330669
vn -0.9205012321 0.1750420779 0.3493390381
v -1.265247822 0.1370880157 1.004136801
vn -0.8096479774 0.5548301339 0.191399157
v -1.287898898 0.007190000731 1.008673668
vn -0.9709731936 0.1750083864 0.1630433053
v -1.268356919 0.1370880157 0.9725707173
vn -0.7744811773 0.6319892406 0.02772290632
v -1.291448832 0.007190000731 0.9726317525
vn -0.9841372371 0.174935475 -0.02952052094
v -1.265247822 0.1370880157 0.9410047531
vn -0.7085613608 0.6962532997 -0.1147697791
v -1.287898898 0.007190000731 0.9365897775
vn -0.9594864845 0.1748238504 -0.2209575772
v -1.256039739 0.1370880157 0.9106527567
vn -0.6226716042 0.7472404838 -0.2321889699
v -1.277385831 0.007190000731 0.9019317031
vn -0.8979736567 0.1746793836 -0.4038941264
v -1.241087794 0.1370880157 0.8826787472
vn -0.5256055593 0.7863596082 -0.324618727
v -1.260313749 0.007190000731 0.8699917197
vn -0.8019408584 0.174497515 -0.5713505745
v -1.220965862 0.1370880157 0.8581607342
vn -0.4234948754 0.815620482 -0.3942274749
v -1.237337708 0.007190000731 0.8419957161
vn -0.675093174 0.1742915362 -0.716848433
v -1.196447849 0.1370880157 0.8380388618
vn -0.3200955689 0.8369912505 -0.4438293874
v -1.209341764 0.007190000731 0.8190207481
vn -0.5222927332 0.1740694195 -0.8348114491
v -1.16847384 0.1370880157 0.8230867386
vn -0.2174851596 0.8520672917 -0.4761107862
v -1.177401781 0.007190000731 0.8019477129
vn -0.3494214118 0.1738437116 -0.9206970334
v -1.138121843 0.1370880157 0.8138787746
vn -0.1165998355 0.8620432019 -0.493240267
v -1.142745018 0.007190000731 0.7914348245
vn -0.1630832404 0.173612833 -0.9712169766
v -1.106555939 0.1370880157 0.8107697964
vn -0.01778138988 0.8677173853 -0.4967397451
v -1.106703043 0.007190000731 0.7878847718
vn 0.02952731401 0.1733962595 -0.9844093919
v -1.074989915 0.1370880157 0.8138787746
vn 0.07896331698 0.8695417643 -0.4875057936
v -1.070660949 0.007190000731 0.7914348245
vn 0.2210212499 0.1731987447 -0.9597665071
v -1.044638038 0.1370880157 0.8230867386
vn 0.1736992449 0.8676654696 -0.4658167064
v -1.036002874 0.007190000731 0.8019477129
vn 0.4040220976 0.1730300784 -0.898235321
v -1.016663909 0.1370880157 0.8380388618
vn 0.2664229572 0.8619395494 -0.4313687682
v -1.004062891 0.007190000731 0.8190208077
vn 0.5715149045 0.1728875637 -0.8021724224
v -0.9921459556 0.1370880157 0.8581607938
vn 0.3568297327 0.8519017696 -0.3833222687
v -0.976066947 0.007190000731 0.8419957757
vn 0.7170401216 0.1727895886 -0.6752756834
v -0.9720239043 0.1370880157 0.8826798201
vn 0.2920062542 0.8692828417 -0.398847878
v -0.9530919194 0.007190000731 0.8699917793
vn 0.4165748358 0.1483173668 -0.8969210386
v -0.92393291 0.1370880157 0.896925807
vn 0.3839211166 0.8288431764 -0.4069687128
v -0.898180902 0.007190000731 0.8862597942
vn 0.979886055 0.196916759 -0.03235986084
v -0.9478639364 0.1370880157 0.9410048127
vn 0.7494161725 0.5969399214 0.2864230275
v -0.9255058765 0.007190000731 0.9365898371
vn 0.9720585346 0.1615217626 0.1703317761
v -0.9447549582 0.1370880157 0.9725708365
vn 0.664798677 0.7466434836 -0.02379677258
v -0.9219559431 0.007190000731 0.9726318121
vn 0.9845123887 0.1728101075 0.02953044325
v -0.9478639364 0.1370880157 1.004136801
vn 0.7093013525 0.6954800487 0.1148873866
v -0.9255058765 0.007190000731 1.008673787
vn 0.9598115087 0.1729223728 0.2210423946
v -0.95707196 0.1370880157 1.03448987
vn 0.7268615365 0.6310334802 0.2710517943
v -0.9360198975 0.007190000731 1.043330789
vn 0.8982273936 0.1730720699 0.4040217698
v -0.9720239043 0.1370880157 1.062462807
vn 0.7084728479 0.5537224412 0.4375588298
v -0.9530919194 0.007190000731 1.075271845
vn 0.8021194935 0.1732567251 0.5714774132
v -0.9921459556 0.1370880157 1.08698082
vn 0.6472057104 0.4670392275 0.6024941206
v -0.9760679603 0.007190000731 1.103266835
vn 0.6751942635 0.1734621674 0.7169544101
v -1.016664982 0.1370880157 1.107102871
vn 0.5415534377 0.378038913 0.7508704662
v -1.004062891 0.007190000731 1.126242757
vn 0.522331059 0.1736863106 0.834867239
v -1.044638038 0.1370880157 1.122054815
vn 0.3968496025 0.2961286604 0.8688027263
v -1.036003947 0.007190000731 1.143314719
vn 0.3494043052 0.1739091426 0.9206911922
v -1.074990869 0.1370880157 1.131262779
vn 0.2238538265 0.2306539714 0.9469362497
v -1.070660949 0.007190000731 1.153827906
vn 0.1630702913 0.1741334498 0.9711259604
vt 0.05603900179 0.2986029983
vt 0.03898900002 0.2986029983
vt 0.03898900002 0.2939429879
vt 0.05603900179 0.2939429879
vt 0.03898900002 0.2892549932
vt 0.05603900179 0.2892549932
vt 0.03898900002 0.2845450044
vt 0.05603900179 0.2845450044
vt 0.03898900002 0.2798190117
vt 0.05603900179 0.2798190117
vt 0.03898900002 0.2750810087
vt 0.05603900179 0.2750810087
vt 0.03898900002 0.2703379989
vt 0.05603900179 0.2703379989
vt 0.03898900002 0.2655940056
vt 0.05603900179 0.2655940056
vt 0.03898900002 0.260856986
vt 0.05603900179 0.260856986
vt 0.03898900002 0.2561300099
vt 0.05603900179 0.2561300099
vt 0.03898900002 0.2514199913
vt 0.05603900179 0.2514199913
vt 0.03898900002 0.2467329949
vt 0.05603900179 0.2467329949
vt 0.03898900002 0.2420729995
vt 0.05603900179 0.2420729995
vt 0.03898900002 0.2374459952
vt 0.05603900179 0.2374459952
vt 0.03898900002 0.2328580022
vt 0.05603900179 0.2328580022
vt 0.03898900002 0.228312999
vt 0.05603900179 0.228312999
vt 0.03898900002 0.2238180041
vt 0.05603900179 0.2238180041
vt 0.03898900002 0.2193759978
vt 0.05603900179 0.2193759978
vt 0.03898900002 0.2149939984
vt 0.05603900179 0.2149939984
vt 0.03898900002 0.2106759995
vt 0.05603900179 0.2106759995
vt 0.03898900002 0.206426993
vt 0.05603900179 0.206426993
vt 0.03898900002 0.2022520006
vt 0.05603900179 0.2022520006
vt 0.03898900002 0.1953449994
vt 0.05603900179 0.1953449994
vt 0.05609799922 0.3445290029
vt 0.03903799877 0.3445290029
vt 0.03898900002 0.3384239972
vt 0.05603900179 0.3384239972
vt 0.03898900002 0.3342489898
vt 0.05603900179 0.3342489898
vt 0.03898900002 0.3300000131
vt 0.05603900179 0.3300000131
vt 0.03898900002 0.3256820142
vt 0.05603900179 0.3256820142
vt 0.03898900002 0.3212989867
vt 0.05603900179 0.3212989867
vt 0.03898900002 0.3168579936
vt 0.05603900179 0.3168579936
vt 0.03898900002 0.3123619854
vt 0.05603900179 0.3123619854
vt 0.03898900002 0.3078179955
vt 0.05603900179 0.3078179955
vt 0.138252005 0.4572379887
vt 0.1317149997 0.4559380114
vt 0.1255570054 0.4533869922
vt 0.1200150028 0.4496839941
vt 0.1153009981 0.4449709952
vt 0.1115979999 0.4394289851
vt 0.1090470031 0.4332709908
vt 0.1077470034 0.4267340004
vt 0.1077470034 0.4200679958
vt 0.1090470031 0.4135310054
vt 0.1115979999 0.4073730111
vt 0.1094740033 0.3970490098
vt 0.120013997 0.3971169889
vt 0.125556007 0.393415004
vt 0.1317140013 0.3908640146
vt 0.1382510066 0.3895629942
vt 0.1449169964 0.3895629942
vt 0.1514540017 0.3908630013
vt 0.1576119959 0.3934139907
vt 0.163154006 0.3971169889
vt 0.1678670049 0.4018299878
vt 0.1715710014 0.4073719978
vt 0.1741210073 0.4135299921
vt 0.1754219979 0.4200670123
vt 0.1754219979 0.4267329872
vt 0.1741210073 0.4332700074
vt 0.1715710014 0.4394280016
vt 0.1678680032 0.4449700117
vt 0.1631550044 0.4496830106
vt 0.1576129943 0.4533860087
vt 0.151455 0.4559380114
vt 0.1449169964 0.4572379887
vt 0.03898900002 0.3032299876
vt 0.05603900179 0.3032299876
# mm_gid 0
g mmGroup0
usemtl Material.001
f 1/1/1 2/2/2 3/3/3 
f 1/1/1 3/3/3 4/4/4 
f 4/4/4 3/3/3 5/5/5 
f 4/4/4 5/5/5 6/6/6 
f 6/6/6 5/5/5 7/7/7 
f 6/6/6 7/7/7 8/8/8 
f 8/8/8 7/7/7 9/9/9 
f 8/8/8 9/9/9 10/10/10 
f 10/10/10 9/9/9 11/11/11 
f 10/10/10 11/11/11 12/12/12 
f 12/12/12 11/11/11 13/13/13 
f 12/12/12 13/13/13 14/14/14 
f 14/14/14 13/13/13 15/15/15 
f 14/14/14 15/15/15 16/16/16 
f 16/16/16 15/15/15 17/17/17 
f 16/16/16 17/17/17 18/18/18 
f 18/18/18 17/17/17 19/19/19 
f 18/18/18 19/19/19 20/20/20 
f 20/20/20 19/19/19 21/21/21 
f 20/20/20 21/21/21 22/22/22 
f 22/22/22 21/21/21 23/23/23 
f 22/22/22 23/23/23 24/24/24 
f 24/24/24 23/23/23 25/25/25 
f 24/24/24 25/25/25 26/26/26 
f 26/26/26 25/25/25 27/27/27 
f 26/26/26 27/27/27 28/28/28 
f 28/28/28 27/27/27 29/29/29 
f 28/28/28 29/29/29 30/30/30 
f 30/30/30 29/29/29 31/31/31 
f 30/30/30 31/31/31 32/32/32 
f 32/32/32 31/31/31 33/33/33 
f 32/32/32 33/33/33 34/34/34 
f 34/34/34 33/33/33 35/35/35 
f 34/34/34 35/35/35 36/36/36 
f 36/36/36 35/35/35 37/37/37 
f 36/36/36 37/37/37 38/38/38 
f 38/38/38 37/37/37 39/39/39 
f 38/38/38 39/39/39 40/40/40 
f 40/40/40 39/39/39 41/41/41 
f 40/40/40 41/41/41 42/42/42 
f 42/42/42 41/41/41 43/43/43 
f 42/42/42 43/43/43 44/44/44 
f 44/44/44 43/43/43 45/45/45 
f 44/44/44 45/45/45 46/46/46 
f 46/47/46 45/48/45 47/49/47 
f 46/47/46 47/49/47 48/50/48 
f 48/50/48 47/49/47 49/51/49 
f 48/50/48 49/51/49 50/52/50 
f 50/52/50 49/51/49 51/53/51 
f 50/52/50 51/53/51 52/54/52 
f 52/54/52 51/53/51 53/55/53 
f 52/54/52 53/55/53 54/56/54 
f 54/56/54 53/55/53 55/57/55 
f 54/56/54 55/57/55 56/58/56 
f 56/58/56 55/57/55 57/59/57 
f 56/58/56 57/59/57 58/60/58 
f 58/60/58 57/59/57 59/61/59 
f 58/60/58 59/61/59 60/62/60 
f 60/62/60 59/61/59 61/63/61 
f 60/62/60 61/63/61 62/64/62 
f 3/65/3 2/66/2 63/67/63 
f 3/65/3 63/67/63 61/68/61 
f 3/65/3 61/68/61 59/69/59 
f 3/65/3 59/69/59 57/70/57 
f 3/65/3 57/70/57 55/71/55 
f 3/65/3 55/71/55 53/72/53 
f 3/65/3 53/72/53 51/73/51 
f 3/65/3 51/73/51 49/74/49 
f 3/65/3 49/74/49 47/75/47 
f 3/65/3 47/75/47 45/76/45 
f 3/65/3 45/76/45 43/77/43 
f 3/65/3 43/77/43 41/78/41 
f 3/65/3 41/78/41 39/79/39 
f 3/65/3 39/79/39 37/80/37 
f 3/65/3 37/80/37 35/81/35 
f 3/65/3 35/81/35 33/82/33 
f 3/65/3 33/82/33 31/83/31 
f 3/65/3 31/83/31 29/84/29 
f 3/65/3 29/84/29 27/85/27 
f 3/65/3 27/85/27 25/86/25 
f 3/65/3 25/86/25 23/87/23 
f 3/65/3 23/87/23 21/88/21 
f 3/65/3 21/88/21 19/89/19 
f 3/65/3 19/89/19 17/90/17 
f 3/65/3 17/90/17 15/91/15 
f 3/65/3 15/91/15 13/92/13 
f 3/65/3 13/92/13 11/93/11 
f 3/65/3 11/93/11 9/94/9 
f 3/65/3 9/94/9 7/95/7 
f 3/65/3 7/95/7 5/96/5 
f 62/64/62 61/63/61 63/97/63 
f 62/64/62 63/97/63 64/98/64 
f 64/98/64 63/97/63 2/2/2 
f 64/98/64 2/2/2 1/1/1 
