mtllib btn2.mtl
v -1.812605858 0.007190000731 1.15737772
vn -0.02952711098 0.1733856201 0.9844112992
v -1.812432885 0.1370880157 1.134503722
vn 0.03513636813 0.1877577305 0.9815866947
v -1.843998909 0.1370880157 1.131394744
vn -0.01220535394 0.9970817566 0.07535909116
v -1.848647833 0.007190000731 1.153827667
vn -0.2209957242 0.1736441404 0.9596919417
v -1.874351859 0.1370880157 1.122187734
vn -0.3431374133 0.1882736385 0.92022264
v -1.883304834 0.007190000731 1.143314719
vn -0.4039563239 0.1739118248 0.8980946541
v -1.902324915 0.1370880157 1.107235789
vn -0.5112969279 0.2306825817 0.8278653026
v -1.915244937 0.007190000731 1.126242638
vn -0.5713784695 0.1741790622 0.801990211
v -1.926843882 0.1370880157 1.087113738
vn -0.650705874 0.2966041863 0.6990048885
v -1.943240881 0.007190000731 1.103266716
vn -0.7168340087 0.1744352877 0.6750713587
v -1.94696486 0.1370880157 1.062594771
vn -0.7506023049 0.3788570464 0.5413534045
v -1.966216803 0.007190000731 1.075270772
vn -0.8347145915 0.1746716797 0.52224648
v -1.961917877 0.1370880157 1.034621716
vn -0.8038037419 0.4680702984 0.3671644628
v -1.983288884 0.007190000731 1.043330669
vn -0.9205346107 0.1748699546 0.3493372798
v -1.971124768 0.1370880157 1.004268765
vn -0.8096596003 0.5548166037 0.1913892478
v -1.993801832 0.007190000731 1.008673668
vn -0.9709684253 0.1750368923 0.1630411744
v -1.974233747 0.1370880157 0.9727027416
vn -0.7744204402 0.6320637465 0.02772100642
v -1.997351885 0.007190000731 0.9726317525
vn -0.9840979576 0.1751567721 -0.02951829135
v -1.971124768 0.1370880157 0.9411377311
vn -0.7084412575 0.6963802576 -0.1147412062
v -1.993801832 0.007190000731 0.9365897775
vn -0.9594196081 0.1752261817 -0.2209293991
v -1.961917877 0.1370880157 0.910784781
vn -0.6225035787 0.7473998666 -0.2321264893
v -1.983288884 0.007190000731 0.9019317031
vn -0.8978758454 0.1752479821 -0.403865248
v -1.94696486 0.1370880157 0.8828117847
vn -0.5254256725 0.7865253091 -0.3245084882
v -1.966216803 0.007190000731 0.8699917197
vn -0.8018451333 0.1752173156 -0.5712646246
v -1.926843882 0.1370880157 0.8582926989
vn -0.4233314097 0.8157826066 -0.3940675855
v -1.943240881 0.007190000731 0.8419957161
vn -0.674988687 0.1751258522 -0.7167434692
v -1.902324915 0.1370880157 0.8381707668
vn -0.3199581206 0.8371450901 -0.4436382651
v -1.915244937 0.007190000731 0.8190207481
vn -0.5222095251 0.1749918759 -0.8346706629
v -1.874351859 0.1370880157 0.8232187033
vn -0.2173825651 0.8522120118 -0.4758986235
v -1.883304834 0.007190000731 0.8019476533
vn -0.3493482471 0.1748192012 -0.9205400944
v -1.843998909 0.1370880157 0.8140117526
vn -0.1165404841 0.8621792793 -0.4930164814
v -1.848647833 0.007190000731 0.7914347649
vn -0.163054198 0.174608618 -0.9710433483
v -1.812432885 0.1370880157 0.8109027147
vn -0.01777346991 0.8678433299 -0.4965199232
v -1.812605858 0.007190000731 0.7878847122
vn 0.02952257544 0.1743680239 -0.9842379093
v -1.780866742 0.1370880157 0.8140117526
vn 0.07892540842 0.8696573973 -0.487305671
v -1.776562929 0.007190000731 0.7914347649
vn 0.2209764123 0.1741073132 -0.9596124887
v -1.750514865 0.1370880157 0.8232187033
vn 0.1736289561 0.8677757978 -0.4656374156
v -1.741905928 0.007190000731 0.8019476533
vn 0.4039666057 0.1738365442 -0.8981046081
v -1.722540855 0.1370880157 0.8381707668
vn 0.2663344443 0.8620382547 -0.4312261641
v -1.709965825 0.007190000731 0.8190207481
vn 0.5714455843 0.173567012 -0.802075088
v -1.698022842 0.1370880157 0.8582926989
vn 0.3567338884 0.8519889116 -0.3832177818
v -1.681969881 0.007190000731 0.8419957161
vn 0.7169685364 0.1733178198 -0.6752162576
v -1.67790091 0.1370880157 0.8828117847
vn 0.4440381527 0.8368206024 -0.3202520609
v -1.65899384 0.007190000731 0.8699917197
vn 0.8349589705 0.1730843782 -0.5223842263
v -1.662948847 0.1370880157 0.910784781
vn 0.5266490579 0.8153349161 -0.2405614257
v -1.641921878 0.007190000731 0.901932776
vn 0.9208622575 0.1728755534 -0.3494663239
v -1.653740883 0.1370880157 0.9411377311
vn 0.6017481089 0.78591609 -0.1422502995
v -1.63140893 0.007190000731 0.9365897775
vn 0.97137326 0.172709167 -0.1631120443
v -1.650631905 0.1370880157 0.9727027416
vn 0.6648541093 0.7465939522 -0.02379993163
v -1.627858877 0.007190000731 0.9726317525
vn 0.9845508933 0.1725901812 0.02953159995
v -1.653740883 0.1370880157 1.004268765
vn 0.5786340237 0.8071803451 -0.1168014705
v -1.63140893 0.007190000731 1.008673668
vn 0.9050883651 0.1420107782 -0.4008091688
v -1.624055743 0.1370880157 1.050731778
vn 0.7239378691 0.6869571209 -0.06327596307
v -1.597513914 0.007190000731 1.061725736
vn 0.6800202131 0.198682785 0.7057603598
v -1.67790091 0.1370880157 1.062594771
vn 0.3396114409 0.1892983168 0.9213198423
v -1.658994794 0.007190000731 1.075271845
vn 0.5273282528 0.1582198292 0.8348002434
v -1.698022842 0.1370880157 1.087113738
vn 0.647434175 0.4664695263 0.6026899219
v -1.681969881 0.007190000731 1.103266716
vn 0.6752946973 0.1726227105 0.7170624137
v -1.722541928 0.1370880157 1.107235789
vn 0.5417273045 0.3772899806 0.7511216998
v -1.709965825 0.007190000731 1.126242638
vn 0.5224179626 0.1727568358 0.8350057006
v -1.750514865 0.1370880157 1.122187734
vn 0.3969595432 0.2952454686 0.8690530658
v -1.741905928 0.007190000731 1.143314719
vn 0.3494596481 0.1729319543 0.9208542109
v -1.780867934 0.1370880157 1.131394744
vn 0.2238955945 0.2296949327 0.9471594095
v -1.776562929 0.007190000731 1.153827667
vn 0.1630967706 0.1731451154 0.9712982178
vt 0.05613199994 0.483761996
vt 0.03909699991 0.483761996
vt 0.03909699991 0.4792670012
vt 0.05613199994 0.4792670012
vt 0.03909699991 0.474721998
vt 0.05613199994 0.474721998
vt 0.03909699991 0.47013399
vt 0.05613199994 0.47013399
vt 0.03909699991 0.465508014
vt 0.05613199994 0.465508014
vt 0.03909699991 0.4608480036
vt 0.05613199994 0.4608480036
vt 0.03909699991 0.4561609924
vt 0.05613199994 0.4561609924
vt 0.03909699991 0.4514510036
vt 0.05613199994 0.4514510036
vt 0.03909699991 0.4467239976
vt 0.05613199994 0.4467239976
vt 0.03909699991 0.4419870079
vt 0.05613199994 0.4419870079
vt 0.03909699991 0.4372430146
vt 0.05613199994 0.4372430146
vt 0.03909699991 0.4325000048
vt 0.05613199994 0.4325000048
vt 0.03909699991 0.4277620018
vt 0.05613199994 0.4277620018
vt 0.03909699991 0.4230360091
vt 0.05613199994 0.4230360091
vt 0.03909699991 0.4183259904
vt 0.05613199994 0.4183259904
vt 0.03909699991 0.4136379957
vt 0.05613199994 0.4136379957
vt 0.03909699991 0.4089789987
vt 0.05613199994 0.4089789987
vt 0.03909699991 0.4043520093
vt 0.05613199994 0.4043520093
vt 0.03909699991 0.3997640014
vt 0.05613199994 0.3997640014
vt 0.03909699991 0.3952200115
vt 0.05613199994 0.3952200115
vt 0.03909699991 0.3907240033
vt 0.05613199994 0.3907240033
vt 0.03909699991 0.3862830102
vt 0.05613199994 0.3862830102
vt 0.03909699991 0.381900996
vt 0.05613199994 0.381900996
vt 0.03909699991 0.3775840104
vt 0.05613199994 0.3775840104
vt 0.03909699991 0.3733350039
vt 0.05613199994 0.3733350039
vt 0.03909699991 0.3691599965
vt 0.05613199994 0.3691599965
vt 0.03909699991 0.3615390062
vt 0.05613199994 0.3615390062
vt 0.05608899891 0.5115849972
vt 0.03911300004 0.5116159916
vt 0.03909699991 0.505325973
vt 0.05613199994 0.505325973
vt 0.03909699991 0.5011510253
vt 0.05613199994 0.5011510253
vt 0.03909699991 0.4969030023
vt 0.05613199994 0.4969030023
vt 0.03909699991 0.4925850034
vt 0.05613199994 0.4925850034
vt 0.125556007 0.4623450041
vt 0.1317140013 0.4597940147
vt 0.138252005 0.4584929943
vt 0.1449169964 0.4584929943
vt 0.1514540017 0.4597930014
vt 0.1576119959 0.4623439908
vt 0.163154006 0.4660480022
vt 0.1747059971 0.4651480019
vt 0.1715710014 0.4763030112
vt 0.1741210073 0.4824599922
vt 0.1754219979 0.4889979959
vt 0.1754219979 0.4956629872
vt 0.1741210073 0.5022000074
vt 0.1715710014 0.5083580017
vt 0.1678680032 0.5139009953
vt 0.1631550044 0.5186139941
vt 0.1576119959 0.5223169923
vt 0.151455 0.5248680115
vt 0.1449169964 0.5261679888
vt 0.138252005 0.5261679888
vt 0.1317140013 0.5248680115
vt 0.1255570054 0.5223169923
vt 0.1200150028 0.5186139941
vt 0.1153009981 0.5139009953
vt 0.1115979999 0.508359015
vt 0.1090470031 0.5022010207
vt 0.1077470034 0.4956629872
vt 0.1077470034 0.4889979959
vt 0.1090470031 0.4824610054
vt 0.1115979999 0.4763030112
vt 0.1153009981 0.4707610011
vt 0.120013997 0.4660480022
vt 0.03909699991 0.4882029891
vt 0.05613199994 0.4882029891
# mm_gid 0
g mmGroup0
usemtl Material.001
f 1/1/1 2/2/2 3/3/3 
f 1/1/1 3/3/3 4/4/4 
f 4/4/4 3/3/3 5/5/5 
f 4/4/4 5/5/5 6/6/6 
f 6/6/6 5/5/5 7/7/7 
f 6/6/6 7/7/7 8/8/8 
f 8/8/8 7/7/7 9/9/9 
f 8/8/8 9/9/9 10/10/10 
f 10/10/10 9/9/9 11/11/11 
f 10/10/10 11/11/11 12/12/12 
f 12/12/12 11/11/11 13/13/13 
f 12/12/12 13/13/13 14/14/14 
f 14/14/14 13/13/13 15/15/15 
f 14/14/14 15/15/15 16/16/16 
f 16/16/16 15/15/15 17/17/17 
f 16/16/16 17/17/17 18/18/18 
f 18/18/18 17/17/17 19/19/19 
f 18/18/18 19/19/19 20/20/20 
f 20/20/20 19/19/19 21/21/21 
f 20/20/20 21/21/21 22/22/22 
f 22/22/22 21/21/21 23/23/23 
f 22/22/22 23/23/23 24/24/24 
f 24/24/24 23/23/23 25/25/25 
f 24/24/24 25/25/25 26/26/26 
f 26/26/26 25/25/25 27/27/27 
f 26/26/26 27/27/27 28/28/28 
f 28/28/28 27/27/27 29/29/29 
f 28/28/28 29/29/29 30/30/30 
f 30/30/30 29/29/29 31/31/31 
f 30/30/30 31/31/31 32/32/32 
f 32/32/32 31/31/31 33/33/33 
f 32/32/32 33/33/33 34/34/34 
f 34/34/34 33/33/33 35/35/35 
f 34/34/34 35/35/35 36/36/36 
f 36/36/36 35/35/35 37/37/37 
f 36/36/36 37/37/37 38/38/38 
f 38/38/38 37/37/37 39/39/39 
f 38/38/38 39/39/39 40/40/40 
f 40/40/40 39/39/39 41/41/41 
f 40/40/40 41/41/41 42/42/42 
f 42/42/42 41/41/41 43/43/43 
f 42/42/42 43/43/43 44/44/44 
f 44/44/44 43/43/43 45/45/45 
f 44/44/44 45/45/45 46/46/46 
f 46/46/46 45/45/45 47/47/47 
f 46/46/46 47/47/47 48/48/48 
f 48/48/48 47/47/47 49/49/49 
f 48/48/48 49/49/49 50/50/50 
f 50/50/50 49/49/49 51/51/51 
f 50/50/50 51/51/51 52/52/52 
f 52/52/52 51/51/51 53/53/53 
f 52/52/52 53/53/53 54/54/54 
f 54/55/54 53/56/53 55/57/55 
f 54/55/54 55/57/55 56/58/56 
f 56/58/56 55/57/55 57/59/57 
f 56/58/56 57/59/57 58/60/58 
f 58/60/58 57/59/57 59/61/59 
f 58/60/58 59/61/59 60/62/60 
f 60/62/60 59/61/59 61/63/61 
f 60/62/60 61/63/61 62/64/62 
f 3/65/3 2/66/2 63/67/63 
f 3/65/3 63/67/63 61/68/61 
f 3/65/3 61/68/61 59/69/59 
f 3/65/3 59/69/59 57/70/57 
f 3/65/3 57/70/57 55/71/55 
f 3/65/3 55/71/55 53/72/53 
f 3/65/3 53/72/53 51/73/51 
f 3/65/3 51/73/51 49/74/49 
f 3/65/3 49/74/49 47/75/47 
f 3/65/3 47/75/47 45/76/45 
f 3/65/3 45/76/45 43/77/43 
f 3/65/3 43/77/43 41/78/41 
f 3/65/3 41/78/41 39/79/39 
f 3/65/3 39/79/39 37/80/37 
f 3/65/3 37/80/37 35/81/35 
f 3/65/3 35/81/35 33/82/33 
f 3/65/3 33/82/33 31/83/31 
f 3/65/3 31/83/31 29/84/29 
f 3/65/3 29/84/29 27/85/27 
f 3/65/3 27/85/27 25/86/25 
f 3/65/3 25/86/25 23/87/23 
f 3/65/3 23/87/23 21/88/21 
f 3/65/3 21/88/21 19/89/19 
f 3/65/3 19/89/19 17/90/17 
f 3/65/3 17/90/17 15/91/15 
f 3/65/3 15/91/15 13/92/13 
f 3/65/3 13/92/13 11/93/11 
f 3/65/3 11/93/11 9/94/9 
f 3/65/3 9/94/9 7/95/7 
f 3/65/3 7/95/7 5/96/5 
f 62/64/62 61/63/61 63/97/63 
f 62/64/62 63/97/63 64/98/64 
f 64/98/64 63/97/63 2/2/2 
f 64/98/64 2/2/2 1/1/1 
