mtllib btn3.mtl
v 1.884625077 0.1246230006 1.090864062
vn 0.5825586319 4.976895275e-17 0.8127887249
v 1.860041142 0.1246230006 1.104004979
vn 0.4023411572 -0.1885762066 0.8958574533
v 1.849809051 0.1360159963 1.19475913
vn 0.03390459716 -0.9909559488 0.1298338473
v 1.833366275 0.1246230006 1.112096071
vn 0.1878262758 -0.554458797 0.8107383847
v 1.805624962 0.1360159963 1.205172062
vn 0.002992169233 -0.9918826222 0.1271217316
v 1.761440992 0.1360159963 1.19475913
vn -0.02272871509 -0.9912745953 0.1298386306
v 1.716635942 0.1360159963 1.187471032
vn -0.04588318616 -0.9918826222 0.1185899973
v 1.679800153 0.1360159963 1.160942078
vn -0.07068563998 -0.9912745357 0.1112582013
v 1.641194105 0.1360159963 1.137062073
vn -0.0877738297 -0.991882503 0.09200447053
v 1.617315173 0.1360159963 1.098456979
vn -0.1078819558 -0.9912745357 0.07573835552
v 1.590786099 0.1360159963 1.06162107
vn -0.116300188 -0.9918826222 0.05141178891
v 1.58349812 0.1360159963 1.01681602
vn -0.1286538988 -0.9912744761 0.02868977748
v 1.57308507 0.1360159963 0.9726319909
vn -0.1271223128 -0.9918825626 0.002991268411
v 1.58349812 0.1360159963 0.9284480214
vn -0.1298398674 -0.9912744761 -0.02272797003
v 1.590786099 0.1360159963 0.8836430311
vn -0.1185906753 -0.991882503 -0.0458840169
v 1.617315173 0.1360159963 0.846807003
vn -0.111258857 -0.9912744761 -0.07068543136
v 1.641194105 0.1360159963 0.808201015
vn -0.09200380743 -0.9918826222 -0.08777328581
v 1.679800153 0.1360159963 0.784322083
vn -0.07573981583 -0.9912744164 -0.1078820378
v 1.716636181 0.1360159963 0.7577929497
vn -0.05141097307 -0.991882503 -0.1163014099
v 1.761441112 0.1360159963 0.7505049706
vn -0.02868965268 -0.9912744761 -0.1286539584
v 1.805625081 0.1360159963 0.7400920987
vn -0.002991040936 -0.9918825626 -0.1271223426
v 1.849809289 0.1360159963 0.7505049706
vn 0.02272753045 -0.9912744761 -0.1298398972
v 1.8946141 0.1360159963 0.7577929497
vn 0.04588440061 -0.9918825626 -0.1185901612
v 1.931450129 0.1360159963 0.784322083
vn 0.07068520039 -0.9912744761 -0.1112589166
v 1.970055103 0.1360159963 0.808201015
vn 0.08777406067 -0.9918826222 -0.09200336039
v 1.993935108 0.1360159963 0.846807003
vn 0.1078809425 -0.9912745953 -0.07573900372
v 2.020463943 0.1360159963 0.8836430907
vn 0.1163004413 -0.9918825626 -0.05141198635
v 2.027752161 0.1360159963 0.928448081
vn 0.1286541522 -0.9912744164 -0.02868998982
v 2.038165092 0.1360159963 0.9726320505
vn 0.1271223873 -0.991882503 -0.002991118701
v 2.027752161 0.1360159963 1.016816139
vn 0.1283517033 -0.9914512634 0.02345767617
v 1.805625081 0.1246230006 1.114828944
vn 0.01722545177 -0.5623424649 0.8267250061
v 1.90617311 0.1246230006 1.073180079
vn 0.729927361 4.185381698e-17 0.6835247278
v 1.923857093 0.1246230006 1.051632047
vn 0.8492551446 3.23296164e-17 0.5279827118
v 1.936997175 0.1246230006 1.027047992
vn 0.9359303713 1.919815064e-17 0.3521851301
v 1.945090175 0.1246230006 1.000373006
vn 0.9692320228 -0.1885454506 0.1582399756
v 1.947822213 0.1246230006 0.9726319909
vn 0.8267258406 -0.5623415112 -0.01721653156
v 1.945090175 0.1246230006 0.9448910356
vn 0.8107397556 -0.5544536114 -0.1878355294
v 1.936998129 0.1246230006 0.9182159901
vn 0.7572034597 -0.562336266 -0.3322963417
v 1.923857093 0.1246230006 0.8936319947
vn 0.6771404743 -0.5544558764 -0.4837969244
v 1.90617311 0.1246230006 0.8720840812
vn 0.5724177957 -0.5623401999 -0.5967506766
v 1.884625077 0.1246230006 0.8543990254
vn 0.440464586 -0.5544514656 -0.7060980797
v 1.860041142 0.1246230006 0.8412590027
vn 0.3004674315 -0.5623424649 -0.7703831792
v 1.833366275 0.1246230006 0.8331670165
vn 0.1367174387 -0.5544516444 -0.8209090829
v 1.805625081 0.1246230006 0.8304350972
vn -0.0172160361 -0.5623423457 -0.8267253041
v 1.777884126 0.1246230006 0.8331670165
vn -0.1878348589 -0.5544538498 -0.8107397556
v 1.75120914 0.1246230006 0.8412590027
vn -0.3322736621 -0.5623351336 -0.7572142482
v 1.72662425 0.1246230006 0.8543990254
vn -0.4837990403 -0.5544489622 -0.6771446466
v 1.705076098 0.1246230006 0.8720840812
vn -0.5967614055 -0.5623458028 -0.5724011064
v 1.687393069 0.1246230006 0.893631041
vn -0.7060967088 -0.5544525981 -0.4404654205
v 1.674252152 0.1246230006 0.9182149768
vn -0.7703868151 -0.5623365641 -0.3004692793
v 1.666160226 0.1246230006 0.9448910356
vn -0.8209084868 -0.5544518232 -0.1367200911
v 1.663428068 0.1246230006 0.9726319909
vn -0.8267260194 -0.5623412132 0.01721779257
v 1.666160226 0.1246230006 1.000373006
vn -0.8107388616 -0.5544545054 0.1878368258
v 1.674252152 0.1246230006 1.027047992
vn -0.7572035789 -0.5623375177 0.3322939277
v 1.687393069 0.1246230006 1.051632047
vn -0.6771496534 -0.554459393 0.483780086
v 1.705076098 0.1246230006 1.073180079
vn -0.5724134445 -0.5623371601 0.5967577696
v 1.72662425 0.1246230006 1.090864062
vn -0.4404624104 -0.5544496179 0.7061008811
v 1.75120914 0.1246230006 1.104004979
vn -0.3004556 -0.5623423457 0.770387888
v 1.777884126 0.1246230006 1.112096071
vn -0.1367276758 -0.5544553995 0.820904851
v 1.805625081 -0.0178219974 1.114828944
vn -0.03282130137 6.119934805e-17 0.9994612336
v 1.777884126 -0.0178219974 1.112096071
vn -0.2271592766 5.963158271e-17 0.9738576412
v 1.75120914 -0.0178219974 1.104004979
vn -0.4127882421 5.577207047e-17 0.9108270407
v 1.72662425 -0.0178219974 1.090864062
vn -0.5825514197 5.450314563e-17 0.8127938509
v 1.705076098 -0.0178219974 1.073180079
vn -0.7299399376 4.658702055e-17 0.6835112572
v 1.687393069 -0.0178219974 1.051632047
vn -0.8492521048 3.232991418e-17 0.5279875398
v 1.674252152 -0.0178219974 1.027047992
vn -0.935934782 2.393135255e-17 0.3521733284
v 1.666160226 -0.0178219974 1.000373006
vn -0.9866586328 1.233577177e-17 0.162802875
v 1.663428068 -0.0178219974 0.9726319909
vn -0.9994615912 -8.256272191e-19 -0.03281122446
v 1.666160226 -0.0178219974 0.9448910356
vn -0.9738559127 -1.272649467e-17 -0.2271666378
v 1.674252152 -0.0178219974 0.9182149768
vn -0.9108214974 -2.527673535e-17 -0.4128004014
v 1.687393069 -0.0178219974 0.893631041
vn -0.812792778 -3.567107866e-17 -0.5825529099
v 1.705076098 -0.0178219974 0.8720840812
vn -0.6835351586 -4.469456035e-17 -0.7299175858
v 1.72662425 -0.0178219974 0.8543990254
vn -0.5279794335 -5.200200292e-17 -0.8492571712
v 1.75120914 -0.0178219974 0.8412590027
vn -0.3521595895 -5.730979261e-17 -0.9359399676
v 1.777884126 -0.0178219974 0.8331670165
vn -0.1627983749 -6.041545876e-17 -0.986659348
v 1.805625081 -0.0178219974 0.8304350972
vn 0.03280859068 -6.238285822e-17 -0.9994616508
v 1.833366275 -0.0178219974 0.8331670165
vn 0.2271696478 -6.081492082e-17 -0.9738551974
v 1.860041142 -0.0178219974 0.8412590027
vn 0.4127879441 -5.577207708e-17 -0.9108271599
v 1.884625077 -0.0178219974 0.8543990254
vn 0.582567513 -5.450255998e-17 -0.8127823472
v 1.90617311 -0.0178219974 0.8720840812
vn 0.729932487 -5.60552574e-17 -0.6835192442
v 1.923857093 -0.0178219974 0.8936319947
vn 0.8492443562 -3.706451403e-17 -0.5280000567
v 1.936998129 -0.0178219974 0.9182159901
vn 0.9359344244 -1.683047849e-17 -0.3521742523
v 1.945090175 -0.0178219974 0.9448910356
vn 0.9866591096 -9.968609988e-18 -0.1627997458
v 1.947822213 -0.0178219974 0.9726319909
vn 0.9994616508 2.009003332e-18 0.03280951455
v 1.945090175 -0.0178219974 1.000373006
vn 0.973849833 1.154456276e-17 0.2271927744
v 1.936997175 -0.0178219974 1.027047992
vn 0.9108225107 2.290961906e-17 0.4127981663
v 1.923857093 -0.0178219974 1.051632047
vn 0.8127933741 3.567102572e-17 0.5825520754
v 1.90617311 -0.0178219974 1.073180079
vn 0.6835234165 4.469523533e-17 0.7299286127
v 1.884625077 -0.0178219974 1.090864062
vn 0.5279986262 5.200127169e-17 0.8492452502
v 1.833366275 -0.0178219974 1.112096071
vn 0.1628106683 6.041533965e-17 0.9866573215
v 1.860041142 -0.0178219974 1.104004979
vn 0.3521542847 5.730991834e-17 0.9359419942
v 1.884625077 0.1246230006 1.090864062
vn 0.07473183423 -0.9913265109 0.1081057042
v 1.931449175 0.1360159963 1.160942078
vn 0.4336193502 -0.6432085633 0.6310760975
v 1.894613981 0.1360159963 1.187471032
vn 0.2408954352 -0.6582056284 0.7132564187
v 1.860041142 0.1246230006 1.104004979
vn 0.03553425148 -0.9920534492 0.1206949726
v 1.849809051 0.1360159963 1.19475913
vn 0.1926888376 -0.3342988491 0.9225590825
v 1.805624962 0.1360159963 1.205172062
vn -0.07831639051 7.197741217e-17 0.9969285727
v 1.805624962 0.2149000019 1.205172062
vn 0.07801656425 0.08739635348 0.993113935
v 1.761440992 0.2149000019 1.19475913
vn -0.006741699297 0.9994671941 0.03193467483
v 1.761440992 0.1360159963 1.19475913
vn -0.1835978031 7.087170992e-17 0.9830014706
v 1.716635942 0.2149000019 1.187471032
vn -0.3079721928 0.08739680052 0.9473726749
v 1.716635942 0.1360159963 1.187471032
vn -0.4538659155 7.096199172e-17 0.8910700083
v 1.679800153 0.2149000019 1.160942078
vn -0.5593613982 0.144164592 0.8162912726
v 1.679800153 0.1360159963 1.160942078
vn -0.5458034277 5.130731017e-17 0.8379132748
v 1.641194105 0.2149000019 1.137062073
vn -0.6086699367 0.3491865396 0.7124533057
v 1.641194105 0.1360159963 1.137062073
vn -0.7603138089 3.977338495e-17 0.6495559216
v 1.617315173 0.2149000019 1.098456979
vn -0.73091048 0.4889788628 0.4760982096
v 1.617315173 0.1360159963 1.098456979
vn -0.8249095678 4.529242664e-17 0.5652647614
v 1.590786099 0.2149000019 1.06162107
vn -0.6626253128 0.668592751 0.3375077546
v 1.590786099 0.1360159963 1.06162107
vn -0.9510120153 1.893021526e-17 0.3091538846
v 1.58349812 0.2149000019 1.01681602
vn -0.6350690126 0.7632944584 0.1186127365
v 1.58349812 0.1360159963 1.01681602
vn -0.9784345627 7.307823902e-18 0.2065570056
v 1.57308507 0.2149000019 0.9726319909
vn -0.5314849615 0.8460381031 0.04175276309
v 1.57308507 0.1360159963 0.9726319909
vn -0.9969284534 -1.572870369e-17 -0.07831744105
v 1.58349812 0.2149000019 0.9284480214
vn -0.4531073868 0.8863090277 -0.09565544873
v 1.58349812 0.1360159963 0.9284480214
vn -0.9830016494 -1.658222008e-17 -0.1835967153
v 1.590786099 0.2149000019 0.8836430311
vn -0.3748732507 0.9190317392 -0.1218632907
v 1.590786099 0.1360159963 0.8836430311
vn -0.8910701871 -1.685801533e-17 -0.4538654685
v 1.617315173 0.2149000019 0.846807003
vn -0.2915989459 0.9354379773 -0.1998145878
v 1.617315173 0.1360159963 0.846807003
vn -0.8379204869 -1.205962249e-17 -0.5457923412
v 1.641194105 0.2149000019 0.808201015
vn -0.2390469611 0.9492890835 -0.2042223513
v 1.641194105 0.1360159963 0.808201015
vn -0.6495519876 -4.655601782e-17 -0.7603172064
v 1.679800153 0.2149000019 0.784322083
vn -0.1597359329 0.9562140703 -0.2452326268
v 1.679800153 0.1360159963 0.784322083
vn -0.5652611256 -6.119143358e-17 -0.8249120116
v 1.716636181 0.2149000019 0.7577929497
vn -0.1231967807 0.9624558091 -0.2418706268
v 1.716636181 0.1360159963 0.7577929497
vn -0.3091548383 -5.823267471e-17 -0.9510117173
v 1.761441112 0.2149000019 0.7505049706
vn -0.04811877757 0.9650434256 -0.2576350272
v 1.761441112 0.1360159963 0.7505049706
vn -0.2065549493 -5.991186459e-17 -0.9784349799
v 1.805625081 0.2149000019 0.7400920987
vn -0.01978138275 0.9675748348 -0.2518088222
v 1.805625081 0.1360159963 0.7400920987
vn 0.07831570506 -6.104426823e-17 -0.9969286323
v 1.849809289 0.2149000019 0.7505049706
vn 0.05220973864 0.9675276875 -0.247314319
v 1.849809289 0.1360159963 0.7505049706
vn 0.183596313 -6.553155761e-17 -0.983001709
v 1.8946141 0.2149000019 0.7577929497
vn 0.07808759063 0.9675750136 -0.2402101755
v 1.8946141 0.1360159963 0.7577929497
vn 0.4538658857 -4.909551524e-17 -0.8910700083
v 1.931450129 0.2149000019 0.784322083
vn 0.1481511444 0.9650428891 -0.216202274
v 1.931450129 0.1360159963 0.784322083
vn 0.5457991362 -4.06270585e-17 -0.8379160166
v 1.970055103 0.2149000019 0.808201015
vn 0.1763130426 0.9624565244 -0.2063763589
v 1.970055103 0.1360159963 0.808201015
vn 0.7603133917 -5.070711784e-17 -0.649556458
v 1.993935108 0.2149000019 0.846807003
vn 0.2452314645 0.9562138915 -0.159739092
v 1.993935108 0.1360159963 0.846807003
vn 0.8249101043 -4.529266156e-17 -0.565263927
v 2.020463943 0.2149000019 0.8836430907
vn 0.2801575363 0.9492887855 -0.142697379
v 2.020463943 0.1360159963 0.8836430907
vn 0.9510118365 -2.439676903e-17 -0.3091545105
v 2.027752161 0.2149000019 0.928448081
vn 0.3474783897 0.9354393482 -0.06489979476
v 2.027752161 0.1360159963 0.928448081
vn 0.9784343243 -1.264795553e-17 -0.2065581977
v 2.038165092 0.2149000019 0.9726320505
vn 0.3929736316 0.9190313816 -0.03087151051
v 2.038165092 0.1360159963 0.9726320505
vn 0.9969284534 1.572869542e-17 0.07831739634
v 2.027752161 0.2149000019 1.016816139
vn 0.45310691 0.8863092661 0.09565573186
v 2.027752161 0.1360159963 1.016816139
vn 0.9309351444 -0.3216933906 0.1728384495
v 2.020463943 0.2149000019 1.061621189
vn 0.5070048571 0.8460386395 0.1648171991
v 2.020463943 0.1360159963 1.061621189
vn 0.674684763 -0.6582051516 0.3340156376
v 1.993935108 0.2149000019 1.098456979
vn 0.5329338312 0.7632937431 0.3651905954
v 1.993935108 0.1360159963 1.098456979
vn 0.6421129704 -0.6432085037 0.4171016812
v 1.970055103 0.2149000019 1.137063026
vn 0.5653890967 0.668591857 0.483032167
v 1.970055103 0.1360159963 1.137063026
vn 0.4955021739 -0.6582064033 0.5667820573
v 1.931449175 0.2149000019 1.160942078
vn 0.4760966301 0.4889754057 0.7309138179
v 1.894613981 0.2149000019 1.187471032
vn 0.4252986312 0.3491953313 0.8349752426
v 1.849809051 0.2149000019 1.19475913
vn 0.1816798598 0.1441656202 0.9727326035
v 1.90617311 0.1246230006 1.073180079
vn 0.08070318401 -0.9917559028 0.09953526407
v 1.923857093 0.1246230006 1.051632047
vn 0.1104123145 -0.9913266301 0.07127849013
v 1.936997175 0.1246230006 1.027047992
vn 0.1126500666 -0.9917559028 0.06107507274
v 1.945090175 0.1246230006 1.000373006
vn 0.1275572032 -0.991451323 0.02744772471
vt 0.1496420056 0.3521229923
vt 0.1305309981 0.3521150053
vt 0.1473740041 0.3468059897
vt 0.1273880005 0.3432070017
vt 0.1461839974 0.3411490023
vt 0.1729220003 0.3673160076
vt 0.1713829935 0.3849070072
vt 0.1787019968 0.3672530055
vt 0.1807599962 0.3860479891
vt 0.1843580008 0.3660640121
vt 0.1896679997 0.3829039931
vt 0.1896740049 0.3637929857
vt 0.1987680048 0.3803710043
vt 0.1944440007 0.3605290055
vt 0.2057960033 0.3740580082
vt 0.1984879971 0.3563979864
vt 0.2132350057 0.3682340086
vt 0.2016460001 0.3515549898
vt 0.2173119932 0.3597109914
vt 0.2038020045 0.346190989
vt 0.2219559997 0.3514829874
vt 0.204866007 0.340508014
vt 0.2224610001 0.3420479894
vt 0.2048050016 0.3347269893
vt 0.2236029953 0.3326689899
vt 0.2036129981 0.3290700018
vt 0.2204589993 0.3237589896
vt 0.2013449967 0.3237529993
vt 0.2179239988 0.3146570027
vt 0.1980790049 0.3189820051
vt 0.2116090059 0.3076289892
vt 0.193948999 0.3149380088
vt 0.205783993 0.3001900017
vt 0.1891060024 0.3117800057
vt 0.1972610056 0.2961139977
vt 0.183743 0.3096249998
vt 0.1890320033 0.2914710045
vt 0.1780599952 0.3085600138
vt 0.1795980036 0.2909680009
vt 0.172280997 0.3086229861
vt 0.1702200025 0.2898269892
vt 0.1666239947 0.3098129928
vt 0.161311999 0.2929730117
vt 0.1613080055 0.3120830059
vt 0.1522119939 0.2955079973
vt 0.1565379947 0.3153479993
vt 0.145186007 0.3018229902
vt 0.1524969935 0.3194800019
vt 0.1377490014 0.3076480031
vt 0.1493390054 0.3243210018
vt 0.1336749941 0.316170007
vt 0.1471869946 0.329685986
vt 0.1290329993 0.3243969977
vt 0.1461230069 0.3353680074
vt 0.1285289973 0.3338289857
vt 0.2663869858 0.4752919972
vt 0.232366994 0.4752750099
vt 0.2332900017 0.4652619958
vt 0.2666099966 0.4719339907
vt 0.2361550033 0.4556330144
vt 0.2674889863 0.4686929882
vt 0.2408480048 0.4467630088
vt 0.2689880133 0.4656949937
vt 0.2471809983 0.4389939904
vt 0.2710500062 0.4630550146
vt 0.2549020052 0.4326219857
vt 0.2735959888 0.4608780146
vt 0.2637070119 0.4278829992
vt 0.2765299976 0.4592500031
vt 0.2732560039 0.4249480069
vt 0.2797420025 0.4582400024
vt 0.2831810117 0.4239110053
vt 0.2831090093 0.457893014
vt 0.29311499 0.4247910082
vt 0.2865000069 0.4582319856
vt 0.3027069867 0.4275520146
vt 0.2898199856 0.4590199888
vt 0.3115949929 0.4321129918
vt 0.2928870022 0.4604400098
vt 0.3194369972 0.4383180141
vt 0.295589 0.4624330103
vt 0.3259260058 0.4459379911
vt 0.2978290021 0.4649209976
vt 0.3308050036 0.4546880126
vt 0.2995289862 0.4678069949
vt 0.3338800073 0.4642339945
vt 0.3006210029 0.4709739983
vt 0.3350250125 0.4742070138
vt 0.3010640144 0.4742980003
vt 0.3341920078 0.4842199981
vt 0.3008419871 0.4776499867
vt 0.3314110041 0.4938850105
vt 0.299962014 0.4808999896
vt 0.3267860115 0.5028250217
vt 0.29845801 0.4839200079
vt 0.3204970062 0.5106920004
vt 0.296386987 0.486593008
vt 0.3127839863 0.5171800256
vt 0.293828994 0.4888150096
vt 0.3039459884 0.5220379829
vt 0.2908810079 0.4904989898
vt 0.2943260074 0.5250769854
vt 0.287658006 0.4915789962
vt 0.2842940092 0.5261780024
vt 0.2842830122 0.4920110106
vt 0.2742379904 0.5252990127
vt 0.2808859944 0.4917800128
vt 0.2645480037 0.5224710107
vt 0.2775990069 0.4908939898
vt 0.2555980086 0.5178059936
vt 0.2745490074 0.4893870056
vt 0.2477339953 0.5114830136
vt 0.2718519866 0.4873180091
vt 0.2412610054 0.5037479997
vt 0.2696120143 0.4847680032
vt 0.2668269873 0.4786359966
vt 0.233427003 0.4852850139
vt 0.2679159939 0.4818359911
vt 0.2364300042 0.4948999882
vt 0.1529060006 0.3568939865
vt 0.1393769979 0.3682439923
vt 0.1330640018 0.3612160087
vt 0.1496420056 0.3521229923
vt 0.1305309981 0.3521150053
vt 0.2313030064 0.3962669969
vt 0.2461490035 0.3868809938
vt 0.2523759902 0.3927769959
vt 0.2392639965 0.4058330059
vt 0.258457005 0.3990829885
vt 0.2483820021 0.41347
vt 0.2664949894 0.4020749927
vt 0.2594150007 0.419212997
vt 0.2745420039 0.4056110084
vt 0.2707560062 0.4227589965
vt 0.2831090093 0.4053260088
vt 0.2831459939 0.4238429964
vt 0.2918910086 0.4054679871
vt 0.2949880064 0.4227640033
vt 0.2996999919 0.4018779993
vt 0.3068459928 0.419001013
vt 0.307900995 0.3986670077
vt 0.3173719943 0.4134739935
vt 0.3137629926 0.3923810124
vt 0.3268980086 0.4054709971
vt 0.3201009929 0.3862749934
vt 0.3345159888 0.3963400126
vt 0.3231059909 0.3782149851
vt 0.3402619958 0.3853009939
vt 0.3266470134 0.3701409996
vt 0.3438189924 0.3739509881
vt 0.326357007 0.3615350127
vt 0.3449240029 0.3615539968
vt 0.3265649974 0.3527170122
vt 0.3438929915 0.3497039974
vt 0.3230270147 0.3448689878
vt 0.3401950002 0.3378199935
vt 0.3198789954 0.3366439939
vt 0.3347249925 0.3272579908
vt 0.3136520088 0.3307479918
vt 0.3267639875 0.3176920116
vt 0.3075709939 0.3244430125
vt 0.3176459968 0.3100549877
vt 0.2995330095 0.321449995
vt 0.3066129982 0.304313004
vt 0.2914859951 0.3179149926
vt 0.2952719927 0.3007659912
vt 0.2829189897 0.3181990087
vt 0.282882005 0.2996819913
vt 0.2741369903 0.3180580139
vt 0.2710399926 0.3007619977
vt 0.266328007 0.3216480017
vt 0.2591820061 0.3045240045
vt 0.2581270039 0.3248580098
vt 0.2486560047 0.3100520074
vt 0.2522650063 0.3311440051
vt 0.2391300052 0.3180539906
vt 0.245927006 0.3372499943
vt 0.2315119952 0.3271850049
vt 0.2429219931 0.3453100026
vt 0.2257660031 0.3382239938
vt 0.2393810004 0.3533839881
vt 0.2222090065 0.3495739996
vt 0.2396710068 0.3619909883
vt 0.221103996 0.3619720042
vt 0.2394630015 0.3708080053
vt 0.2221350074 0.3738209903
vt 0.2430009991 0.3786559999
vt 0.2258329988 0.3857060075
vt 0.1570360065 0.3609380126
vt 0.1452009976 0.3756830096
vt 0.1618780047 0.3640959859
vt 0.1537230015 0.3797590137
vt 0.1672410071 0.3662509918
vt 0.1619500071 0.3844020069
vt 0.1729220003 0.3673160076
vt 0.1713829935 0.3849070072
# mm_gid 0
g mmGroup0
usemtl Material.001
f 2/1/2 3/2/3 4/3/4 
f 4/3/4 3/2/3 5/4/5 
f 4/3/4 5/4/5 31/5/31 
f 36/8/36 29/9/29 30/7/30 
f 36/8/36 30/7/30 35/6/35 
f 37/10/37 28/11/28 29/9/29 
f 37/10/37 29/9/29 36/8/36 
f 38/12/38 27/13/27 28/11/28 
f 38/12/38 28/11/28 37/10/37 
f 39/14/39 26/15/26 27/13/27 
f 39/14/39 27/13/27 38/12/38 
f 40/16/40 25/17/25 26/15/26 
f 40/16/40 26/15/26 39/14/39 
f 41/18/41 24/19/24 25/17/25 
f 41/18/41 25/17/25 40/16/40 
f 42/20/42 23/21/23 24/19/24 
f 42/20/42 24/19/24 41/18/41 
f 43/22/43 22/23/22 23/21/23 
f 43/22/43 23/21/23 42/20/42 
f 44/24/44 21/25/21 22/23/22 
f 44/24/44 22/23/22 43/22/43 
f 45/26/45 20/27/20 21/25/21 
f 45/26/45 21/25/21 44/24/44 
f 46/28/46 19/29/19 20/27/20 
f 46/28/46 20/27/20 45/26/45 
f 47/30/47 18/31/18 19/29/19 
f 47/30/47 19/29/19 46/28/46 
f 48/32/48 17/33/17 18/31/18 
f 48/32/48 18/31/18 47/30/47 
f 49/34/49 16/35/16 17/33/17 
f 49/34/49 17/33/17 48/32/48 
f 50/36/50 15/37/15 16/35/16 
f 50/36/50 16/35/16 49/34/49 
f 51/38/51 14/39/14 15/37/15 
f 51/38/51 15/37/15 50/36/50 
f 52/40/52 13/41/13 14/39/14 
f 52/40/52 14/39/14 51/38/51 
f 53/42/53 12/43/12 13/41/13 
f 53/42/53 13/41/13 52/40/52 
f 54/44/54 11/45/11 12/43/12 
f 54/44/54 12/43/12 53/42/53 
f 55/46/55 10/47/10 11/45/11 
f 55/46/55 11/45/11 54/44/54 
f 56/48/56 9/49/9 10/47/10 
f 56/48/56 10/47/10 55/46/55 
f 57/50/57 8/51/8 9/49/9 
f 57/50/57 9/49/9 56/48/56 
f 58/52/58 7/53/7 8/51/8 
f 58/52/58 8/51/8 57/50/57 
f 59/54/59 6/55/6 7/53/7 
f 59/54/59 7/53/7 58/52/58 
f 31/5/31 5/4/5 6/55/6 
f 31/5/31 6/55/6 59/54/59 
f 60/56/60 31/57/31 59/58/59 
f 60/56/60 59/58/59 61/59/61 
f 61/59/61 59/58/59 58/60/58 
f 61/59/61 58/60/58 62/61/62 
f 62/61/62 58/60/58 57/62/57 
f 62/61/62 57/62/57 63/63/63 
f 63/63/63 57/62/57 56/64/56 
f 63/63/63 56/64/56 64/65/64 
f 64/65/64 56/64/56 55/66/55 
f 64/65/64 55/66/55 65/67/65 
f 65/67/65 55/66/55 54/68/54 
f 65/67/65 54/68/54 66/69/66 
f 66/69/66 54/68/54 53/70/53 
f 66/69/66 53/70/53 67/71/67 
f 67/71/67 53/70/53 52/72/52 
f 67/71/67 52/72/52 68/73/68 
f 68/73/68 52/72/52 51/74/51 
f 68/73/68 51/74/51 69/75/69 
f 69/75/69 51/74/51 50/76/50 
f 69/75/69 50/76/50 70/77/70 
f 70/77/70 50/76/50 49/78/49 
f 70/77/70 49/78/49 71/79/71 
f 71/79/71 49/78/49 48/80/48 
f 71/79/71 48/80/48 72/81/72 
f 72/81/72 48/80/48 47/82/47 
f 72/81/72 47/82/47 73/83/73 
f 73/83/73 47/82/47 46/84/46 
f 73/83/73 46/84/46 74/85/74 
f 74/85/74 46/84/46 45/86/45 
f 74/85/74 45/86/45 75/87/75 
f 75/87/75 45/86/45 44/88/44 
f 75/87/75 44/88/44 76/89/76 
f 76/89/76 44/88/44 43/90/43 
f 76/89/76 43/90/43 77/91/77 
f 77/91/77 43/90/43 42/92/42 
f 77/91/77 42/92/42 78/93/78 
f 78/93/78 42/92/42 41/94/41 
f 78/93/78 41/94/41 79/95/79 
f 79/95/79 41/94/41 40/96/40 
f 79/95/79 40/96/40 80/97/80 
f 80/97/80 40/96/40 39/98/39 
f 80/97/80 39/98/39 81/99/81 
f 81/99/81 39/98/39 38/100/38 
f 81/99/81 38/100/38 82/101/82 
f 82/101/82 38/100/38 37/102/37 
f 82/101/82 37/102/37 83/103/83 
f 83/103/83 37/102/37 36/104/36 
f 83/103/83 36/104/36 84/105/84 
f 84/105/84 36/104/36 35/106/35 
f 84/105/84 35/106/35 85/107/85 
f 85/107/85 35/106/35 34/108/34 
f 85/107/85 34/108/34 86/109/86 
f 86/109/86 34/108/34 33/110/33 
f 86/109/86 33/110/33 87/111/87 
f 87/111/87 33/110/33 32/112/32 
f 87/111/87 32/112/32 88/113/88 
f 88/113/88 32/112/32 1/114/1 
f 88/113/88 1/114/1 89/115/89 
f 90/116/90 4/117/4 31/57/31 
f 90/116/90 31/57/31 60/56/60 
f 91/118/91 2/119/2 4/117/4 
f 91/118/91 4/117/4 90/116/90 
f 89/115/89 1/114/1 2/119/2 
f 89/115/89 2/119/2 91/118/91 
# mm_gid 2
g mmGroup2
usemtl Material.001
f 92/120/92 93/121/93 94/122/94 
f 92/120/92 94/122/94 95/123/95 
f 95/123/95 94/122/94 96/124/96 
f 97/125/97 98/126/98 99/127/99 
f 97/125/97 99/127/99 100/128/100 
f 100/128/100 99/127/99 101/129/101 
f 100/128/100 101/129/101 102/130/102 
f 102/130/102 101/129/101 103/131/103 
f 102/130/102 103/131/103 104/132/104 
f 104/132/104 103/131/103 105/133/105 
f 104/132/104 105/133/105 106/134/106 
f 106/134/106 105/133/105 107/135/107 
f 106/134/106 107/135/107 108/136/108 
f 108/136/108 107/135/107 109/137/109 
f 108/136/108 109/137/109 110/138/110 
f 110/138/110 109/137/109 111/139/111 
f 110/138/110 111/139/111 112/140/112 
f 112/140/112 111/139/111 113/141/113 
f 112/140/112 113/141/113 114/142/114 
f 114/142/114 113/141/113 115/143/115 
f 114/142/114 115/143/115 116/144/116 
f 116/144/116 115/143/115 117/145/117 
f 116/144/116 117/145/117 118/146/118 
f 118/146/118 117/145/117 119/147/119 
f 118/146/118 119/147/119 120/148/120 
f 120/148/120 119/147/119 121/149/121 
f 120/148/120 121/149/121 122/150/122 
f 122/150/122 121/149/121 123/151/123 
f 122/150/122 123/151/123 124/152/124 
f 124/152/124 123/151/123 125/153/125 
f 124/152/124 125/153/125 126/154/126 
f 126/154/126 125/153/125 127/155/127 
f 126/154/126 127/155/127 128/156/128 
f 128/156/128 127/155/127 129/157/129 
f 128/156/128 129/157/129 130/158/130 
f 130/158/130 129/157/129 131/159/131 
f 130/158/130 131/159/131 132/160/132 
f 132/160/132 131/159/131 133/161/133 
f 132/160/132 133/161/133 134/162/134 
f 134/162/134 133/161/133 135/163/135 
f 134/162/134 135/163/135 136/164/136 
f 136/164/136 135/163/135 137/165/137 
f 136/164/136 137/165/137 138/166/138 
f 138/166/138 137/165/137 139/167/139 
f 138/166/138 139/167/139 140/168/140 
f 140/168/140 139/167/139 141/169/141 
f 140/168/140 141/169/141 142/170/142 
f 142/170/142 141/169/141 143/171/143 
f 142/170/142 143/171/143 144/172/144 
f 144/172/144 143/171/143 145/173/145 
f 144/172/144 145/173/145 146/174/146 
f 146/174/146 145/173/145 147/175/147 
f 146/174/146 147/175/147 148/176/148 
f 148/176/148 147/175/147 149/177/149 
f 148/176/148 149/177/149 150/178/150 
f 150/178/150 149/177/149 151/179/151 
f 150/178/150 151/179/151 152/180/152 
f 152/180/152 151/179/151 153/181/153 
f 152/180/152 153/181/153 154/182/154 
f 154/182/154 153/181/153 155/183/155 
f 154/182/154 155/183/155 93/184/93 
f 93/184/93 155/183/155 156/185/156 
f 93/184/93 156/185/156 94/186/94 
f 99/127/99 98/126/98 157/187/157 
f 99/127/99 157/187/157 156/185/156 
f 99/127/99 156/185/156 155/183/155 
f 99/127/99 155/183/155 153/181/153 
f 99/127/99 153/181/153 151/179/151 
f 99/127/99 151/179/151 149/177/149 
f 99/127/99 149/177/149 147/175/147 
f 99/127/99 147/175/147 145/173/145 
f 99/127/99 145/173/145 143/171/143 
f 99/127/99 143/171/143 141/169/141 
f 99/127/99 141/169/141 139/167/139 
f 99/127/99 139/167/139 137/165/137 
f 99/127/99 137/165/137 135/163/135 
f 99/127/99 135/163/135 133/161/133 
f 99/127/99 133/161/133 131/159/131 
f 99/127/99 131/159/131 129/157/129 
f 99/127/99 129/157/129 127/155/127 
f 99/127/99 127/155/127 125/153/125 
f 99/127/99 125/153/125 123/151/123 
f 99/127/99 123/151/123 121/149/121 
f 99/127/99 121/149/121 119/147/119 
f 99/127/99 119/147/119 117/145/117 
f 99/127/99 117/145/117 115/143/115 
f 99/127/99 115/143/115 113/141/113 
f 99/127/99 113/141/113 111/139/111 
f 99/127/99 111/139/111 109/137/109 
f 99/127/99 109/137/109 107/135/107 
f 99/127/99 107/135/107 105/133/105 
f 99/127/99 105/133/105 103/131/103 
f 99/127/99 103/131/103 101/129/101 
f 94/186/94 156/185/156 157/187/157 
f 94/186/94 157/187/157 96/188/96 
f 96/188/96 157/187/157 98/126/98 
f 96/188/96 98/126/98 97/125/97 
f 158/189/158 154/190/154 93/121/93 
f 158/189/158 93/121/93 92/120/92 
f 159/191/159 152/192/152 154/190/154 
f 159/191/159 154/190/154 158/189/158 
f 160/193/160 150/194/150 152/192/152 
f 160/193/160 152/192/152 159/191/159 
f 161/195/161 148/196/148 150/194/150 
f 161/195/161 150/194/150 160/193/160 
