mtllib down.mtl
v 1.994225979 -0.007562782615 1.777439237
vn 0.4472135901 5.476786989e-17 0.8944271803
v 1.867295027 -0.007562782615 1.650508285
vn -0.4472132325 -5.476787982e-17 -0.8944273591
v 1.994225979 -0.007562769577 1.650508404
vn 0.8944272995 -2.738392171e-17 -0.4472133815
v 1.867295027 0.01879522204 1.650508285
vn -0.2022764087 0.9740920663 -0.1011380479
v 1.867295027 -0.007562791463 1.777439237
vn -0.8944273591 2.738391179e-17 0.4472132027
v 1.867295027 0.01879521459 1.777439237
vn -0.188342765 0.9069924951 0.3766850531
v 1.994225979 0.01879523136 1.650508404
vn 0.1883429885 0.9069923759 -0.3766852617
v 1.994225979 0.01879522204 1.777439237
vn 0.2022761554 0.9740921259 0.1011381894
vt 0.8910549879 0.5092750192
vt 0.8970720172 0.5152909756
vt 0.93205899 0.4803040028
vt 0.926042974 0.5092750192
vt 0.8970720172 0.5092750192
vt 0.926042974 0.4803040028
vt 0.8970720172 0.4742870033
vt 0.93205899 0.5092750192
vt 0.926042974 0.4742870033
vt 0.926042974 0.5152909756
vt 0.8970720172 0.4803040028
vt 0.8910549879 0.4803040028
# mm_gid 0
g mmGroup0
usemtl Material.001
f 8/11/8 7/6/7 4/4/4 
f 8/11/8 4/4/4 6/5/6 
f 6/5/6 5/1/5 1/12/1 
f 6/5/6 1/12/1 8/11/8 
f 8/11/8 1/7/1 3/9/3 
f 8/11/8 3/9/3 7/6/7 
f 7/6/7 3/3/3 2/8/2 
f 7/6/7 2/8/2 4/4/4 
f 4/4/4 2/10/2 5/2/5 
f 4/4/4 5/2/5 6/5/6 
