mtllib screen.mtl
v -0.2190500051 0.02039999701 1.938707948
vn 0.005320299882 0.9999600649 0.007178664207
v -0.2190501243 0.02039999701 3.323355913
vn 0.02012212388 0.9994354248 -0.02690560371
v 1.649250865 0.02039999701 3.323356152
vn -0.01087323949 0.9999158382 -0.007079802454
v 1.649250984 0.02039999701 1.938708067
vn -0.009964782745 0.9995690584 0.02761099488
v 1.69928205 0.04090599716 1.888677001
vn -0.07851344347 0.9643757343 -0.2526165545
v 1.69928205 0.01454799995 1.888677001
vn 0.8335049748 -3.383160103e-17 -0.5525119901
v -0.2690809965 0.01454799995 1.888676882
vn -0.6021879315 -4.88855007e-17 -0.7983543873
v -0.2690809965 0.04090599716 1.888676882
vn 0.05844540894 0.9951226711 0.07946685702
v -0.2690811157 0.04090599716 3.373386621
vn -0.25151366 0.9086005092 0.3334456682
v -0.2690811157 0.01454799995 3.373386621
vn -0.6021880507 4.888510034e-17 0.7983542681
v 1.699281812 0.01454799995 3.37338686
vn 0.3528808951 5.729315635e-17 0.9356682301
v 1.699281812 0.04090599716 3.37338686
vn 0.1759361029 0.9794543386 -0.09856808186
vt 0.3818100095 0.724281013
vt 0.3818100095 0.9881520271
vt 0.02577099949 0.9881520271
vt 0.02577099949 0.7242820263
vt 0.2540960014 0.2113839984
vt 0.2525210083 0.2113800049
vt 0.252519995 0.1211360022
vt 0.2540949881 0.1211389974
vt 0.3223879933 0.1213029996
vt 0.3239629865 0.1213060021
vt 0.3239629865 0.2115499973
vt 0.3223879933 0.2115470022
vt 0.3223850131 0.2127600014
vt 0.2540929914 0.2125959992
vt 0.256592989 0.2089069933
vt 0.2565749884 0.1236450002
vt 0.3198910058 0.1237789989
vt 0.3199079931 0.2090409994
vt 0.2540979981 0.1199269965
vt 0.3223899901 0.1200900003
# mm_gid 0
g mmGroup0
usemtl Material.001
f 1/1/1 2/2/2 3/3/3 
f 1/1/1 3/3/3 4/4/4 
f 5/5/5 6/6/6 7/7/7 
f 5/5/5 7/7/7 8/8/8 
f 9/9/9 10/10/10 11/11/11 
f 9/9/9 11/11/11 12/12/12 
f 12/12/12 11/13/11 6/14/6 
f 12/12/12 6/14/6 5/5/5 
f 4/15/4 5/5/5 8/8/8 
f 4/15/4 8/8/8 1/16/1 
f 2/17/2 9/9/9 12/12/12 
f 2/17/2 12/12/12 3/18/3 
f 7/19/7 10/20/10 9/9/9 
f 7/19/7 9/9/9 8/8/8 
f 8/8/8 9/9/9 2/17/2 
f 8/8/8 2/17/2 1/16/1 
f 3/18/3 12/12/12 5/5/5 
f 3/18/3 5/5/5 4/15/4 
