mtllib "stop alarm.mtl"
v -0.7086459994 0.01879500411 2.030742884
vn 0.08504460752 0.981752038 -0.1700891405
v -0.8607839346 0.01879500411 2.030742884
vn -0.3231031001 0.9324727654 -0.1615514755
v -0.8607839346 0.01879500411 2.182880878
vn -0.08504460752 0.981752038 0.1700891405
v -0.7086459994 0.01879500411 2.182880878
vn 0.3231031001 0.9324727654 0.1615514755
v -0.7086459994 -0.007563001476 2.182880878
vn 0.447213769 5.476786328e-17 0.8944271207
v -0.7086459994 -0.007563001476 2.030742884
vn 0.8944272995 -2.738392502e-17 -0.4472134411
v -0.8607839346 -0.007563001476 2.030742884
vn -0.447213769 -5.476786328e-17 -0.8944271207
v -0.8607839346 -0.007563001476 2.182880878
vn -0.8944272995 2.738392502e-17 0.4472134411
vt 0.6646810174 0.1499529928
vt 0.6994060278 0.1499529928
vt 0.6994060278 0.1846780032
vt 0.6646810174 0.1846780032
vt 0.6586650014 0.1846780032
vt 0.6586650014 0.1499529928
vt 0.6646810174 0.1439370066
vt 0.6994060278 0.1439370066
vt 0.7054219842 0.1499529928
vt 0.7054219842 0.1846780032
vt 0.6994060278 0.1906950027
vt 0.6646810174 0.1906950027
# mm_gid 0
g mmGroup0
usemtl Material.001
f 1/1/1 2/2/2 3/3/3 
f 1/1/1 3/3/3 4/4/4 
f 4/4/4 5/5/5 6/6/6 
f 4/4/4 6/6/6 1/1/1 
f 1/1/1 6/7/6 7/8/7 
f 1/1/1 7/8/7 2/2/2 
f 2/2/2 7/9/7 8/10/8 
f 2/2/2 8/10/8 3/3/3 
f 3/3/3 8/11/8 5/12/5 
f 3/3/3 5/12/5 4/4/4 
