mtllib timer.mtl
v 0.9321290851 0.01879500411 1.066260934
vn 0.07937928289 0.9801433086 -0.1817087531
v 0.7694000602 0.01879500411 1.066260934
vn -0.3034981787 0.9368681908 -0.1736859977
v 0.7694000602 0.01879500411 1.208436966
vn -0.07937928289 0.9801433086 0.1817087531
v 0.9321290851 0.01879500411 1.208436966
vn 0.3034981787 0.9368681908 0.1736859977
v 0.9321290851 -0.007563001476 1.208436966
vn 0.4003180265 5.611186303e-17 0.9163762927
v 0.9321290851 -0.007563001476 1.066260934
vn 0.867924571 -3.041385948e-17 -0.4966960251
v 0.7694000602 -0.007563001476 1.066260934
vn -0.4003180265 -5.611186303e-17 -0.9163762927
v 0.7694000602 -0.007563001476 1.208436966
vn -0.867924571 3.041385948e-17 0.4966960251
vt 0.4204849899 0.05884199962
vt 0.4576269984 0.05884199962
vt 0.4576269984 0.09129299968
vt 0.4204849899 0.09129299968
vt 0.4144690037 0.09129299968
vt 0.4144690037 0.05884199962
vt 0.4204849899 0.05282500014
vt 0.4576269984 0.05282500014
vt 0.4636430144 0.05884199962
vt 0.4636430144 0.09129299968
vt 0.4576269984 0.09730900079
vt 0.4204849899 0.09730900079
# mm_gid 0
g mmGroup0
usemtl Material.001
f 1/1/1 2/2/2 3/3/3 
f 1/1/1 3/3/3 4/4/4 
f 4/4/4 5/5/5 6/6/6 
f 4/4/4 6/6/6 1/1/1 
f 1/1/1 6/7/6 7/8/7 
f 1/1/1 7/8/7 2/2/2 
f 2/2/2 7/9/7 8/10/8 
f 2/2/2 8/10/8 3/3/3 
f 3/3/3 8/11/8 5/12/5 
f 3/3/3 5/12/5 4/4/4 
