mtllib undo.mtl
v -1.526769996 0.01879500411 2.353471994
vn 0.08504488319 0.981752038 -0.1700891405
v -1.67890799 0.01879500411 2.353471518
vn -0.3231027126 0.9324729443 -0.1615515053
v -1.67890799 0.01879500411 2.505609512
vn -0.08504488319 0.981752038 0.1700891405
v -1.526769996 0.01879500411 2.505609989
vn 0.3231027126 0.9324729443 0.1615515053
v -1.526769996 -0.007563001476 2.505609989
vn 0.4472122788 5.476846546e-17 0.8944278359
v -1.526769996 -0.007563001476 2.353471994
vn 0.8944273591 -2.738391509e-17 -0.4472132623
v -1.67890799 -0.007563001476 2.353471518
vn -0.4472122788 -5.476735373e-17 -0.8944278359
v -1.67890799 -0.007563001476 2.505609512
vn -0.8944273591 2.738391509e-17 0.4472132623
vt 0.4228299856 0.3459689915
vt 0.457554996 0.3459689915
vt 0.457554996 0.3806940019
vt 0.4228299856 0.3806940019
vt 0.4168139994 0.3806940019
vt 0.4168139994 0.3459689915
vt 0.4228299856 0.3399530053
vt 0.457554996 0.3399530053
vt 0.4635719955 0.3459689915
vt 0.4635719955 0.3806940019
vt 0.457554996 0.3867099881
vt 0.4228299856 0.3867099881
# mm_gid 0
g mmGroup0
usemtl Material.001
f 1/1/1 2/2/2 3/3/3 
f 1/1/1 3/3/3 4/4/4 
f 4/4/4 5/5/5 6/6/6 
f 4/4/4 6/6/6 1/1/1 
f 1/1/1 6/7/6 7/8/7 
f 1/1/1 7/8/7 2/2/2 
f 2/2/2 7/9/7 8/10/8 
f 2/2/2 8/10/8 3/3/3 
f 3/3/3 8/11/8 5/12/5 
f 3/3/3 5/12/5 4/4/4 
