mtllib up.mtl
v 1.865363002 -0.007563001476 1.809697866
vn -0.4472139776 -5.476785666e-17 -0.8944270015
v 1.992293835 -0.007563001476 1.936628938
vn 0.4472139776 5.476785666e-17 0.8944270015
v 1.865363002 0.01879500411 1.936628938
vn -0.1011381745 0.9740921259 0.2022761256
v 1.992293835 0.01879500411 1.809697866
vn 0.1011381745 0.9740921259 -0.2022761256
v 1.865363002 0.01879500411 1.809697866
vn -0.3766853511 0.9069924355 -0.1883424819
v 1.865363002 -0.007563001476 1.936628938
vn -0.8944273591 2.738391179e-17 0.4472132027
v 1.992293835 -0.007563001476 1.809697866
vn 0.8944273591 -2.738391179e-17 -0.4472132027
v 1.992293835 0.01879500411 1.936628938
vn 0.3766853511 0.9069924355 0.1883424819
vt 0.5082979798 0.4825780094
vt 0.4672940075 0.4825780094
vt 0.5022820234 0.511548996
vt 0.4733099937 0.4825780094
vt 0.4733099937 0.517565012
vt 0.5022820234 0.517565012
vt 0.5082979798 0.511548996
vt 0.5022820234 0.4765619934
vt 0.4733099937 0.4765619934
vt 0.4672940075 0.511548996
vt 0.4733099937 0.511548996
vt 0.5022820234 0.4825780094
# mm_gid 0
g mmGroup0
usemtl Material.001
f 3/3/3 2/5/2 8/11/8 
f 3/3/3 6/6/6 2/5/2 
f 5/12/5 6/7/6 3/3/3 
f 5/12/5 1/1/1 6/7/6 
f 4/4/4 1/8/1 5/12/5 
f 4/4/4 7/9/7 1/8/1 
f 8/11/8 7/2/7 4/4/4 
f 8/11/8 2/10/2 7/2/7 
f 4/4/4 3/3/3 8/11/8 
f 4/4/4 5/12/5 3/3/3 
