v 0.303243041 -6.121263027 3.789179087
vn 0 -1 6.123234263e-17
v 0.303243041 -6.121263027 3.950619221
vn 0 -1 6.123234263e-17
v -6.70787096 -6.121263027 3.950619221
vn 0 -1 6.123234263e-17
v 0.303243041 -6.121263027 3.466298103
vn 0 -1 6.123234263e-17
v 0.303243041 -6.121263027 3.627737999
vn 0 -1 6.123234263e-17
v -6.70787096 -6.121263027 3.627737999
vn 0 -1 6.123234263e-17
v 0.303243041 -6.121263027 3.304858208
vn 0 -1 6.123234263e-17
v -6.70787096 -6.121263027 3.466298103
vn 0 -1 6.123234263e-17
v -6.70787096 -6.121263027 3.789179087
vn 0 -1 6.123234263e-17
v -6.838334084 -6.067224503 3.627737999
vn -0.707108438 -0.7071051598 4.329773684e-17
v -6.838334084 -6.067224503 3.789179087
vn -0.6824031472 -0.7309318185 -0.008036203682
v -6.87941885 -6.004675865 3.789179087
vn -0.9245145917 -0.381092906 -0.006398943719
v -6.775784969 -6.108310223 3.627737999
vn -0.3826749623 -0.9238830209 5.410766727e-17
v -6.775784969 -6.108310223 3.789179087
vn -0.3804515004 -0.9247575998 -0.008943852037
v -6.838334084 -6.067224503 3.466298103
vn -0.7309314013 -0.6824036241 0.008036262356
v -6.87941885 -6.004675865 3.627737999
vn -0.9238787889 -0.3826851547 1.802854538e-17
v -6.775784969 -6.108310223 3.466298103
vn -0.3810875416 -0.9245167971 0.006398849189
v -6.892374039 -5.936761379 3.789179087
vn -0.9856370687 -0.168681249 -0.008133725263
v -6.889293194 -5.970333099 3.950619221
vn -0.9822378755 -0.1873675138 -0.01010910515
v -6.892374039 -5.936761379 3.950619221
vn -0.9958153963 -0.09138788283 5.595893801e-18
v -6.862299919 -6.037722588 3.950619221
vn -0.8357601166 -0.5489663482 -0.01187506132
v -6.87941885 -6.004675865 3.950619221
vn -0.9283000231 -0.3718320727 2.276814801e-17
v -6.892374039 -5.936761379 3.627737999
vn -0.9822880626 -0.1873770952 1.147353773e-17
v -6.892374039 -5.936761379 3.466298103
vn -0.984719336 -0.1740521789 0.005800647195
v -6.808832169 -6.091189384 3.950619221
vn -0.548971653 -0.8357566595 -0.01187104918
v -6.838334084 -6.067224503 3.950619221
vn -0.7070984244 -0.7071151137 4.329831256e-17
v -6.741442204 -6.118184566 3.950619221
vn -0.1873333454 -0.9822443128 -0.01011293847
v -6.775784969 -6.108310223 3.950619221
vn -0.3718550801 -0.9282907844 5.684141647e-17
v -6.70787096 -6.121263027 3.789179087
vn -0.1740127206 -0.9847263098 -0.005802821834
v -6.87941885 -6.004675865 3.466298103
vn -0.9247562289 -0.3804549575 0.00894408673
v -6.889293194 -5.970333099 3.304858208
vn -0.9822378755 -0.1873675138 0.01010913122
v -6.862299919 -6.037722588 3.304858208
vn -0.8357601166 -0.5489663482 0.01187509298
v -6.892374039 -5.936761379 3.304858208
vn -0.9958153963 -0.09138788283 5.595893801e-18
v -6.87941885 -6.004675865 3.304858208
vn -0.9283000231 -0.3718320727 2.276814801e-17
v -6.808832169 -6.091189384 3.304858208
vn -0.548971653 -0.8357566595 0.01187107991
v -6.838334084 -6.067224503 3.304858208
vn -0.7070984244 -0.7071151137 4.329831256e-17
v -6.70787096 -6.121263027 3.466298103
vn -0.1686395407 -0.9856442213 0.008136862889
v -6.70787096 -6.121263027 3.627737999
vn -0.1873429269 -0.9822945595 6.01481934e-17
v -6.741442204 -6.118184566 3.304858208
vn -0.1873333454 -0.9822443128 0.01011296455
v -6.775784969 -6.108310223 3.304858208
vn -0.3718550801 -0.9282907844 5.684141647e-17
v -6.70787096 -6.121263027 3.304858208
vn -0.09131463617 -0.995822072 6.097651883e-17
v -6.70787096 7.956315994 3.789176702
vn 0 1 -6.123234263e-17
v -6.70787096 7.956315994 3.950616598
vn 0 1 -6.123234263e-17
v 0.303243041 7.956315994 3.950616598
vn 0 1 -6.123234263e-17
v -6.70787096 7.956315994 3.466296911
vn 0 1 -6.123234263e-17
v -6.70787096 7.956315994 3.62773633
vn 0 1 -6.123234263e-17
v 0.303243041 7.956315994 3.62773633
vn 0 1 -6.123234263e-17
v -6.70787096 7.956315994 3.304856539
vn 0 1 -6.123234263e-17
v 0.303243041 7.956315994 3.466296911
vn 0 1 -6.123234263e-17
v 0.303243041 7.956315994 3.789176702
vn 0 1 -6.123234263e-17
v -6.838334084 7.902276993 3.62773633
vn -0.7071065903 0.7071069479 -3.288376454e-17
v -6.838334084 7.902276993 3.466296911
vn -0.6824017763 0.7309331298 0.008036435582
v -6.87941885 7.839728355 3.466296911
vn -0.924515605 0.3810905218 0.006399166305
v -6.775784969 7.943362236 3.62773633
vn -0.3826800585 0.9238809347 -4.576299977e-17
v -6.775784969 7.943362236 3.466296911
vn -0.3804545105 0.9247564077 0.008943334222
v -6.838334084 7.902276993 3.789176702
vn -0.7309305072 0.6824045777 -0.008036429062
v -6.87941885 7.839728355 3.62773633
vn -0.9238801003 0.3826819956 -2.637268018e-17
v -6.775784969 7.943362236 3.789176702
vn -0.3810911477 0.9245153069 -0.006398436613
v -6.892374039 7.771812439 3.466296911
vn -0.985637784 0.1686770767 0.008134207688
v -6.889293194 7.805386066 3.304856539
vn -0.9822384715 0.1873641461 0.01010971423
v -6.892374039 7.771812439 3.304856539
vn -0.9958158135 0.09138333052 -5.595615041e-18
v -6.862299919 7.872775078 3.304856539
vn -0.8357601166 0.5489663482 0.01187504642
v -6.87941885 7.839728355 3.304856539
vn -0.9282991886 0.3718340695 -2.276827044e-17
v -6.892374039 7.771812439 3.62773633
vn -0.9822887182 0.1873737276 -6.440991146e-18
v -6.892374039 7.771812439 3.789176702
vn -0.9847200513 0.1740483046 -0.005800964311
v -6.808832169 7.926241875 3.304856539
vn -0.5489677191 0.8357592821 0.01187158469
v -6.838334084 7.902276993 3.304856539
vn -0.7070984244 0.7071151137 -4.329831256e-17
v -6.741442204 7.95323658 3.304856539
vn -0.1873509884 0.9822409749 0.01011094544
v -6.775784969 7.943362236 3.304856539
vn -0.3718500733 0.9282928109 -5.684154221e-17
v -6.70787096 7.956315994 3.466296911
vn -0.1740329713 0.9847227335 0.005801720545
v -6.87941885 7.839728355 3.789176702
vn -0.9247570634 0.3804528713 -0.008944331668
v -6.889293194 7.805386066 3.950616598
vn -0.9822384715 0.1873641461 -0.01010974031
v -6.862299919 7.872775078 3.950616598
vn -0.8357601166 0.5489663482 -0.01187507715
v -6.87941885 7.839728355 3.950616598
vn -0.9282991886 0.3718340695 -2.276827044e-17
v -6.838334084 7.902276993 3.950616598
vn -0.7070984244 0.7071151137 -3.613165613e-17
v -6.808832169 7.926241875 3.950616598
vn -0.5489677191 0.8357592821 -0.01187161542
v -6.70787096 7.956315994 3.789176702
vn -0.1686609983 0.9856405258 -0.00813525077
v -6.70787096 7.956315994 3.62773633
vn -0.1873605698 0.9822912216 -6.014798826e-17
v -6.741442204 7.95323658 3.950616598
vn -0.1873509884 0.9822409749 -0.01011097245
v -6.775784969 7.943362236 3.950616598
vn -0.3718500733 0.9282928109 -5.684154221e-17
v -6.70787096 7.956315994 3.950616598
vn -0.09135182947 0.9958186746 -6.097630707e-17
v 0.4337060452 7.902276993 3.62773633
vn 0.7071062326 0.7071073055 -3.809090289e-17
v 0.4337060452 7.902276993 3.466296911
vn 0.7309299111 0.6824052334 0.008036512882
v 0.3711569011 7.943362236 3.466296911
vn 0.3810921907 0.9245148897 0.006398654543
v 0.4747908711 7.839728355 3.62773633
vn 0.9238801003 0.3826819956 -1.802842627e-17
v 0.4747908711 7.839728355 3.466296911
vn 0.9247570634 0.3804528415 0.008944342844
v 0.4337060452 7.902276993 3.789176702
vn 0.6824009418 0.7309339046 -0.008036479354
v 0.3711569011 7.943362236 3.62773633
vn 0.3826805949 0.9238806963 -4.870330921e-17
v 0.4747908711 7.839728355 3.789176702
vn 0.924515605 0.3810905218 -0.006399147678
v 0.303243041 7.956315994 3.466296911
vn 0.1686611325 0.9856405258 0.008135613054
v 0.3368149698 7.95323658 3.304856539
vn 0.1873521209 0.9822407961 0.01011143159
v 0.303243041 7.956315994 3.304856539
vn 0.09135012329 0.9958188534 -6.09763203e-17
v 0.4042040706 7.926241875 3.304856539
vn 0.5489664078 0.8357601166 0.01187176537
v 0.3711569011 7.943362236 3.304856539
vn 0.3718540967 0.9282912016 -5.684144294e-17
v 0.303243041 7.956315994 3.62773633
vn 0.1873616874 0.9822909832 -5.511569272e-17
v 0.303243041 7.956315994 3.789176702
vn 0.1740334928 0.9847226143 -0.005801962223
v 0.4576720595 7.872775078 3.304856539
vn 0.8357601166 0.5489663482 0.01187504642
v 0.4337060452 7.902276993 3.304856539
vn 0.7070984244 0.7071151137 -4.329831256e-17
v 0.4846650362 7.805386066 3.304856539
vn 0.9822384715 0.1873641461 0.01010971423
v 0.4747908711 7.839728355 3.304856539
vn 0.9282991886 0.3718340695 -2.276827044e-17
v 0.4877459705 7.771812439 3.466296911
vn 0.9847200513 0.1740482301 0.005800982006
v 0.4877459705 7.771812439 3.304856539
vn 0.9958158135 0.09138333052 -5.595615041e-18
v 0.3368149698 7.95323658 3.950616598
vn 0.1873521209 0.9822407961 -0.01011145767
v 0.3711569011 7.943362236 3.789176702
vn 0.380455792 0.9247558713 -0.008943605237
v 0.4042040706 7.926241875 3.950616598
vn 0.5489664078 0.8357601166 -0.0118717961
v 0.303243041 7.956315994 3.950616598
vn 0.09135012329 0.9958188534 -6.09763203e-17
v 0.3711569011 7.943362236 3.950616598
vn 0.3718540967 0.9282912016 -5.684144294e-17
v 0.4337060452 7.902276993 3.950616598
vn 0.7070984244 0.7071151137 -5.046512781e-17
v 0.4576720595 7.872775078 3.950616598
vn 0.8357601166 0.5489663482 -0.01187507715
v 0.4877459705 7.771812439 3.789176702
vn 0.985637784 0.1686771512 -0.008134196512
v 0.4877459705 7.771812439 3.62773633
vn 0.9822887182 0.1873737276 -1.650565955e-17
v 0.4846650362 7.805386066 3.950616598
vn 0.9822384715 0.1873641461 -0.01010974031
v 0.4747908711 7.839728355 3.950616598
vn 0.9282991886 0.3718340695 -2.276827044e-17
v 0.4877459705 7.771812439 3.950616598
vn 0.9958158135 0.09138333052 -5.595615041e-18
v 0.4337060452 -6.067224503 3.627737999
vn 0.7071073055 -0.7071062326 4.85048024e-17
v 0.4337060452 -6.067224503 3.466298103
vn 0.6824024916 -0.7309324741 0.008036307991
v 0.4747908711 -6.004675865 3.466298103
vn 0.9245145917 -0.381092906 0.006398979109
v 0.3711569011 -6.108310223 3.627737999
vn 0.3826754987 -0.9238828421 5.657150413e-17
v 0.3711569011 -6.108310223 3.466298103
vn 0.3804527223 -0.924757123 0.008944177069
v 0.4337060452 -6.067224503 3.789179087
vn 0.730930984 -0.6824041009 -0.008036285639
v 0.4747908711 -6.004675865 3.627737999
vn 0.9238787889 -0.3826851547 2.883685619e-17
v 0.3711569011 -6.108310223 3.789179087
vn 0.3810885847 -0.9245163798 -0.006399012636
v 0.4877459705 -5.936761379 3.466298103
vn 0.9856371284 -0.1686812043 0.008133763447
v 0.4846650362 -5.970333099 3.304858208
vn 0.9822378755 -0.1873675138 0.01010913122
v 0.4877459705 -5.936761379 3.304858208
vn 0.9958153963 -0.09138788283 5.595893801e-18
v 0.4576720595 -6.037722588 3.304858208
vn 0.8357601166 -0.5489663482 0.01187509298
v 0.4747908711 -6.004675865 3.304858208
vn 0.9283000231 -0.3718320727 2.276814801e-17
v 0.4877459705 -5.936761379 3.627737999
vn 0.9822880626 -0.1873770952 1.147353773e-17
v 0.4877459705 -5.936761379 3.789179087
vn 0.984719336 -0.1740522236 -0.005800614599
v 0.4042040706 -6.091189384 3.304858208
vn 0.5489703417 -0.8357575536 0.01187126059
v 0.4337060452 -6.067224503 3.304858208
vn 0.7070984244 -0.7071151137 4.329831256e-17
v 0.3368149698 -6.118184566 3.304858208
vn 0.187334463 -0.9822441339 0.0101134507
v 0.3711569011 -6.108310223 3.304858208
vn 0.3718591034 -0.928289175 5.684131721e-17
v 0.303243041 -6.121263027 3.466298103
vn 0.1740131229 -0.9847262502 0.005803113338
v 0.4747908711 -6.004675865 3.789179087
vn 0.9247562289 -0.3804549575 -0.008944044821
v 0.4846650362 -5.970333099 3.950619221
vn 0.9822378755 -0.1873675138 -0.01010910515
v 0.4576720595 -6.037722588 3.950619221
vn 0.8357601166 -0.5489663482 -0.01187506132
v 0.4877459705 -5.936761379 3.950619221
vn 0.9958153963 -0.09138788283 5.595893801e-18
v 0.4747908711 -6.004675865 3.950619221
vn 0.9283000231 -0.3718320727 2.276814801e-17
v 0.4042040706 -6.091189384 3.950619221
vn 0.5489703417 -0.8357575536 -0.01187122986
v 0.4337060452 -6.067224503 3.950619221
vn 0.7070984244 -0.7071151137 3.613165944e-17
v 0.303243041 -6.121263027 3.789179087
vn 0.1686397791 -0.9856441617 -0.008137175813
v 0.303243041 -6.121263027 3.627737999
vn 0.1873440444 -0.9822943807 5.511588463e-17
v 0.3368149698 -6.118184566 3.950619221
vn 0.187334463 -0.9822441339 -0.01011342369
v 0.3711569011 -6.108310223 3.950619221
vn 0.3718591034 -0.928289175 5.684131721e-17
v 0.303243041 -6.121263027 3.950619221
vn 0.09131292999 -0.9958222508 6.097652544e-17
v 0.4010919333 -6.034607887 3.996744156
vn 0 6.123234263e-17 1
v 0.4319040775 -5.987697601 3.996744156
vn 0 6.123234263e-17 1
v 0.4416199923 -5.936761379 3.996744156
vn 5.547725907e-13 1.214288119e-07 1
v 0.303243041 -6.075138092 3.996744156
vn -1.177936082e-09 1.205425804e-07 1
v 0.354179889 -6.065422535 3.996744156
vn 0 6.123234263e-17 1
v 0.303243041 7.910190582 3.996742487
vn 2.092080408e-14 1.205846161e-07 1
v 0.4010919333 7.869660378 3.996742487
vn 0 6.123234263e-17 1
v 0.4416199923 7.771812439 3.996742487
vn 1.223255026e-07 1.223245789e-07 1
v 0.4319040775 7.822749138 3.996742487
vn 0 6.123234263e-17 1
v 0.354179889 7.900475502 3.996742487
vn 0 6.123234263e-17 1
v -6.70787096 7.910190582 3.996742487
vn -1.17794674e-09 1.205425804e-07 1
v -6.846249104 -5.936761379 3.996744156
vn 1.223231152e-07 1.223246073e-07 1
v -6.758807182 -6.065422535 3.996744156
vn 0 6.123234263e-17 1
v -6.70787096 -6.075138092 3.996744156
vn -2.092079561e-14 1.205846161e-07 1
v -6.836532116 -5.987697601 3.996744156
vn 0 6.123234263e-17 1
v -6.805718899 -6.034607887 3.996744156
vn 0 6.123234263e-17 1
v -6.846249104 7.771812439 3.996742487
vn -5.547666818e-13 1.214288119e-07 1
v -6.758807182 7.900475502 3.996742487
vn 0 6.123234263e-17 1
v -6.836532116 7.822749138 3.996742487
vn 0 6.123234263e-17 1
v -6.805718899 7.869660378 3.996742487
vn 0 6.123234263e-17 1
v -6.880843163 -5.936761379 3.962150097
vn -0.7071143389 1.032630337e-07 0.7070992589
v -6.880843163 7.771812439 3.962148428
vn -0.7071056962 1.032654851e-07 0.707107842
v -6.892374039 7.771812439 3.950616598
vn -0.707118094 1.114154315e-07 0.7070954442
v -6.85777998 -5.936761379 3.985212803
vn -0.7071197033 8.514686556e-08 0.7070938349
v -6.85777998 7.771812439 3.985211611
vn -0.707128346 6.884094716e-08 0.7070852518
v -6.869310856 7.771812439 3.973679781
vn -0.7071014047 1.105131489e-07 0.7071121931
v -6.846249104 -5.936761379 3.996744156
vn -0.7071245313 7.337046526e-08 0.7070890069
v -6.846249104 7.771812439 3.996742487
vn -0.7071164846 8.695858611e-08 0.7070971131
v -6.869310856 -5.936761379 3.973682404
vn -0.7070916891 1.195716379e-07 0.7071218491
v -6.822025776 -6.050916195 3.973682404
vn -0.4649198949 -0.5338751674 0.7062767148
v -6.830181122 -6.05907011 3.962150097
vn -0.4877250791 -0.4574455023 0.743550837
v -6.771542072 -6.097588062 3.962150097
vn -0.274605751 -0.613063395 0.740773201
v -6.813871861 -6.042762756 3.985212803
vn -0.5159658194 -0.4837649167 0.7069305182
v -6.763051033 -6.076144695 3.985212803
vn -0.253498584 -0.6601077914 0.7071040273
v -6.85797596 -5.996186733 3.973682404
vn -0.6352899075 -0.3131040931 0.7059550881
v -6.868699074 -6.000430107 3.962150097
vn -0.628120482 -0.2361604124 0.7414128184
v -6.84725523 -5.991940975 3.985212803
vn -0.6703671813 -0.2263934165 0.7066497803
v -6.70787096 -6.109733105 3.962150097
vn -0.1183136925 -0.6735411286 0.7296192646
v -6.741442204 -6.118184566 3.950619221
vn -0.1242602319 -0.6514897943 0.7484119534
v -6.70787096 -6.121263027 3.950619221
vn -0.06470745802 -0.7056603432 0.7055894136
v -6.808832169 -6.091189384 3.950619221
vn -0.3601057827 -0.5482217073 0.7548356056
v -6.775784969 -6.108310223 3.950619221
vn -0.2629391849 -0.6563954949 0.7071123719
v -6.838334084 -6.067224503 3.950619221
vn -0.4999883771 -0.5000001788 0.7071148753
v -6.767295837 -6.086865902 3.973682404
vn -0.2427745908 -0.6642508507 0.7069875002
v -6.70787096 -6.086669445 3.985212803
vn -0.1336568743 -0.7007351518 0.7007895708
v -6.70787096 -6.098201752 3.973682404
vn -0.1336687058 -0.7007458806 0.7007766366
v -6.70787096 -6.075138092 3.996744156
vn -0.1336627752 -0.7007582188 0.7007654309
v -6.758807182 -6.065422535 3.996744156
vn -0.3153448105 -0.6342986226 0.7058491111
v -6.862299919 -6.037722588 3.950619221
vn -0.5482202768 -0.3600997627 0.7548394799
v -6.87941885 -6.004675865 3.950619221
vn -0.6564375758 -0.2629371583 0.7070740461
v -6.880843163 -5.936761379 3.962150097
vn -0.6637324095 -0.1128926352 0.7394014597
v -6.889293194 -5.970333099 3.950619221
vn -0.6515145898 -0.1242732108 0.7483882308
v -6.892374039 -5.936761379 3.950619221
vn -0.7056194544 -0.06475604326 0.7056258917
v -6.869310856 -5.936761379 3.973682404
vn -0.7007545233 -0.1336604655 0.7007696033
v -6.805718899 -6.034607887 3.996744156
vn -0.499997884 -0.500000596 0.707107842
v -6.836532116 -5.987697601 3.996744156
vn -0.6342898607 -0.3153494298 0.7058548927
v -6.85777998 -5.936761379 3.985212803
vn -0.7007670403 -0.1336586177 0.7007574439
v -6.846249104 -5.936761379 3.996744156
vn -0.7007582784 -0.1336688846 0.7007641792
v -6.70787096 7.944785118 3.962148428
vn 0 0.7071186304 0.7070949078
v 0.303243041 7.944785118 3.962148428
vn 0 0.7071046233 0.7071089149
v 0.303243041 7.956315994 3.950616598
vn 0 0.7071326375 0.7070809603
v -6.70787096 7.921722889 3.985211611
vn 7.22796817e-20 0.7071207762 0.707092762
v 0.303243041 7.921722889 3.985211611
vn 0 0.707092762 0.7071207762
v 0.303243041 7.933253288 3.973679781
vn 7.22796817e-20 0.7071294188 0.7070841789
v -6.70787096 7.910190582 3.996742487
vn 0 0.7070648074 0.7071487904
v 0.303243041 7.910190582 3.996742487
vn 0 0.7070648074 0.7071487904
v -6.70787096 7.933253288 3.973679781
vn 7.227902254e-20 0.7071099877 0.7071035504
v 0.4762150049 7.771812439 3.962148428
vn 0.7071067691 1.032642345e-07 0.7071067691
v 0.4762150049 -5.936761379 3.962150097
vn 0.7071003318 1.032661743e-07 0.707113266
v 0.4877459705 -5.936761379 3.950619221
vn 0.707118094 1.114154315e-07 0.7070954442
v 0.4531520009 7.771812439 3.985211611
vn 0.7070992589 8.514825112e-08 0.7071143389
v 0.4531520009 -5.936761379 3.985212803
vn 0.707083106 6.884573622e-08 0.7071304917
v 0.4646829665 -5.936761379 3.973682404
vn 0.707113266 1.105111451e-07 0.7071003318
v 0.4416199923 7.771812439 3.996742487
vn 0.7070793509 7.337516195e-08 0.7071342468
v 0.4416199923 -5.936761379 3.996744156
vn 0.7070873976 8.696216014e-08 0.7071261406
v 0.4646829665 7.771812439 3.973679781
vn 0.7071110606 1.195684689e-07 0.7071024776
v 0.303243041 -6.109733105 3.962150097
vn 7.227714846e-20 -0.7071390748 0.7070744634
v -6.70787096 -6.109733105 3.962150097
vn 0 -0.7071358562 0.707077682
v -6.70787096 -6.121263027 3.950619221
vn 1.084205145e-19 -0.7071422935 0.7070712447
v 0.303243041 -6.086669445 3.985212803
vn 0 -0.7070701718 0.7071433663
v -6.70787096 -6.086669445 3.985212803
vn 0 -0.7070884705 0.7071250677
v -6.70787096 -6.098201752 3.973682404
vn 0 -0.7070787549 0.7071347833
v 0.303243041 -6.075138092 3.996744156
vn 0 -0.7071067691 0.7071067691
v -6.70787096 -6.075138092 3.996744156
vn 0 -0.7071067691 0.7071067691
v 0.303243041 -6.098201752 3.973682404
vn 0 -0.7071056962 0.707107842
v -6.822025776 7.885969162 3.973679781
vn -0.4649142921 0.5338692665 0.7062848806
v -6.830181122 7.894123077 3.962148428
vn -0.4877231121 0.4574486911 0.7435501814
v -6.85797596 7.831238747 3.973679781
vn -0.6533145308 0.2706106603 0.7070714235
v -6.813871861 7.877814293 3.985211611
vn -0.5159769058 0.4837709665 0.7069182992
v -6.767295837 7.921917915 3.973679781
vn -0.2427711189 0.6642498374 0.706989646
v -6.771542072 7.932640076 3.962148428
vn -0.2745988369 0.6130666733 0.7407730818
v -6.763051033 7.911196709 3.985211611
vn -0.2535133958 0.6601314545 0.7070766687
v -6.880843163 7.771812439 3.962148428
vn -0.6735316515 0.1183071658 0.7296290398
v -6.889293194 7.805386066 3.950616598
vn -0.6515448093 0.1242757961 0.7483614683
v -6.892374039 7.771812439 3.950616598
vn -0.7056484818 0.06475546211 0.7055968642
v -6.868699074 7.835483551 3.962148428
vn -0.6149173379 0.2528892756 0.7469428778
v -6.862299919 7.872775078 3.950616598
vn -0.5482568741 0.3601237833 0.7548014522
v -6.87941885 7.839728355 3.950616598
vn -0.6564729214 0.2629529536 0.7070353627
v -6.838334084 7.902276993 3.950616598
vn -0.5000218749 0.5000336766 0.7070674896
v -6.85777998 7.771812439 3.985211611
vn -0.7007722855 0.1336646527 0.7007510066
v -6.84725523 7.826993942 3.985211611
vn -0.6533190012 0.27061674 0.7070649862
v -6.846249104 7.771812439 3.996742487
vn -0.700769484 0.133682847 0.7007502913
v -6.836532116 7.822749138 3.996742487
vn -0.6533025503 0.2706092298 0.7070830464
v -6.805718899 7.869660378 3.996742487
vn -0.5000112653 0.500003159 0.7070965767
v -6.808832169 7.926241875 3.950616598
vn -0.3601212502 0.5482568741 0.7548026443
v -6.775784969 7.943362236 3.950616598
vn -0.2629464567 0.6564239264 0.7070832849
v -6.70787096 7.933253288 3.973679781
vn -0.1336763501 0.7007769942 0.7007440329
v -6.70787096 7.944785118 3.962148428
vn -0.1183131635 0.6735287309 0.7296307683
v -6.741442204 7.95323658 3.950616598
vn -0.1242704093 0.6515104175 0.7483923435
v -6.70787096 7.956315994 3.950616598
vn -0.06473304331 0.7056494951 0.7055979371
v -6.758807182 7.900475502 3.996742487
vn -0.3153557777 0.6343134642 0.7058308721
v -6.70787096 7.910190582 3.996742487
vn -0.1336636543 0.7007482648 0.7007752061
v 0.4173979461 7.885969162 3.973679781
vn 0.4649202526 0.5338776708 0.706274569
v 0.4255529344 7.894123077 3.962148428
vn 0.4877247512 0.4574502409 0.7435481548
v 0.3669139445 7.932640076 3.962148428
vn 0.2746004164 0.6130673885 0.7407718897
v 0.409245044 7.877814293 3.985211611
vn 0.5159810185 0.4837715924 0.7069148421
v 0.3584230542 7.911196709 3.985211611
vn 0.2535136044 0.6601361036 0.707072258
v 0.453347981 7.831238747 3.973679781
vn 0.6533198953 0.2706120014 0.7070659399
v 0.4640710056 7.835483551 3.962148428
vn 0.61491853 0.2528906167 0.7469414473
v 0.4426270723 7.826993942 3.985211611
vn 0.6533152461 0.2706100047 0.7070710063
v 0.303243041 7.944785118 3.962148428
vn 0.118313171 0.6735281348 0.7296313047
v 0.3368149698 7.95323658 3.950616598
vn 0.1242707595 0.6515079737 0.7483943701
v 0.303243041 7.956315994 3.950616598
vn 0.06473182887 0.7056495547 0.7055979967
v 0.4042040706 7.926241875 3.950616598
vn 0.3601194024 0.5482550859 0.7548048496
v 0.3711569011 7.943362236 3.950616598
vn 0.2629492879 0.6564227939 0.7070832849
v 0.4337060452 7.902276993 3.950616598
vn 0.5000185966 0.500030458 0.7070720792
v 0.3626680672 7.921917915 3.973679781
vn 0.2427721322 0.6642515659 0.7069876194
v 0.303243041 7.921722889 3.985211611
vn 0.1336777359 0.7007604241 0.7007604241
v 0.303243041 7.933253288 3.973679781
vn 0.1336763501 0.7007769942 0.7007440329
v 0.303243041 7.910190582 3.996742487
vn 0.1336632371 0.7007502317 0.7007733583
v 0.354179889 7.900475502 3.996742487
vn 0.3153549433 0.6343179941 0.705827117
v 0.4576720595 7.872775078 3.950616598
vn 0.5482527018 0.3601210713 0.7548058033
v 0.4747908711 7.839728355 3.950616598
vn 0.6564673781 0.2629507184 0.7070413828
v 0.4762150049 7.771812439 3.962148428
vn 0.673535645 0.1183091477 0.7296250463
v 0.4846650362 7.805386066 3.950616598
vn 0.6515417099 0.1242762506 0.7483640909
v 0.4877459705 7.771812439 3.950616598
vn 0.7056484818 0.06475546211 0.7055968642
v 0.4010919333 7.869660378 3.996742487
vn 0.5000114441 0.4999965131 0.7071011662
v 0.4319040775 7.822749138 3.996742487
vn 0.6532948613 0.2705965936 0.7070949674
v 0.4531520009 7.771812439 3.985211611
vn 0.7007585764 0.1336613595 0.7007653713
v 0.4416199923 7.771812439 3.996742487
vn 0.7007268667 0.1336602122 0.7007972598
v 0.4173979461 -6.050916195 3.973682404
vn 0.4649258852 -0.5338836312 0.7062664032
v 0.4255529344 -6.05907011 3.962150097
vn 0.4877267182 -0.457447052 0.7435488105
v 0.453347981 -5.996186733 3.973682404
vn 0.6352960467 -0.3131047487 0.7059492469
v 0.409245044 -6.042762756 3.985212803
vn 0.5159699321 -0.4837655425 0.7069271207
v 0.3626680672 -6.086865902 3.973682404
vn 0.2427756041 -0.6642525792 0.7069854736
v 0.3669139445 -6.097588062 3.962150097
vn 0.2746073306 -0.6130641699 0.7407720089
v 0.3584230542 -6.076144695 3.985212803
vn 0.2534987926 -0.6601124406 0.7070996761
v 0.4762150049 -5.936761379 3.962150097
vn 0.6637334228 -0.1128945351 0.7394002676
v 0.4846650362 -5.970333099 3.950619221
vn 0.6515114903 -0.1242736652 0.7483907938
v 0.4877459705 -5.936761379 3.950619221
vn 0.7056194544 -0.06475604326 0.7056258917
v 0.4640710056 -6.000430107 3.962150097
vn 0.6281223893 -0.2361618429 0.7414107323
v 0.4747908711 -6.004675865 3.950619221
vn 0.6564320326 -0.2629349232 0.7070800662
v 0.4576720595 -6.037722588 3.950619221
vn 0.5482161641 -0.3600970507 0.7548438311
v 0.4337060452 -6.067224503 3.950619221
vn 0.4999851286 -0.4999969602 0.7071194053
v 0.4646829665 -5.936761379 3.973682404
vn 0.7007560134 -0.1336626261 0.7007676363
v 0.4531520009 -5.936761379 3.985212803
vn 0.7007445097 -0.1336596757 0.700779736
v 0.4426270723 -5.991940975 3.985212803
vn 0.6703584194 -0.2263847589 0.7066608667
v 0.4416199923 -5.936761379 3.996744156
vn 0.7007370591 -0.1336606592 0.7007870078
v 0.4319040775 -5.987697601 3.996744156
vn 0.6342941523 -0.3153371811 0.7058565021
v 0.4010919333 -6.034607887 3.996744156
vn 0.499998033 -0.4999939799 0.7071124315
v 0.4042040706 -6.091189384 3.950619221
vn 0.360103935 -0.5482199192 0.754837811
v 0.3711569011 -6.108310223 3.950619221
vn 0.2629420161 -0.6563943624 0.7071123719
v 0.3368149698 -6.118184566 3.950619221
vn 0.1242605671 -0.6514873505 0.7484140396
v 0.303243041 -6.109733105 3.962150097
vn 0.1183137074 -0.6735405326 0.729619801
v 0.303243041 -6.121263027 3.950619221
vn 0.06470624357 -0.7056604028 0.7055894732
v 0.354179889 -6.065422535 3.996744156
vn 0.3153439462 -0.6343031526 0.705845356
v 0.303243041 -6.075138092 3.996744156
vn 0.133662343 -0.7007601857 0.7007635832
v 0.303243041 -6.098201752 3.973682404
vn 0.1336687058 -0.7007458806 0.7007766366
v 0.4877459705 5.328961849 3.766114712
vn 1 0 0
v 0.4877459705 7.771812439 3.789176702
vn 1 0 0
v 0.4877459705 7.771812439 3.950616598
vn 1 0 0
v 0.4877459705 5.535242081 3.717418194
vn 1 0 0
v 0.4877459705 7.771812439 3.62773633
vn 1 0 0
v 0.4877459705 5.434937 3.753775358
vn 1 0 0
v 0.4877459705 -5.936761379 3.950619221
vn 1 0 0
v 0.4877459705 7.771812439 3.466296911
vn 1 0 0
v 0.4877459705 6.637119293 3.304856539
vn 1 0 0
v 0.4877459705 7.771812439 3.304856539
vn 1 0 0
v 0.4877459705 6.262972832 3.35355258
vn 1 0 0
v 0.4877459705 6.46925354 3.304856539
vn 1 0 0
v 0.4877459705 6.363277435 3.317195415
vn 1 0 0
v 0.4877459705 -5.936761379 3.789179087
vn 1 0 0
v 0.4877459705 -3.599885702 3.753776312
vn 1 0 0
v 0.4877459705 -3.493909121 3.766115189
vn 1 0 0
v 0.4877459705 -3.700190306 3.717418909
vn 1 0 0
v 0.4877459705 -5.936761379 3.627737999
vn 1 0 0
v 0.4877459705 -5.936761379 3.466298103
vn 1 0 0
v 0.4877459705 -4.63420105 3.304858208
vn 1 0 0
v 0.4877459705 -4.528226376 3.317197084
vn 1 0 0
v 0.4877459705 -4.80206728 3.304858208
vn 1 0 0
v 0.4877459705 -4.427920818 3.353553772
vn 1 0 0
v 0.4877459705 -5.936761379 3.304858208
vn 1 0 0
v -6.892374039 -3.493909121 3.766115189
vn -1 0 0
v -6.892374039 -5.936761379 3.789179087
vn -1 0 0
v -6.892374039 -5.936761379 3.950619221
vn -1 0 0
v -6.892374039 -3.700190306 3.717418909
vn -1 0 0
v -6.892374039 -5.936761379 3.627737999
vn -1 0 0
v -6.892374039 -3.599885702 3.753776312
vn -1 0 0
v -6.892374039 5.328961849 3.766114712
vn -1 0 0
v -6.892374039 -5.936761379 3.466298103
vn -1 0 0
v -6.892374039 -4.80206728 3.304858208
vn -1 0 0
v -6.892374039 -5.936761379 3.304858208
vn -1 0 0
v -6.892374039 -4.427920818 3.353553772
vn -1 0 0
v -6.892374039 -4.63420105 3.304858208
vn -1 0 0
v -6.892374039 -4.528226376 3.317197084
vn -1 0 0
v -6.892374039 7.771812439 3.789176702
vn -1 0 0
v -6.892374039 5.434937 3.753775358
vn -1 0 0
v -6.892374039 5.535242081 3.717418194
vn -1 0 0
v -6.892374039 7.771812439 3.950616598
vn -1 0 0
v -6.892374039 7.771812439 3.62773633
vn -1 0 0
v -6.892374039 7.771812439 3.466296911
vn -1 0 0
v -6.892374039 6.46925354 3.304856539
vn -1 0 0
v -6.892374039 6.363277435 3.317195415
vn -1 0 0
v -6.892374039 6.637119293 3.304856539
vn -1 0 0
v -6.892374039 6.262972832 3.35355258
vn -1 0 0
v -6.892374039 7.771812439 3.304856539
vn -1 0 0
v 0.303243041 -6.093588352 3.622006893
vn 0 1 -6.123234263e-17
v -6.70787096 -6.093588352 3.622006893
vn 0 1 -6.123234263e-17
v -6.70787096 -6.093588352 3.780581236
vn 0 1 -6.123234263e-17
v -6.70787096 -6.093588352 3.304858208
vn 0 1 -6.123234263e-17
v 0.303243041 -6.093588352 3.463432074
vn 0 1 -6.123234263e-17
v 0.303243041 -6.093588352 3.304858208
vn 0 1 -6.123234263e-17
v 0.303243041 -6.093588352 3.939154625
vn 0 1 -6.123234263e-17
v -6.70787096 -6.093588352 3.939154625
vn 0 1 -6.123234263e-17
v -6.81876421 -6.047655106 3.622006893
vn 0.7071050406 0.7071084976 -4.838790193e-17
v -6.853687763 -5.994488239 3.622006893
vn 0.923876524 0.3826907575 -2.343305068e-17
v -6.853687763 -5.994488239 3.780581236
vn 0.9315267801 0.3636355996 0.005200652871
v -6.76559782 -6.082577705 3.622006893
vn 0.3826817572 0.9238802195 -6.185418393e-17
v -6.81876421 -6.047655106 3.780581236
vn 0.6824072003 0.7309391499 0.006955249235
v -6.81876421 -6.047655106 3.463432074
vn 0.7309342623 0.6824124455 -0.00695523154
v -6.853687763 -5.994488239 3.463432074
vn 0.9247608781 0.3804699779 -0.007742399815
v -6.76559782 -6.082577705 3.463432074
vn 0.3636274636 0.9315299392 -0.005198686849
v -6.864698887 -5.936761379 3.939154625
vn 0.985648632 0.1686629802 0.007043279242
v -6.862082005 -5.965298176 3.939154625
vn 0.9821389318 0.1873411089 0.01750583388
v -6.853687763 -5.994488239 3.939154625
vn 0.9282867312 0.3718652129 -2.277017792e-17
v -6.864698887 -5.936761379 3.622006893
vn 0.9822894335 0.1873698086 -1.147309188e-17
v -6.839136124 -6.022578239 3.939154625
vn 0.8357675672 0.5489872098 0.01027693972
v -6.864698887 -5.936761379 3.463432074
vn 0.9847263098 0.1740368307 -0.005022935104
v -6.81876421 -6.047655106 3.939154625
vn 0.7071002126 0.7071133256 -4.329820337e-17
v -6.79368782 -6.068025589 3.939154625
vn 0.5489825606 0.8357706666 0.0102752801
v -6.76559782 -6.082577705 3.780581236
vn 0.3804570436 0.9247661829 0.007739498746
v -6.76559782 -6.082577705 3.939154625
vn 0.3718369603 0.9282980561 -5.684185984e-17
v -6.736406803 -6.090970039 3.939154625
vn 0.1873487979 0.9822545052 0.008748242632
v -6.70787096 -6.093588352 3.780581236
vn 0.1740315557 0.9847272635 0.005019697826
v -6.70787096 -6.093588352 3.939154625
vn 0.09136587381 0.9958173633 -6.097622766e-17
v -6.70787096 -6.093588352 3.622006893
vn 0.1873559803 0.9822920561 -6.01480412e-17
v -6.853687763 -5.994488239 3.304858208
vn 0.9282867312 0.3718652129 -2.277017792e-17
v -6.862082005 -5.965298176 3.304858208
vn 0.9822518229 0.1873626411 -0.008753906004
v -6.864698887 -5.936761379 3.304858208
vn 0.9958216548 0.0913194418 -5.591702891e-18
v -6.81876421 -6.047655106 3.304858208
vn 0.7071002126 0.7071133256 -4.329820337e-17
v -6.839136124 -6.022578239 3.304858208
vn 0.8357675672 0.5489872098 -0.01027691923
v -6.70787096 -6.093588352 3.304858208
vn 0.1686611474 0.9856489897 -0.007038719021
v -6.79368782 -6.068025589 3.304858208
vn 0.5489825606 0.8357706666 -0.01027525961
v -6.76559782 -6.082577705 3.304858208
vn 0.3718369603 0.9282980561 -5.684185984e-17
v -6.736406803 -6.090970039 3.304858208
vn 0.1873272955 0.9821417332 -0.01749444194
v -6.70787096 7.928641319 3.622004271
vn 0 -1 6.123234263e-17
v 0.303243041 7.928641319 3.622004271
vn 0 -1 6.123234263e-17
v 0.303243041 7.928641319 3.780579567
vn 0 -1 6.123234263e-17
v 0.303243041 7.928641319 3.304856539
vn 0 -1 6.123234263e-17
v -6.70787096 7.928641319 3.463430405
vn 0 -1 6.123234263e-17
v -6.70787096 7.928641319 3.304856539
vn 0 -1 6.123234263e-17
v -6.70787096 7.928641319 3.939153433
vn 0 -1 6.123234263e-17
v 0.303243041 7.928641319 3.939153433
vn 0 -1 6.123234263e-17
v -6.81876421 7.882707596 3.622004271
vn 0.7070963979 -0.7071171403 4.329847469e-17
v -6.853687763 7.829541206 3.622004271
vn 0.9238785505 -0.3826857805 1.814996391e-17
v -6.853687763 7.829541206 3.463430405
vn 0.9245175719 -0.3810991943 -0.005539441481
v -6.76559782 7.917628765 3.622004271
vn 0.3826817572 -0.9238802195 5.128863243e-17
v -6.81876421 7.882707596 3.463430405
vn 0.682395339 -0.7309502363 -0.006954989862
v -6.81876421 7.882707596 3.780579567
vn 0.7309264541 -0.6824207902 0.006954933051
v -6.853687763 7.829541206 3.780579567
vn 0.9247630835 -0.3804645836 0.007742685732
v -6.76559782 7.917628765 3.780579567
vn 0.3636307418 -0.9315286875 0.005198655184
v -6.864698887 7.771812439 3.463430405
vn 0.9856494665 -0.1686581522 -0.007043290418
v -6.864698887 7.771812439 3.304856539
vn 0.9958218932 -0.09131676704 5.591539522e-18
v -6.862082005 7.800350189 3.304856539
vn 0.9822528362 -0.1873573512 -0.008753920905
v -6.853687763 7.829541206 3.304856539
vn 0.9282895923 -0.3718581498 2.276974447e-17
v -6.864698887 7.771812439 3.622004271
vn 0.9822904468 -0.1873645335 1.147276928e-17
v -6.839136124 7.857631683 3.304856539
vn 0.8357675672 -0.5489872098 -0.01027764846
v -6.81876421 7.882707596 3.304856539
vn 0.7070838213 -0.7071297169 4.329920922e-17
v -6.79368782 7.903077126 3.304856539
vn 0.548959434 -0.8357858658 -0.01027362328
v -6.76559782 7.917628765 3.463430405
vn 0.3804606199 -0.9247647524 -0.007739467081
v -6.76559782 7.917628765 3.304856539
vn 0.3718546331 -0.9282909632 5.684142971e-17
v -6.736406803 7.92602253 3.304856539
vn 0.1873833984 -0.982247889 -0.008750087582
v -6.70787096 7.928641319 3.463430405
vn 0.1740634292 -0.9847216606 -0.005020776298
v -6.70787096 7.928641319 3.304856539
vn 0.0913804546 -0.995816052 6.097614825e-17
v -6.70787096 7.928641319 3.622004271
vn 0.1873905808 -0.9822854996 6.014763753e-17
v -6.862082005 7.800350189 3.939153433
vn 0.9822528362 -0.1873573512 0.008753914386
v -6.864698887 7.771812439 3.780579567
vn 0.9847272038 -0.1740319133 0.005022931378
v -6.853687763 7.829541206 3.939153433
vn 0.9282895923 -0.3718581498 3.002485629e-17
v -6.839136124 7.857631683 3.939153433
vn 0.8357675672 -0.5489872098 0.01027764194
v -6.81876421 7.882707596 3.939153433
vn 0.7070838213 -0.7071297169 4.329920922e-17
v -6.70787096 7.928641319 3.939153433
vn 0.1686919928 -0.9856436849 0.007040214725
v -6.76559782 7.917628765 3.939153433
vn 0.3718546331 -0.9282909632 5.684142971e-17
v -6.79368782 7.903077126 3.939153433
vn 0.548959434 -0.8357858658 0.01027361583
v -6.736406803 7.92602253 3.939153433
vn 0.1873618811 -0.9821351171 0.01749815419
v 0.4141359925 7.882707596 3.622004271
vn -0.7070968151 -0.7071167231 4.329816698e-17
v 0.3609699905 7.917628765 3.622004271
vn -0.382683605 -0.9238794446 6.42694322e-17
v 0.3609699905 7.917628765 3.463430405
vn -0.3636320829 -0.931528151 -0.005198830273
v 0.4490599632 7.829541206 3.622004271
vn -0.9238772988 -0.3826887906 2.343292991e-17
v 0.4141359925 7.882707596 3.463430405
vn -0.7309260368 -0.6824212074 -0.006955038756
v 0.4141359925 7.882707596 3.780579567
vn -0.6823965907 -0.7309490442 0.006955048069
v 0.3609699905 7.917628765 3.780579567
vn -0.38046211 -0.9247640967 0.007739659399
v 0.4490599632 7.829541206 3.780579567
vn -0.9315277338 -0.3636330664 0.005200502463
v 0.303243041 7.928641319 3.304856539
vn -0.1686919332 -0.9856436849 -0.007040242199
v 0.3317790329 7.92602253 3.304856539
vn -0.1873618811 -0.9821351171 -0.01749816537
v 0.3609699905 7.917628765 3.304856539
vn -0.3718546331 -0.9282909632 5.684142971e-17
v 0.303243041 7.928641319 3.622004271
vn -0.1873905808 -0.9822854996 6.384770244e-17
v 0.3890600502 7.903077126 3.304856539
vn -0.548963964 -0.8357828856 -0.01027416438
v 0.303243041 7.928641319 3.780579567
vn -0.1740634888 -0.9847216606 0.005020750221
v 0.4141359925 7.882707596 3.304856539
vn -0.7070870996 -0.7071264386 3.617992377e-17
v 0.4345079064 7.857631683 3.304856539
vn -0.8357630372 -0.5489941239 -0.01027736254
v 0.4490599632 7.829541206 3.463430405
vn -0.9247621298 -0.3804669678 -0.007742230315
v 0.4490599632 7.829541206 3.304856539
vn -0.9282895923 -0.3718581498 2.276974447e-17
v 0.4574539363 7.800350189 3.304856539
vn -0.9822534919 -0.1873538941 -0.008752951398
v 0.4600710571 7.771812439 3.463430405
vn -0.9847275615 -0.1740298569 -0.005022400059
v 0.4600710571 7.771812439 3.622004271
vn -0.9822911024 -0.1873610765 1.147255752e-17
v 0.3609699905 7.917628765 3.939153433
vn -0.3718546331 -0.9282909632 5.684142971e-17
v 0.3317790329 7.92602253 3.939153433
vn -0.1873833984 -0.982247889 0.008750081062
v 0.303243041 7.928641319 3.939153433
vn -0.0913804546 -0.995816052 6.097614825e-17
v 0.4141359925 7.882707596 3.939153433
vn -0.7070870996 -0.7071264386 4.329900739e-17
v 0.3890600502 7.903077126 3.939153433
vn -0.548963964 -0.8357828856 0.01027415693
v 0.4600710571 7.771812439 3.939153433
vn -0.9856497049 -0.1686568111 0.007042480167
v 0.4490599632 7.829541206 3.939153433
vn -0.9282895923 -0.3718581498 2.276974447e-17
v 0.4345079064 7.857631683 3.939153433
vn -0.8357630372 -0.5489941239 0.01027735509
v 0.4574539363 7.800350189 3.939153433
vn -0.9821406007 -0.1873323768 0.01750387996
v 0.4141359925 -6.047655106 3.622006893
vn -0.7071051598 0.707108438 -4.329779309e-17
v 0.4490599632 -5.994488239 3.622006893
vn -0.9238752723 0.3826937377 -1.286750084e-17
v 0.4490599632 -5.994488239 3.463432074
vn -0.9315256476 0.3636384308 -0.005200315733
v 0.3609699905 -6.082577705 3.622006893
vn -0.382683605 0.9238794446 -5.415587205e-17
v 0.4141359925 -6.047655106 3.463432074
vn -0.6824086308 0.7309378386 -0.006955325603
v 0.4141359925 -6.047655106 3.780581236
vn -0.7309339643 0.6824127436 0.006955319084
v 0.4490599632 -5.994488239 3.780581236
vn -0.9247598648 0.380472362 0.007741929963
v 0.3609699905 -6.082577705 3.780581236
vn -0.3636288941 0.9315294027 0.005198847037
v 0.4600710571 -5.936761379 3.304858208
vn -0.9856488705 0.1686615795 -0.007042482495
v 0.4574539363 -5.965298176 3.304858208
vn -0.9821395874 0.1873376518 -0.01750386134
v 0.4490599632 -5.994488239 3.304858208
vn -0.9282867312 0.3718652129 -2.277017792e-17
v 0.4600710571 -5.936761379 3.622006893
vn -0.9822900891 0.1873663515 -1.147288012e-17
v 0.4345079064 -6.022578239 3.304858208
vn -0.8357630372 0.5489941239 -0.01027663238
v 0.4600710571 -5.936761379 3.780581236
vn -0.9847266674 0.1740348339 0.005022387486
v 0.4141359925 -6.047655106 3.304858208
vn -0.7071034908 0.7071100473 -4.329800485e-17
v 0.3890600502 -6.068025589 3.304858208
vn -0.5489871502 0.8357676268 -0.01027580071
v 0.3609699905 -6.082577705 3.463432074
vn -0.3804585338 0.9247655869 -0.007739705499
v 0.3609699905 -6.082577705 3.304858208
vn -0.3718369603 0.9282980561 -5.684185984e-17
v 0.3317790329 -6.090970039 3.304858208
vn -0.1873487979 0.9822545052 -0.008748224936
v 0.303243041 -6.093588352 3.463432074
vn -0.1740315557 0.9847272635 -0.005019687582
v 0.303243041 -6.093588352 3.622006893
vn -0.1873559803 0.9822920561 -6.01480412e-17
v 0.4490599632 -5.994488239 3.939154625
vn -0.9282867312 0.3718652129 -2.277017792e-17
v 0.4574539363 -5.965298176 3.939154625
vn -0.9822524786 0.187359184 0.008752954192
v 0.4600710571 -5.936761379 3.939154625
vn -0.9958209991 0.09132673591 -5.592149568e-18
v 0.4141359925 -6.047655106 3.939154625
vn -0.7071034908 0.7071100473 -4.329800485e-17
v 0.4345079064 -6.022578239 3.939154625
vn -0.8357630372 0.5489941239 0.01027665287
v 0.303243041 -6.093588352 3.939154625
vn -0.1686611474 0.9856489897 0.007038733456
v 0.3609699905 -6.082577705 3.939154625
vn -0.3718369603 0.9282980561 -5.684185984e-17
v 0.3890600502 -6.068025589 3.939154625
vn -0.5489871502 0.8357676268 0.0102758212
v 0.3317790329 -6.090970039 3.939154625
vn -0.1873272955 0.9821417332 0.01749447733
v 0.4600710571 5.434937 3.753775358
vn -1 0 0
v 0.4600710571 7.771812439 3.939153433
vn -1 0 0
v 0.4600710571 7.771812439 3.622004271
vn -1 0 0
v 0.4600710571 5.535242081 3.717418194
vn -1 0 0
v 0.4600710571 5.328961849 3.766114712
vn -1 0 0
v 0.4600710571 -3.493909121 3.766115189
vn -1 0 0
v 0.4600710571 7.771812439 3.463430405
vn -1 0 0
v 0.4600710571 6.637119293 3.304856539
vn -1 0 0
v 0.4600710571 6.262972832 3.35355258
vn -1 0 0
v 0.4600710571 7.771812439 3.304856539
vn -1 0 0
v 0.4600710571 6.46925354 3.304856539
vn -1 0 0
v 0.4600710571 6.363277435 3.317195415
vn -1 0 0
v 0.4600710571 -5.936761379 3.780581236
vn -1 0 0
v 0.4600710571 -3.599885702 3.753776312
vn -1 0 0
v 0.4600710571 -3.700190306 3.717418909
vn -1 0 0
v 0.4600710571 -5.936761379 3.939154625
vn -1 0 0
v 0.4600710571 -5.936761379 3.622006893
vn -1 0 0
v 0.4600710571 -4.63420105 3.304858208
vn -1 0 0
v 0.4600710571 -4.80206728 3.304858208
vn -1 0 0
v 0.4600710571 -4.528226376 3.317197084
vn -1 0 0
v 0.4600710571 -4.427920818 3.353553772
vn -1 0 0
v 0.4600710571 -5.936761379 3.304858208
vn -1 0 0
v -6.864698887 -3.599885702 3.753776312
vn 1 0 0
v -6.864698887 -5.936761379 3.939154625
vn 1 0 0
v -6.864698887 -5.936761379 3.622006893
vn 1 0 0
v -6.864698887 -3.700190306 3.717418909
vn 1 0 0
v -6.864698887 -3.493909121 3.766115189
vn 1 0 0
v -6.864698887 5.328961849 3.766114712
vn 1 0 0
v -6.864698887 -5.936761379 3.463432074
vn 1 0 0
v -6.864698887 -4.80206728 3.304858208
vn 1 0 0
v -6.864698887 -4.427920818 3.353553772
vn 1 0 0
v -6.864698887 -5.936761379 3.304858208
vn 1 0 0
v -6.864698887 -4.63420105 3.304858208
vn 1 0 0
v -6.864698887 -4.528226376 3.317197084
vn 1 0 0
v -6.864698887 7.771812439 3.780579567
vn 1 0 0
v -6.864698887 5.434937 3.753775358
vn 1 0 0
v -6.864698887 5.535242081 3.717418194
vn 1 0 0
v -6.864698887 7.771812439 3.939153433
vn 1 0 0
v -6.864698887 7.771812439 3.622004271
vn 1 0 0
v -6.864698887 7.771812439 3.463430405
vn 1 0 0
v -6.864698887 6.46925354 3.304856539
vn 1 0 0
v -6.864698887 6.637119293 3.304856539
vn 1 0 0
v -6.864698887 6.363277435 3.317195415
vn 1 0 0
v -6.864698887 6.262972832 3.35355258
vn 1 0 0
v -6.864698887 7.771812439 3.304856539
vn 1 0 0
v -6.70787096 -6.11434412 3.304858208
vn 0 -6.123234263e-17 -1
v 0.303243041 -6.11434412 3.304858208
vn 0 -6.123234263e-17 -1
v 0.303243041 -6.121263027 3.304858208
vn 0 -6.123234263e-17 -1
v -6.70787096 -6.100507259 3.304858208
vn 0 -6.123234263e-17 -1
v 0.303243041 -6.100507259 3.304858208
vn 0 -6.123234263e-17 -1
v 0.303243041 -6.107426167 3.304858208
vn 0 -6.123234263e-17 -1
v -6.70787096 -6.093588352 3.304858208
vn 0 -6.123234263e-17 -1
v 0.303243041 -6.093588352 3.304858208
vn 0 -6.123234263e-17 -1
v -6.70787096 -6.107426167 3.304858208
vn 0 -6.123234263e-17 -1
v -6.828549862 -6.057439804 3.304858208
vn 0 -6.123234263e-17 -1
v -6.833442211 -6.062332153 3.304858208
vn 0 -6.123234263e-17 -1
v -6.872986794 -6.002129555 3.304858208
vn 0 -6.123234263e-17 -1
v -6.823656082 -6.052547455 3.304858208
vn 0 -6.123234263e-17 -1
v -6.86011982 -5.997035503 3.304858208
vn 0 -6.123234263e-17 -1
v -6.770692825 -6.095444679 3.304858208
vn 0 -6.123234263e-17 -1
v -6.773240089 -6.101877689 3.304858208
vn 0 -6.123234263e-17 -1
v -6.768146038 -6.089011192 3.304858208
vn 0 -6.123234263e-17 -1
v -6.889293194 -5.970333099 3.304858208
vn 0 -6.123234263e-17 -1
v -6.892374039 -5.936761379 3.304858208
vn 0 -6.123234263e-17 -1
v -6.87941885 -6.004675865 3.304858208
vn 0 -6.123234263e-17 -1
v -6.838334084 -6.067224503 3.304858208
vn 0 -6.123234263e-17 -1
v -6.862299919 -6.037722588 3.304858208
vn 0 -6.123234263e-17 -1
v -6.808832169 -6.091189384 3.304858208
vn 0 -6.123234263e-17 -1
v -6.866553783 -5.999582291 3.304858208
vn 0 -6.123234263e-17 -1
v -6.864698887 -5.936761379 3.304858208
vn 0 -6.123234263e-17 -1
v -6.862082005 -5.965298176 3.304858208
vn 0 -6.123234263e-17 -1
v -6.853687763 -5.994488239 3.304858208
vn 0 -6.123234263e-17 -1
v -6.839136124 -6.022578239 3.304858208
vn 0 -6.123234263e-17 -1
v -6.81876421 -6.047655106 3.304858208
vn 0 -6.123234263e-17 -1
v -6.775784969 -6.108310223 3.304858208
vn 0 -6.123234263e-17 -1
v -6.741442204 -6.118184566 3.304858208
vn 0 -6.123234263e-17 -1
v -6.70787096 -6.11434412 3.304858208
vn 0 -6.123234263e-17 -1
v -6.70787096 -6.121263027 3.304858208
vn 0 -6.123234263e-17 -1
v -6.79368782 -6.068025589 3.304858208
vn 0 -6.123234263e-17 -1
v -6.76559782 -6.082577705 3.304858208
vn 0 -6.123234263e-17 -1
v -6.736406803 -6.090970039 3.304858208
vn 0 -6.123234263e-17 -1
v -6.70787096 -6.100507259 3.304858208
vn 0 -6.123234263e-17 -1
v -6.70787096 -6.093588352 3.304858208
vn 0 -6.123234263e-17 -1
v -6.70787096 -6.107426167 3.304858208
vn 0 -6.123234263e-17 -1
v -6.878537178 6.46925354 3.304856539
vn 0 -0.04501381889 -0.9989863634
v -6.885455132 6.46925354 3.304856539
vn 3.005864827e-17 -0.06483499706 -0.9978960156
v -6.885455132 6.637119293 3.304856539
vn 0 -6.123234263e-17 -1
v -6.871617794 6.46925354 3.304856539
vn 2.588904587e-17 -0.0279232394 -0.9996100664
v -6.878537178 6.637119293 3.304856539
vn 0 -6.123234263e-17 -1
v -6.878537178 6.363277435 3.317195415
vn -1.439350514e-16 -0.2297545671 -0.973248601
v -6.885455132 6.363277435 3.317195415
vn -1.438315413e-16 -0.267324239 -0.9636066556
v -6.871617794 6.363277435 3.317195415
vn 3.595556923e-17 -0.1918324828 -0.9814276695
v -6.878537178 6.262972832 3.35355258
vn 3.817063768e-15 -0.4351744354 -0.9003461599
v -6.885455132 6.262972832 3.35355258
vn -1.349814531e-23 -0.4408353567 -0.897587955
v -6.871617794 6.262972832 3.35355258
vn 1.140132226e-23 -0.4255689681 -0.904926002
v -6.878537178 5.535242081 3.717418194
vn 1.858861872e-15 -0.4351729453 -0.9003468752
v -6.885455132 5.535242081 3.717418194
vn 2.275833262e-23 -0.4255686402 -0.9049261212
v -6.871617794 5.535242081 3.717418194
vn 1.311066641e-26 -0.4408352673 -0.8975880146
v -6.878537178 5.434937 3.753775358
vn -2.518893344e-16 -0.2297513783 -0.9732493758
v -6.885455132 5.434937 3.753775358
vn 1.834523014e-23 -0.1918375641 -0.9814267159
v -6.871617794 5.434937 3.753775358
vn -3.595504976e-17 -0.2673264146 -0.9636060596
v -6.878537178 5.328961849 3.766114712
vn -8.541555927e-19 -0.001381927403 -0.9999990463
v -6.885455132 5.328961849 3.766114712
vn 2.097168213e-21 -0.0006951547111 -0.9999997616
v -6.871617794 5.328961849 3.766114712
vn -1.266163296e-18 -0.002731545828 -0.9999962449
v -6.878537178 -3.493909121 3.766115189
vn -8.542320035e-19 0.001381940092 -0.9999990463
v -6.885455132 -3.493909121 3.766115189
vn -1.262194897e-18 0.002731334884 -0.9999962449
v -6.871617794 -3.493909121 3.766115189
vn 2.096976362e-21 0.0006950299721 -0.9999997616
v -6.878537178 -3.599885702 3.753776312
vn 1.07949889e-16 0.2297560126 -0.9732482433
v -6.885455132 -3.599885702 3.753776312
vn 1.438315546e-16 0.267326057 -0.9636061192
v -6.871617794 -3.599885702 3.753776312
vn 0 0.1918335855 -0.9814274907
v -6.878537178 -3.700190306 3.717418909
vn 3.317058115e-17 0.4351743162 -0.9003462195
v -6.885455132 -3.700190306 3.717418909
vn 0 0.4408351183 -0.8975880742
v -6.871617794 -3.700190306 3.717418909
vn 0 0.4255691171 -0.9049259424
v -6.878537178 -4.427920818 3.353553772
vn 0 0.4351718426 -0.9003474116
v -6.885455132 -4.427920818 3.353553772
vn 0 0.4255670011 -0.9049268961
v -6.871617794 -4.427920818 3.353553772
vn 0 0.4408344924 -0.8975884318
v -6.878537178 -4.528226376 3.317197084
vn 0 0.2297496796 -0.9732497334
v -6.885455132 -4.528226376 3.317197084
vn 0 0.2070287764 -0.9783348441
v -6.871617794 -4.528226376 3.317197084
vn 0 0.2459034026 -0.9692943096
v -6.878537178 -4.80206728 3.304858208
vn 0 -6.123234263e-17 -1
v -6.885455132 -4.80206728 3.304858208
vn 0 -6.123234263e-17 -1
v -6.885455132 -4.63420105 3.304858208
vn 0 0.0373865068 -0.9993008971
v -6.871617794 -4.80206728 3.304858208
vn 0 -6.123234263e-17 -1
v -6.878537178 -4.63420105 3.304858208
vn 0 0.0450123474 -0.998986423
v -6.892374039 6.637119293 3.304856539
vn 0 -6.123234263e-17 -1
v -6.892374039 7.771812439 3.304856539
vn 0 -6.123234263e-17 -1
v -6.892374039 6.363277435 3.317195415
vn 7.191332883e-17 -0.1918324828 -0.9814276695
v -6.892374039 6.46925354 3.304856539
vn 5.177967e-17 -0.0279232394 -0.9996100664
v -6.892374039 6.262972832 3.35355258
vn -5.177505831e-15 -0.4255689681 -0.904926002
v -6.892374039 5.434937 3.753775358
vn 3.595602186e-16 -0.2673264146 -0.9636060596
v -6.892374039 5.535242081 3.717418194
vn -3.011610821e-15 -0.4408352673 -0.8975880146
v -6.892374039 -3.493909121 3.766115189
vn 4.194080759e-21 0.0006950299721 -0.9999997616
v -6.892374039 5.328961849 3.766114712
vn 2.532402278e-18 -0.002731545828 -0.9999962449
v -6.864698887 7.771812439 3.304856539
vn 0 -6.123234263e-17 -1
v -6.871617794 6.637119293 3.304856539
vn 0 -6.123234263e-17 -1
v -6.864698887 6.46925354 3.304856539
vn 6.01136371e-17 -0.06483499706 -0.9978960156
v -6.864698887 6.637119293 3.304856539
vn 0 -6.123234263e-17 -1
v -6.864698887 6.363277435 3.317195415
vn 0 -0.267324239 -0.9636066556
v -6.864698887 6.262972832 3.35355258
vn -3.064412949e-15 -0.4408353567 -0.897587955
v -6.864698887 5.434937 3.753775358
vn 7.191215093e-17 -0.1918375641 -0.9814267159
v -6.864698887 5.535242081 3.717418194
vn 8.92110254e-17 -0.4255686402 -0.9049261212
v -6.864698887 5.328961849 3.766114712
vn 4.194081163e-21 -0.0006951547111 -0.9999997616
v -6.864698887 -3.493909121 3.766115189
vn 8.240545322e-21 0.002731334884 -0.9999962449
v -6.892374039 -3.700190306 3.717418909
vn 0 0.4255691171 -0.9049259424
v -6.892374039 -3.599885702 3.753776312
vn 0 0.1918335855 -0.9814274907
v -6.892374039 -4.528226376 3.317197084
vn 0 0.2673211098 -0.9636074901
v -6.892374039 -4.427920818 3.353553772
vn 0 0.4408344924 -0.8975884318
v -6.892374039 -4.63420105 3.304858208
vn 0 0.06483549625 -0.997895956
v -6.892374039 -4.80206728 3.304858208
vn 0 -6.123234263e-17 -1
v -6.892374039 -5.936761379 3.304858208
vn 0 -6.123234263e-17 -1
v -6.864698887 -3.700190306 3.717418909
vn 0 0.4408351183 -0.8975880742
v -6.864698887 -3.599885702 3.753776312
vn 0 0.267326057 -0.9636061192
v -6.864698887 -4.427920818 3.353553772
vn 0 0.4255670011 -0.9049268961
v -6.864698887 -4.528226376 3.317197084
vn 0 0.191832453 -0.9814276695
v -6.871617794 -4.63420105 3.304858208
vn 0 0.05653853342 -0.9984003901
v -6.864698887 -5.936761379 3.304858208
vn 0 -6.123234263e-17 -1
v -6.864698887 -4.63420105 3.304858208
vn 0 0.02792329155 -0.9996100664
v -6.864698887 -4.80206728 3.304858208
vn 0 -6.123234263e-17 -1
v -6.828549862 7.892492294 3.304856539
vn 0 -6.123234263e-17 -1
v -6.833442211 7.897384644 3.304856539
vn 0 -6.123234263e-17 -1
v -6.770692825 7.930496216 3.304856539
vn 0 -6.123234263e-17 -1
v -6.823656082 7.887599945 3.304856539
vn 0 -6.123234263e-17 -1
v -6.866553783 7.834634781 3.304856539
vn 0 -6.123234263e-17 -1
v -6.872986794 7.837181091 3.304856539
vn 0 -6.123234263e-17 -1
v -6.86011982 7.832087517 3.304856539
vn 0 -6.123234263e-17 -1
v -6.741442204 7.95323658 3.304856539
vn 0 -6.123234263e-17 -1
v -6.70787096 7.956315994 3.304856539
vn 0 -6.123234263e-17 -1
v -6.70787096 7.949397087 3.304856539
vn 0 -6.123234263e-17 -1
v -6.70787096 7.942479134 3.304856539
vn 0 -6.123234263e-17 -1
v -6.773240089 7.936928749 3.304856539
vn 0 -6.123234263e-17 -1
v -6.775784969 7.943362236 3.304856539
vn 0 -6.123234263e-17 -1
v -6.808832169 7.926241875 3.304856539
vn 0 -6.123234263e-17 -1
v -6.70787096 7.928641319 3.304856539
vn 0 -6.123234263e-17 -1
v -6.736406803 7.92602253 3.304856539
vn 0 -6.123234263e-17 -1
v -6.70787096 7.93555975 3.304856539
vn 0 -6.123234263e-17 -1
v -6.768146038 7.924062729 3.304856539
vn 0 -6.123234263e-17 -1
v -6.76559782 7.917628765 3.304856539
vn 0 -6.123234263e-17 -1
v -6.79368782 7.903077126 3.304856539
vn 0 -6.123234263e-17 -1
v -6.862299919 7.872775078 3.304856539
vn 0 -6.123234263e-17 -1
v -6.838334084 7.902276993 3.304856539
vn 0 -6.123234263e-17 -1
v -6.889293194 7.805386066 3.304856539
vn 0 -6.123234263e-17 -1
v -6.87941885 7.839728355 3.304856539
vn 0 -6.123234263e-17 -1
v -6.892374039 7.771812439 3.304856539
vn 0 -6.123234263e-17 -1
v -6.839136124 7.857631683 3.304856539
vn 0 -6.123234263e-17 -1
v -6.81876421 7.882707596 3.304856539
vn 0 -6.123234263e-17 -1
v -6.862082005 7.800350189 3.304856539
vn 0 -6.123234263e-17 -1
v -6.853687763 7.829541206 3.304856539
vn 0 -6.123234263e-17 -1
v -6.864698887 7.771812439 3.304856539
vn 0 -6.123234263e-17 -1
v 0.303243041 7.949397087 3.304856539
vn 0 -6.123234263e-17 -1
v -6.70787096 7.949397087 3.304856539
vn 0 -6.123234263e-17 -1
v -6.70787096 7.956315994 3.304856539
vn 0 -6.123234263e-17 -1
v 0.303243041 7.93555975 3.304856539
vn 0 -6.123234263e-17 -1
v -6.70787096 7.93555975 3.304856539
vn 0 -6.123234263e-17 -1
v -6.70787096 7.942479134 3.304856539
vn 0 -6.123234263e-17 -1
v 0.303243041 7.928641319 3.304856539
vn 0 -6.123234263e-17 -1
v -6.70787096 7.928641319 3.304856539
vn 0 -6.123234263e-17 -1
v 0.303243041 7.942479134 3.304856539
vn 0 -6.123234263e-17 -1
v 0.4239220619 -6.057439804 3.304858208
vn 0 -6.123234263e-17 -1
v 0.4288140535 -6.062332153 3.304858208
vn 0 -6.123234263e-17 -1
v 0.3660649061 -6.095444679 3.304858208
vn 0 -6.123234263e-17 -1
v 0.4190279841 -6.052547455 3.304858208
vn 0 -6.123234263e-17 -1
v 0.4619269967 -5.999582291 3.304858208
vn 0 -6.123234263e-17 -1
v 0.4683590233 -6.002129555 3.304858208
vn 0 -6.123234263e-17 -1
v 0.4554919899 -5.997035503 3.304858208
vn 0 -6.123234263e-17 -1
v 0.3368149698 -6.118184566 3.304858208
vn 0 -6.123234263e-17 -1
v 0.303243041 -6.121263027 3.304858208
vn 0 -6.123234263e-17 -1
v 0.303243041 -6.11434412 3.304858208
vn 0 -6.123234263e-17 -1
v 0.303243041 -6.107426167 3.304858208
vn 0 -6.123234263e-17 -1
v 0.368612051 -6.101877689 3.304858208
vn 0 -6.123234263e-17 -1
v 0.3711569011 -6.108310223 3.304858208
vn 0 -6.123234263e-17 -1
v 0.4042040706 -6.091189384 3.304858208
vn 0 -6.123234263e-17 -1
v 0.303243041 -6.093588352 3.304858208
vn 0 -6.123234263e-17 -1
v 0.3317790329 -6.090970039 3.304858208
vn 0 -6.123234263e-17 -1
v 0.303243041 -6.100507259 3.304858208
vn 0 -6.123234263e-17 -1
v 0.3635179698 -6.089011192 3.304858208
vn 0 -6.123234263e-17 -1
v 0.3890600502 -6.068025589 3.304858208
vn 0 -6.123234263e-17 -1
v 0.3609699905 -6.082577705 3.304858208
vn 0 -6.123234263e-17 -1
v 0.4576720595 -6.037722588 3.304858208
vn 0 -6.123234263e-17 -1
v 0.4337060452 -6.067224503 3.304858208
vn 0 -6.123234263e-17 -1
v 0.4846650362 -5.970333099 3.304858208
vn 0 -6.123234263e-17 -1
v 0.4747908711 -6.004675865 3.304858208
vn 0 -6.123234263e-17 -1
v 0.4877459705 -5.936761379 3.304858208
vn 0 -6.123234263e-17 -1
v 0.4345079064 -6.022578239 3.304858208
vn 0 -6.123234263e-17 -1
v 0.4141359925 -6.047655106 3.304858208
vn 0 -6.123234263e-17 -1
v 0.4490599632 -5.994488239 3.304858208
vn 0 -6.123234263e-17 -1
v 0.4600710571 -5.936761379 3.304858208
vn 0 -6.123234263e-17 -1
v 0.4574539363 -5.965298176 3.304858208
vn 0 -6.123234263e-17 -1
v -6.70787096 -6.121263027 3.304858208
vn 0 -1 6.123234263e-17
v -6.70787096 -6.121263027 3.950619221
vn -0.09131463617 -0.995822072 6.097651883e-17
v 0.303243041 7.956315994 3.304856539
vn 0 1 -6.123234263e-17
v -6.70787096 7.956315994 3.304856539
vn -0.09135182947 0.9958186746 -6.097630707e-17
v -6.892374039 7.771812439 3.950616598
vn -0.9958158135 0.09138333052 -5.595615041e-18
v 0.303243041 -6.121263027 3.304858208
vn 0.09131292999 -0.9958222508 6.097652544e-17
v -6.892374039 -5.936761379 3.950619221
vn -0.7071035504 1.358752684e-07 0.7071099877
v -6.70787096 7.956315994 3.950616598
vn 0 0.7071326375 0.7070809603
v 0.4877459705 7.771812439 3.950616598
vn 0.7071326375 1.358696835e-07 0.7070809603
v 0.303243041 -6.121263027 3.950619221
vn 2.16841029e-19 -0.7071422935 0.7070712447
v -6.869310856 7.771812439 3.973679781
vn -0.7007617354 0.1336635053 0.7007617354
v -6.70787096 7.921722889 3.985211611
vn -0.1336777359 0.7007604241 0.7007604241
v 0.4646829665 7.771812439 3.973679781
vn 0.7007648945 0.1336641014 0.7007585168
v 0.303243041 -6.086669445 3.985212803
vn 0.1336568743 -0.7007351518 0.7007895708
v -6.864698887 7.771812439 3.939153433
vn 0.9958218932 -0.09131676704 5.591539522e-18
v 0.4600710571 7.771812439 3.304856539
vn -0.9958212376 -0.0913240537 5.591985373e-18
v 0.303243041 -6.093588352 3.304858208
vn -0.09136587381 0.9958173633 -6.097622766e-17
v -6.70787096 -6.121263027 3.304858208
vn 0 -6.123234263e-17 -1
v 0.303243041 7.956315994 3.304856539
vn 0 -6.123234263e-17 -1
# mm_gid 0
g mmGroup0
f 1//1 2//2 3//3 
f 4//4 5//5 6//6 
f 7//7 4//4 8//8 
f 5//5 1//1 9//9 
f 10//10 11//11 12//12 
f 13//13 14//14 11//11 
f 15//15 10//10 16//16 
f 17//17 13//13 10//10 
f 18//18 19//19 20//20 
f 12//12 21//21 22//22 
f 22//22 19//19 12//12 
f 23//23 16//16 12//12 
f 12//12 11//11 21//21 
f 16//16 23//23 24//24 
f 19//19 18//18 12//12 
f 11//11 25//25 26//26 
f 14//14 27//27 28//28 
f 28//28 25//25 14//14 
f 14//14 29//29 27//27 
f 29//29 14//14 13//13 
f 11//11 14//14 25//25 
f 30//30 24//24 31//31 
f 15//15 30//30 32//32 
f 33//33 31//31 24//24 
f 30//30 34//34 32//32 
f 35//35 15//15 36//36 
f 17//17 37//37 38//38 
f 37//37 17//17 39//39 
f 17//17 35//35 40//40 
f 37//37 39//39 41//41 
f 17//17 40//40 39//39 
f 17//17 15//15 35//35 
f 42//42 43//43 44//44 
f 45//45 46//46 47//47 
f 48//48 45//45 49//49 
f 46//46 42//42 50//50 
f 51//51 52//52 53//53 
f 54//54 55//55 52//52 
f 56//56 51//51 57//57 
f 58//58 54//54 51//51 
f 59//59 60//60 61//61 
f 53//53 62//62 63//63 
f 63//63 60//60 53//53 
f 64//64 57//57 53//53 
f 52//52 62//62 53//53 
f 57//57 64//64 65//65 
f 60//60 59//59 53//53 
f 52//52 66//66 67//67 
f 55//55 68//68 69//69 
f 69//69 66//66 55//55 
f 55//55 70//70 68//68 
f 70//70 55//55 54//54 
f 52//52 55//55 66//66 
f 52//52 67//67 62//62 
f 71//71 65//65 72//72 
f 56//56 71//71 73//73 
f 71//71 72//72 74//74 
f 56//56 73//73 75//75 
f 76//76 56//56 75//75 
f 58//58 77//77 78//78 
f 77//77 58//58 79//79 
f 58//58 76//76 80//80 
f 77//77 79//79 81//81 
f 58//58 56//56 76//76 
f 82//82 83//83 84//84 
f 85//85 86//86 83//83 
f 87//87 82//82 88//88 
f 89//89 85//85 82//82 
f 90//90 91//91 92//92 
f 84//84 93//93 94//94 
f 94//94 91//91 84//84 
f 95//95 88//88 84//84 
f 83//83 93//93 84//84 
f 88//88 95//95 96//96 
f 91//91 90//90 84//84 
f 83//83 97//97 98//98 
f 86//86 99//99 100//100 
f 100//100 97//97 86//86 
f 86//86 101//101 99//99 
f 101//101 102//102 99//99 
f 101//101 86//86 85//85 
f 83//83 86//86 97//97 
f 83//83 98//98 93//93 
f 103//103 104//104 96//96 
f 87//87 104//104 105//105 
f 106//106 103//103 96//96 
f 104//104 103//103 107//107 
f 87//87 105//105 108//108 
f 109//109 87//87 108//108 
f 89//89 110//110 111//111 
f 110//110 89//89 112//112 
f 89//89 109//109 113//113 
f 110//110 112//112 114//114 
f 89//89 87//87 109//109 
f 115//115 116//116 117//117 
f 118//118 119//119 116//116 
f 120//120 115//115 121//121 
f 122//122 118//118 115//115 
f 123//123 124//124 125//125 
f 117//117 126//126 127//127 
f 127//127 124//124 117//117 
f 128//128 121//121 117//117 
f 117//117 116//116 126//126 
f 121//121 128//128 129//129 
f 124//124 123//123 117//117 
f 116//116 130//130 131//131 
f 119//119 132//132 133//133 
f 133//133 130//130 119//119 
f 119//119 134//134 132//132 
f 134//134 119//119 118//118 
f 116//116 119//119 130//130 
f 135//135 129//129 136//136 
f 120//120 135//135 137//137 
f 138//138 136//136 129//129 
f 135//135 139//139 137//137 
f 140//140 120//120 141//141 
f 122//122 142//142 143//143 
f 142//142 122//122 144//144 
f 122//122 140//140 145//145 
f 142//142 144//144 146//146 
f 122//122 145//145 144//144 
f 122//122 120//120 140//140 
f 147//147 148//148 149//149 
f 149//149 150//150 151//151 
f 147//147 149//149 151//151 
f 152//152 150//150 149//149 
f 153//153 154//154 155//155 
f 153//153 156//156 154//154 
f 152//152 154//154 156//156 
f 152//152 149//149 154//154 
f 150//150 152//152 157//157 
f 158//158 159//159 160//160 
f 158//158 161//161 162//162 
f 159//159 158//158 162//162 
f 163//163 158//158 160//160 
f 163//163 157//157 164//164 
f 165//165 163//163 166//166 
f 164//164 166//166 163//163 
f 163//163 160//160 157//157 
f 167//167 168//168 169//169 
f 170//170 171//171 172//172 
f 173//173 174//174 171//171 
f 175//175 172//172 168//168 
f 176//176 177//177 178//178 
f 179//179 176//176 180//180 
f 181//181 182//182 177//177 
f 183//183 181//181 179//179 
f 184//184 185//185 186//186 
f 178//178 185//185 184//184 
f 178//178 187//187 188//188 
f 187//187 178//178 177//177 
f 177//177 189//189 187//187 
f 185//185 178//178 188//188 
f 178//178 184//184 190//190 
f 191//191 180//180 192//192 
f 193//193 194//194 180//180 
f 179//179 180//180 194//194 
f 182//182 195//195 177//177 
f 196//196 195//195 182//182 
f 197//197 198//198 182//182 
f 198//198 197//197 199//199 
f 197//197 182//182 200//200 
f 201//201 202//202 179//179 
f 183//183 203//203 200//200 
f 202//202 204//204 183//183 
f 205//205 206//206 207//207 
f 208//208 209//209 210//210 
f 211//211 212//212 209//209 
f 213//213 210//210 206//206 
f 214//214 215//215 216//216 
f 217//217 218//218 219//219 
f 220//220 221//221 218//218 
f 222//222 219//219 215//215 
f 223//223 224//224 225//225 
f 226//226 227//227 228//228 
f 229//229 230//230 227//227 
f 231//231 228//228 224//224 
f 232//232 233//233 234//234 
f 235//235 232//232 234//234 
f 236//236 237//237 232//232 
f 238//238 236//236 232//232 
f 239//239 240//240 241//241 
f 242//242 240//240 239//239 
f 242//242 243//243 244//244 
f 245//245 243//243 233//233 
f 242//242 233//233 243//243 
f 240//240 242//242 244//244 
f 242//242 239//239 234//234 
f 246//246 247//247 234//234 
f 248//248 249//249 246//246 
f 249//249 250//250 235//235 
f 233//233 251//251 245//245 
f 252//252 251//251 237//237 
f 236//236 253//253 254//254 
f 254//254 255//255 237//237 
f 255//255 254//254 256//256 
f 250//250 257//257 235//235 
f 257//257 258//258 238//238 
f 253//253 236//236 238//238 
f 251//251 233//233 237//237 
f 259//259 260//260 261//261 
f 262//262 259//259 263//263 
f 264//264 265//265 260//260 
f 266//266 264//264 262//262 
f 267//267 268//268 269//269 
f 261//261 268//268 267//267 
f 261//261 270//270 271//271 
f 270//270 261//261 260//260 
f 260//260 272//272 270//270 
f 268//268 261//261 271//271 
f 261//261 267//267 273//273 
f 274//274 263//263 275//275 
f 276//276 277//277 263//263 
f 262//262 263//263 277//277 
f 265//265 278//278 260//260 
f 279//279 278//278 265//265 
f 280//280 281//281 265//265 
f 281//281 280//280 282//282 
f 280//280 265//265 264//264 
f 283//283 284//284 262//262 
f 266//266 285//285 264//264 
f 284//284 286//286 285//285 
f 287//287 288//288 289//289 
f 290//290 287//287 289//289 
f 291//291 292//292 287//287 
f 293//293 291//291 287//287 
f 294//294 295//295 296//296 
f 297//297 298//298 295//295 
f 297//297 299//299 298//298 
f 300//300 299//299 288//288 
f 297//297 288//288 299//299 
f 297//297 294//294 301//301 
f 302//302 303//303 301//301 
f 304//304 305//305 303//303 
f 305//305 306//306 290//290 
f 288//288 307//307 300//300 
f 292//292 308//308 307//307 
f 309//309 308//308 292//292 
f 310//310 311//311 309//309 
f 310//310 292//292 291//291 
f 309//309 292//292 310//310 
f 306//306 312//312 290//290 
f 312//312 313//313 293//293 
f 314//314 291//291 293//293 
f 307//307 288//288 292//292 
f 315//315 316//316 317//317 
f 318//318 319//319 316//316 
f 316//316 320//320 318//318 
f 316//316 315//315 320//320 
f 315//315 317//317 321//321 
f 322//322 319//319 318//318 
f 323//323 324//324 325//325 
f 322//322 325//325 324//324 
f 326//326 323//323 327//327 
f 325//325 327//327 323//323 
f 325//325 322//322 318//318 
f 328//328 329//329 330//330 
f 328//328 331//331 329//329 
f 330//330 321//321 328//328 
f 331//331 328//328 332//332 
f 321//321 330//330 315//315 
f 333//333 331//331 332//332 
f 334//334 335//335 336//336 
f 337//337 336//336 335//335 
f 336//336 337//337 338//338 
f 333//333 338//338 337//337 
f 333//333 337//337 331//331 
f 339//339 340//340 341//341 
f 342//342 343//343 340//340 
f 340//340 344//344 342//342 
f 340//340 339//339 344//344 
f 339//339 341//341 345//345 
f 346//346 343//343 342//342 
f 347//347 348//348 349//349 
f 346//346 349//349 348//348 
f 350//350 347//347 351//351 
f 349//349 351//351 347//347 
f 349//349 346//346 342//342 
f 352//352 353//353 345//345 
f 352//352 354//354 353//353 
f 345//345 355//355 352//352 
f 354//354 352//352 356//356 
f 355//355 345//345 341//341 
f 357//357 354//354 356//356 
f 358//358 359//359 360//360 
f 361//361 360//360 359//359 
f 360//360 361//361 362//362 
f 357//357 362//362 361//361 
f 357//357 361//361 354//354 
f 363//363 364//364 365//365 
f 366//366 367//367 368//368 
f 367//367 364//364 363//363 
f 369//369 365//365 370//370 
f 367//367 366//366 364//364 
f 371//371 372//372 373//373 
f 374//374 371//371 375//375 
f 376//376 377//377 372//372 
f 378//378 376//376 371//371 
f 373//373 379//379 380//380 
f 373//373 380//380 381//381 
f 372//372 382//382 373//373 
f 381//381 383//383 373//373 
f 383//383 375//375 373//373 
f 372//372 377//377 384//384 
f 382//382 379//379 373//373 
f 375//375 385//385 386//386 
f 387//387 388//388 389//389 
f 388//388 387//387 386//386 
f 387//387 389//389 390//390 
f 390//390 389//389 391//391 
f 390//390 392//392 374//374 
f 375//375 386//386 387//387 
f 375//375 383//383 385//385 
f 377//377 393//393 394//394 
f 395//395 384//384 394//394 
f 376//376 396//396 397//397 
f 377//377 397//397 393//393 
f 398//398 378//378 392//392 
f 374//374 392//392 378//378 
f 378//378 399//399 376//376 
f 378//378 400//400 399//399 
f 378//378 398//398 401//401 
f 378//378 401//401 400//400 
f 402//402 403//403 404//404 
f 405//405 406//406 407//407 
f 406//406 403//403 402//402 
f 408//408 404//404 409//409 
f 406//406 405//405 403//403 
f 410//410 411//411 412//412 
f 413//413 410//410 414//414 
f 415//415 416//416 411//411 
f 417//417 415//415 410//410 
f 418//418 419//419 420//420 
f 412//412 420//420 421//421 
f 412//412 411//411 422//422 
f 412//412 421//421 423//423 
f 418//418 420//420 412//412 
f 414//414 424//424 425//425 
f 426//426 427//427 428//428 
f 427//427 426//426 425//425 
f 426//426 428//428 429//429 
f 429//429 428//428 430//430 
f 429//429 431//431 413//413 
f 414//414 425//425 426//426 
f 414//414 423//423 424//424 
f 416//416 432//432 433//433 
f 433//433 422//422 411//411 
f 416//416 434//434 432//432 
f 415//415 435//435 416//416 
f 435//435 415//415 436//436 
f 437//437 417//417 431//431 
f 417//417 438//438 439//439 
f 417//417 437//437 440//440 
f 417//417 440//440 438//438 
f 439//439 436//436 415//415 
f 441//441 442//442 443//443 
f 444//444 441//441 445//445 
f 446//446 447//447 442//442 
f 448//448 446//446 441//441 
f 443//443 449//449 450//450 
f 443//443 450//450 451//451 
f 442//442 452//452 443//443 
f 451//451 453//453 443//443 
f 443//443 453//453 445//445 
f 442//442 447//447 454//454 
f 452//452 449//449 443//443 
f 445//445 455//455 456//456 
f 457//457 458//458 459//459 
f 458//458 457//457 456//456 
f 457//457 459//459 460//460 
f 460//460 461//461 444//444 
f 445//445 456//456 457//457 
f 447//447 462//462 463//463 
f 464//464 454//454 463//463 
f 446//446 465//465 466//466 
f 447//447 466//466 462//462 
f 467//467 448//448 461//461 
f 444//444 461//461 448//448 
f 448//448 468//468 469//469 
f 448//448 467//467 470//470 
f 448//448 470//470 468//468 
f 469//469 465//465 446//446 
f 471//471 472//472 473//473 
f 474//474 471//471 475//475 
f 476//476 477//477 472//472 
f 478//478 476//476 471//471 
f 473//473 479//479 480//480 
f 473//473 480//480 481//481 
f 472//472 482//482 473//473 
f 481//481 483//483 473//473 
f 483//483 475//475 473//473 
f 472//472 477//477 484//484 
f 482//482 479//479 473//473 
f 475//475 485//485 486//486 
f 487//487 488//488 489//489 
f 488//488 487//487 486//486 
f 487//487 489//489 490//490 
f 490//490 491//491 474//474 
f 475//475 486//486 487//487 
f 475//475 483//483 485//485 
f 477//477 492//492 493//493 
f 494//494 484//484 493//493 
f 476//476 495//495 496//496 
f 477//477 496//496 492//492 
f 497//497 478//478 491//491 
f 478//478 498//498 499//499 
f 478//478 497//497 500//500 
f 478//478 500//500 498//498 
f 499//499 495//495 476//476 
f 501//501 502//502 503//503 
f 503//503 504//504 501//501 
f 502//502 501//501 505//505 
f 505//505 506//506 502//502 
f 507//507 504//504 503//503 
f 508//508 509//509 510//510 
f 507//507 510//510 509//509 
f 511//511 512//512 508//508 
f 509//509 508//508 512//512 
f 509//509 504//504 507//507 
f 513//513 506//506 514//514 
f 515//515 513//513 514//514 
f 516//516 506//506 513//513 
f 517//517 513//513 515//515 
f 516//516 502//502 506//506 
f 518//518 519//519 520//520 
f 521//521 520//520 519//519 
f 519//519 522//522 521//521 
f 517//517 521//521 522//522 
f 517//517 515//515 521//521 
f 523//523 524//524 525//525 
f 525//525 526//526 523//523 
f 524//524 523//523 527//527 
f 527//527 528//528 524//524 
f 529//529 526//526 525//525 
f 530//530 531//531 532//532 
f 529//529 532//532 531//531 
f 533//533 534//534 530//530 
f 531//531 530//530 534//534 
f 531//531 526//526 529//529 
f 535//535 528//528 536//536 
f 535//535 536//536 537//537 
f 528//528 535//535 538//538 
f 537//537 539//539 535//535 
f 538//538 524//524 528//528 
f 540//540 539//539 537//537 
f 541//541 542//542 543//543 
f 544//544 543//543 542//542 
f 542//542 545//545 544//544 
f 540//540 544//544 545//545 
f 540//540 537//537 544//544 
f 546//546 547//547 548//548 
f 549//549 550//550 551//551 
f 552//552 553//553 550//550 
f 554//554 551//551 547//547 
f 555//555 556//556 557//557 
f 558//558 555//555 559//559 
f 560//560 561//561 556//556 
f 562//562 560//560 558//558 
f 557//557 563//563 564//564 
f 557//557 565//565 563//563 
f 556//556 566//566 567//567 
f 567//567 557//557 556//556 
f 556//556 568//568 566//566 
f 565//565 557//557 567//567 
f 569//569 557//557 564//564 
f 559//559 570//570 571//571 
f 564//564 570//570 569//569 
f 569//569 570//570 559//559 
f 559//559 572//572 573//573 
f 573//573 574//574 558//558 
f 571//571 572//572 559//559 
f 561//561 575//575 568//568 
f 576//576 575//575 561//561 
f 577//577 578//578 576//576 
f 577//577 561//561 560//560 
f 576//576 561//561 577//577 
f 574//574 579//579 558//558 
f 579//579 562//562 558//558 
f 562//562 579//579 580//580 
f 580//580 581//581 562//562 
f 562//562 581//581 582//582 
f 582//582 581//581 583//583 
f 584//584 560//560 562//562 
f 561//561 568//568 556//556 
f 585//585 586//586 587//587 
f 588//588 585//585 589//589 
f 590//590 591//591 586//586 
f 592//592 590//590 585//585 
f 593//593 594//594 591//591 
f 595//595 593//593 590//590 
f 596//596 597//597 594//594 
f 598//598 596//596 593//593 
f 599//599 600//600 597//597 
f 601//601 599//599 596//596 
f 602//602 603//603 600//600 
f 604//604 602//602 599//599 
f 605//605 606//606 603//603 
f 607//607 605//605 602//602 
f 608//608 609//609 606//606 
f 610//610 608//608 605//605 
f 611//611 612//612 609//609 
f 613//613 611//611 608//608 
f 614//614 615//615 612//612 
f 616//616 614//614 611//611 
f 617//617 618//618 615//615 
f 619//619 617//617 614//614 
f 620//620 621//621 622//622 
f 623//623 620//620 624//624 
f 587//587 625//625 626//626 
f 627//627 628//628 586//586 
f 628//628 625//625 587//587 
f 629//629 627//627 591//591 
f 589//589 587//587 626//626 
f 630//630 631//631 597//597 
f 603//603 606//606 632//632 
f 633//633 630//630 600//600 
f 631//631 629//629 594//594 
f 634//634 635//635 589//589 
f 592//592 588//588 636//636 
f 588//588 635//635 637//637 
f 635//635 634//634 637//637 
f 638//638 639//639 595//595 
f 626//626 634//634 589//589 
f 598//598 595//595 639//639 
f 604//604 601//601 640//640 
f 601//601 598//598 641//641 
f 642//642 643//643 607//607 
f 644//644 645//645 609//609 
f 615//615 618//618 646//646 
f 647//647 644//644 612//612 
f 645//645 632//632 606//606 
f 648//648 646//646 618//618 
f 649//649 648//648 622//622 
f 650//650 649//649 621//621 
f 622//622 618//618 617//617 
f 624//624 617//617 619//619 
f 620//620 650//650 621//621 
f 610//610 607//607 643//643 
f 616//616 613//613 651//651 
f 613//613 610//610 652//652 
f 653//653 654//654 619//619 
f 655//655 619//619 654//654 
f 656//656 620//620 623//623 
f 623//623 655//655 657//657 
f 623//623 658//658 656//656 
f 656//656 650//650 620//620 
f 659//659 660//660 661//661 
f 662//662 659//659 661//661 
f 663//663 664//664 659//659 
f 665//665 663//663 659//659 
f 666//666 667//667 668//668 
f 669//669 661//661 668//668 
f 670//670 671//671 666//666 
f 671//671 670//670 672//672 
f 668//668 670//670 666//666 
f 673//673 674//674 675//675 
f 676//676 675//675 674//674 
f 661//661 669//669 676//676 
f 676//676 677//677 678//678 
f 674//674 677//677 676//676 
f 672//672 670//670 660//660 
f 679//679 680//680 660//660 
f 664//664 679//679 660//660 
f 664//664 681//681 682//682 
f 663//663 683//683 664//664 
f 681//681 664//664 683//683 
f 679//679 664//664 682//682 
f 662//662 684//684 665//665 
f 662//662 685//685 684//684 
f 662//662 678//678 685//685 
f 686//686 665//665 687//687 
f 665//665 686//686 688//688 
f 688//688 663//663 665//665 
f 688//688 683//683 663//663 
f 680//680 672//672 660//660 
f 689//689 690//690 691//691 
f 692//692 693//693 694//694 
f 695//695 696//696 693//693 
f 697//697 694//694 690//690 
f 698//698 699//699 700//700 
f 701//701 698//698 700//700 
f 702//702 703//703 698//698 
f 704//704 702//702 698//698 
f 705//705 706//706 707//707 
f 708//708 700//700 707//707 
f 709//709 710//710 705//705 
f 710//710 709//709 711//711 
f 707//707 709//709 705//705 
f 712//712 713//713 714//714 
f 714//714 713//713 715//715 
f 715//715 716//716 701//701 
f 715//715 717//717 716//716 
f 700//700 708//708 715//715 
f 711//711 709//709 699//699 
f 718//718 719//719 699//699 
f 703//703 718//718 699//699 
f 703//703 720//720 721//721 
f 702//702 722//722 703//703 
f 720//720 703//703 722//722 
f 718//718 703//703 721//721 
f 723//723 701//701 724//724 
f 723//723 725//725 704//704 
f 704//704 701//701 723//723 
f 726//726 702//702 704//704 
f 704//704 727//727 726//726 
f 726//726 722//722 702//702 
f 725//725 727//727 704//704 
f 719//719 711//711 699//699 
f 1//1 3//3 9//9 
f 4//4 6//6 8//8 
f 7//7 8//8 728//728 
f 5//5 9//9 6//6 
f 10//10 12//12 16//16 
f 13//13 11//11 10//10 
f 15//15 16//16 30//30 
f 17//17 10//10 15//15 
f 23//23 12//12 18//18 
f 11//11 26//26 21//21 
f 16//16 24//24 30//30 
f 29//29 729//729 27//27 
f 29//29 13//13 38//38 
f 30//30 31//31 34//34 
f 15//15 32//32 36//36 
f 17//17 38//38 13//13 
f 42//42 44//44 50//50 
f 45//45 47//47 49//49 
f 48//48 49//49 730//730 
f 46//46 50//50 47//47 
f 51//51 53//53 57//57 
f 54//54 52//52 51//51 
f 56//56 57//57 71//71 
f 58//58 51//51 56//56 
f 64//64 53//53 59//59 
f 57//57 65//65 71//71 
f 70//70 731//731 68//68 
f 70//70 54//54 78//78 
f 65//65 732//732 72//72 
f 71//71 74//74 73//73 
f 58//58 78//78 54//54 
f 58//58 80//80 79//79 
f 82//82 84//84 88//88 
f 85//85 83//83 82//82 
f 87//87 88//88 104//104 
f 89//89 82//82 87//87 
f 95//95 84//84 90//90 
f 88//88 96//96 104//104 
f 101//101 85//85 111//111 
f 104//104 107//107 105//105 
f 89//89 111//111 85//85 
f 89//89 113//113 112//112 
f 115//115 117//117 121//121 
f 118//118 116//116 115//115 
f 120//120 121//121 135//135 
f 122//122 115//115 120//120 
f 128//128 117//117 123//123 
f 116//116 131//131 126//126 
f 121//121 129//129 135//135 
f 134//134 733//733 132//132 
f 134//134 118//118 143//143 
f 135//135 136//136 139//139 
f 120//120 137//137 141//141 
f 122//122 143//143 118//118 
f 150//150 157//157 160//160 
f 167//167 169//169 734//734 
f 170//170 172//172 175//175 
f 173//173 171//171 170//170 
f 175//175 168//168 167//167 
f 176//176 178//178 190//190 
f 176//176 190//190 180//180 
f 181//181 177//177 176//176 
f 181//181 176//176 179//179 
f 184//184 192//192 190//190 
f 180//180 190//190 192//192 
f 193//193 180//180 191//191 
f 179//179 194//194 201//201 
f 195//195 189//189 177//177 
f 198//198 196//196 182//182 
f 182//182 181//181 200//200 
f 202//202 183//183 179//179 
f 183//183 200//200 181//181 
f 204//204 203//203 183//183 
f 205//205 207//207 735//735 
f 208//208 210//210 213//213 
f 211//211 209//209 208//208 
f 213//213 206//206 205//205 
f 214//214 216//216 736//736 
f 217//217 219//219 222//222 
f 220//220 218//218 217//217 
f 222//222 215//215 214//214 
f 223//223 225//225 737//737 
f 226//226 228//228 231//231 
f 229//229 227//227 226//226 
f 231//231 224//224 223//223 
f 233//233 242//242 234//234 
f 235//235 234//234 247//247 
f 237//237 233//233 232//232 
f 238//238 232//232 235//235 
f 239//239 738//738 234//234 
f 246//246 234//234 738//738 
f 249//249 247//247 246//246 
f 249//249 235//235 247//247 
f 236//236 254//254 237//237 
f 255//255 252//252 237//237 
f 257//257 238//238 235//235 
f 258//258 739//739 238//238 
f 253//253 238//238 739//739 
f 259//259 261//261 273//273 
f 259//259 273//273 263//263 
f 264//264 260//260 259//259 
f 264//264 259//259 262//262 
f 267//267 275//275 273//273 
f 263//263 273//273 275//275 
f 276//276 263//263 274//274 
f 262//262 277//277 283//283 
f 278//278 272//272 260//260 
f 281//281 279//279 265//265 
f 280//280 264//264 740//740 
f 284//284 266//266 262//262 
f 285//285 740//740 264//264 
f 284//284 285//285 266//266 
f 288//288 297//297 289//289 
f 290//290 289//289 303//303 
f 292//292 288//288 287//287 
f 293//293 287//287 290//290 
f 297//297 295//295 294//294 
f 297//297 301//301 289//289 
f 303//303 289//289 301//301 
f 304//304 303//303 302//302 
f 305//305 290//290 303//303 
f 310//310 291//291 314//314 
f 312//312 293//293 290//290 
f 313//313 741//741 293//293 
f 314//314 293//293 741//741 
f 363//363 365//365 369//369 
f 371//371 373//373 375//375 
f 374//374 375//375 387//387 
f 376//376 372//372 371//371 
f 378//378 371//371 374//374 
f 372//372 384//384 382//382 
f 390//390 374//374 387//387 
f 377//377 394//394 384//384 
f 376//376 397//397 377//377 
f 399//399 396//396 376//376 
f 402//402 404//404 408//408 
f 410//410 412//412 414//414 
f 413//413 414//414 426//426 
f 415//415 411//411 410//410 
f 417//417 410//410 413//413 
f 412//412 422//422 418//418 
f 412//412 423//423 414//414 
f 429//429 413//413 426//426 
f 432//432 742//742 433//433 
f 433//433 411//411 416//416 
f 435//435 434//434 416//416 
f 417//417 413//413 431//431 
f 417//417 439//439 415//415 
f 441//441 443//443 445//445 
f 444//444 445//445 457//457 
f 446//446 442//442 441//441 
f 448//448 441//441 444//444 
f 453//453 455//455 445//445 
f 442//442 454//454 452//452 
f 459//459 743//743 460//460 
f 460//460 444//444 457//457 
f 447//447 463//463 454//454 
f 446//446 466//466 447//447 
f 448//448 469//469 446//446 
f 471//471 473//473 475//475 
f 474//474 475//475 487//487 
f 476//476 472//472 471//471 
f 478//478 471//471 474//474 
f 472//472 484//484 482//482 
f 489//489 744//744 490//490 
f 490//490 474//474 487//487 
f 477//477 493//493 484//484 
f 476//476 496//496 477//477 
f 478//478 474//474 491//491 
f 478//478 499//499 476//476 
f 546//546 548//548 745//745 
f 549//549 551//551 554//554 
f 552//552 550//550 549//549 
f 554//554 547//547 546//546 
f 555//555 557//557 569//569 
f 555//555 569//569 559//559 
f 560//560 556//556 555//555 
f 560//560 555//555 558//558 
f 559//559 573//573 558//558 
f 577//577 560//560 584//584 
f 584//584 562//562 582//582 
f 585//585 587//587 589//589 
f 588//588 589//589 635//635 
f 590//590 586//586 585//585 
f 592//592 585//585 588//588 
f 593//593 591//591 590//590 
f 595//595 590//590 592//592 
f 596//596 594//594 593//593 
f 598//598 593//593 595//595 
f 599//599 597//597 596//596 
f 601//601 596//596 598//598 
f 602//602 600//600 599//599 
f 604//604 599//599 601//601 
f 605//605 603//603 602//602 
f 607//607 602//602 604//604 
f 608//608 606//606 605//605 
f 610//610 605//605 607//607 
f 611//611 609//609 608//608 
f 613//613 608//608 610//610 
f 614//614 612//612 611//611 
f 616//616 611//611 613//613 
f 617//617 615//615 614//614 
f 619//619 614//614 616//616 
f 620//620 622//622 624//624 
f 623//623 624//624 655//655 
f 627//627 586//586 591//591 
f 628//628 587//587 586//586 
f 629//629 591//591 594//594 
f 630//630 597//597 600//600 
f 603//603 632//632 633//633 
f 633//633 600//600 603//603 
f 631//631 594//594 597//597 
f 592//592 636//636 638//638 
f 588//588 637//637 636//636 
f 638//638 595//595 592//592 
f 598//598 639//639 641//641 
f 604//604 640//640 642//642 
f 601//601 641//641 640//640 
f 642//642 607//607 604//604 
f 644//644 609//609 612//612 
f 615//615 646//646 647//647 
f 647//647 612//612 615//615 
f 645//645 606//606 609//609 
f 648//648 618//618 622//622 
f 649//649 622//622 621//621 
f 622//622 617//617 624//624 
f 624//624 619//619 655//655 
f 610//610 643//643 652//652 
f 616//616 651//651 653//653 
f 613//613 652//652 651//651 
f 653//653 619//619 616//616 
f 655//655 654//654 657//657 
f 623//623 657//657 658//658 
f 660//660 670//670 661//661 
f 662//662 661//661 676//676 
f 664//664 660//660 659//659 
f 665//665 659//659 662//662 
f 661//661 670//670 668//668 
f 669//669 675//675 676//676 
f 676//676 678//678 662//662 
f 684//684 687//687 665//665 
f 689//689 691//691 746//746 
f 692//692 694//694 697//697 
f 695//695 693//693 692//692 
f 697//697 690//690 689//689 
f 699//699 709//709 700//700 
f 701//701 700//700 715//715 
f 703//703 699//699 698//698 
f 704//704 698//698 701//701 
f 700//700 709//709 707//707 
f 713//713 717//717 715//715 
f 716//716 724//724 701//701 
f 708//708 714//714 715//715 
