# Blender 5.0.1
# www.blender.org
mtllib control panel setup.mtl
o control_panel_setup
v 0.303243 1.849421 1.602124
v 0.303243 2.692255 1.602124
v -6.707871 2.692255 1.602124
v 0.303243 0.163748 1.602124
v 0.303243 1.006582 1.602124
v -6.707871 1.006582 1.602124
v 0.303243 -0.679085 1.602124
v -6.707871 0.163748 1.602124
v -6.707871 1.849421 1.602124
v -6.838334 1.006582 1.587981
v -6.838334 1.849421 1.587981
v -6.879419 1.849421 1.571610
v -6.775785 1.006582 1.598734
v -6.775785 1.849421 1.598734
v -6.838334 0.163748 1.587981
v -6.879419 1.006582 1.571610
v -6.775785 0.163748 1.598734
v -6.892374 1.849421 1.553835
v -6.889293 2.692255 1.562621
v -6.892374 2.692255 1.553835
v -6.862300 2.692255 1.580259
v -6.879419 2.692255 1.571610
v -6.892374 1.006582 1.553835
v -6.892374 0.163748 1.553835
v -6.808832 2.692255 1.594253
v -6.838334 2.692255 1.587981
v -6.741442 2.692255 1.601319
v -6.775785 2.692255 1.598734
v -6.707871 1.849421 1.602124
v -6.879419 0.163748 1.571610
v -6.889293 -0.679085 1.562621
v -6.862300 -0.679085 1.580259
v -6.892374 -0.679085 1.553835
v -6.879419 -0.679085 1.571610
v -6.808832 -0.679085 1.594253
v -6.838334 -0.679085 1.587981
v -6.707871 0.163748 1.602124
v -6.707871 1.006582 1.602124
v -6.741442 -0.679085 1.601319
v -6.775785 -0.679085 1.598734
v -6.707871 -0.679085 1.602124
v -6.707871 1.849407 -2.082415
v -6.707871 2.692242 -2.082415
v 0.303243 2.692242 -2.082415
v -6.707871 0.163742 -2.082415
v -6.707871 1.006573 -2.082415
v 0.303243 1.006573 -2.082415
v -6.707871 -0.679092 -2.082415
v 0.303243 0.163742 -2.082415
v 0.303243 1.849407 -2.082415
v -6.838334 1.006573 -2.068271
v -6.838334 0.163742 -2.068271
v -6.879419 0.163742 -2.051900
v -6.775785 1.006573 -2.079024
v -6.775785 0.163742 -2.079024
v -6.838334 1.849407 -2.068271
v -6.879419 1.006573 -2.051900
v -6.775785 1.849407 -2.079024
v -6.892374 0.163742 -2.034124
v -6.889293 -0.679092 -2.042912
v -6.892374 -0.679092 -2.034124
v -6.862300 -0.679092 -2.060549
v -6.879419 -0.679092 -2.051900
v -6.892374 1.006573 -2.034124
v -6.892374 1.849407 -2.034124
v -6.808832 -0.679092 -2.074543
v -6.838334 -0.679092 -2.068271
v -6.741442 -0.679092 -2.081609
v -6.775785 -0.679092 -2.079024
v -6.707871 0.163742 -2.082415
v -6.879419 1.849407 -2.051900
v -6.889293 2.692242 -2.042912
v -6.862300 2.692242 -2.060549
v -6.879419 2.692242 -2.051900
v -6.838334 2.692242 -2.068271
v -6.808832 2.692242 -2.074543
v -6.707871 1.849407 -2.082415
v -6.707871 1.006573 -2.082415
v -6.741442 2.692242 -2.081609
v -6.775785 2.692242 -2.079024
v -6.707871 2.692242 -2.082415
v 0.433706 1.006573 -2.068271
v 0.433706 0.163742 -2.068271
v 0.371157 0.163742 -2.079024
v 0.474791 1.006573 -2.051900
v 0.474791 0.163742 -2.051900
v 0.433706 1.849407 -2.068271
v 0.371157 1.006573 -2.079024
v 0.474791 1.849407 -2.051900
v 0.303243 0.163742 -2.082415
v 0.336815 -0.679092 -2.081609
v 0.303243 -0.679092 -2.082415
v 0.404204 -0.679092 -2.074543
v 0.371157 -0.679092 -2.079024
v 0.303243 1.006573 -2.082415
v 0.303243 1.849407 -2.082415
v 0.457672 -0.679092 -2.060549
v 0.433706 -0.679092 -2.068271
v 0.484665 -0.679092 -2.042912
v 0.474791 -0.679092 -2.051900
v 0.487746 0.163742 -2.034124
v 0.487746 -0.679092 -2.034124
v 0.336815 2.692242 -2.081609
v 0.371157 1.849407 -2.079024
v 0.404204 2.692242 -2.074543
v 0.303243 2.692242 -2.082415
v 0.371157 2.692242 -2.079024
v 0.433706 2.692242 -2.068271
v 0.457672 2.692242 -2.060549
v 0.487746 1.849407 -2.034124
v 0.487746 1.006573 -2.034124
v 0.484665 2.692242 -2.042912
v 0.474791 2.692242 -2.051900
v 0.487746 2.692242 -2.034124
v 0.433706 1.006582 1.587981
v 0.433706 0.163748 1.587981
v 0.474791 0.163748 1.571610
v 0.371157 1.006582 1.598734
v 0.371157 0.163748 1.598734
v 0.433706 1.849421 1.587981
v 0.474791 1.006582 1.571610
v 0.371157 1.849421 1.598734
v 0.487746 0.163748 1.553835
v 0.484665 -0.679085 1.562621
v 0.487746 -0.679085 1.553835
v 0.457672 -0.679085 1.580259
v 0.474791 -0.679085 1.571610
v 0.487746 1.006582 1.553835
v 0.487746 1.849421 1.553835
v 0.404204 -0.679085 1.594253
v 0.433706 -0.679085 1.587981
v 0.336815 -0.679085 1.601319
v 0.371157 -0.679085 1.598734
v 0.303243 0.163748 1.602124
v 0.474791 1.849421 1.571610
v 0.484665 2.692255 1.562621
v 0.457672 2.692255 1.580259
v 0.487746 2.692255 1.553835
v 0.474791 2.692255 1.571610
v 0.404204 2.692255 1.594253
v 0.433706 2.692255 1.587981
v 0.303243 1.849421 1.602124
v 0.303243 1.006582 1.602124
v 0.336815 2.692255 1.601319
v 0.371157 2.692255 1.598734
v 0.303243 2.692255 1.602124
v 0.401092 2.933060 1.579444
v 0.431904 2.933060 1.567166
v 0.441620 2.933060 1.553835
v 0.303243 2.933060 1.590052
v 0.354180 2.933060 1.587509
v 0.303243 2.933052 -2.070342
v 0.401092 2.933052 -2.059734
v 0.441620 2.933052 -2.034124
v 0.431904 2.933052 -2.047456
v 0.354180 2.933052 -2.067800
v -6.707871 2.933052 -2.070342
v -6.846249 2.933060 1.553835
v -6.758807 2.933060 1.587509
v -6.707871 2.933060 1.590052
v -6.836532 2.933060 1.567166
v -6.805719 2.933060 1.579444
v -6.846249 2.933052 -2.034124
v -6.758807 2.933052 -2.067800
v -6.836532 2.933052 -2.047456
v -6.805719 2.933052 -2.059734
v -6.880843 2.752455 1.553835
v -6.880843 2.752445 -2.034124
v -6.892374 2.692242 -2.034124
v -6.857780 2.872858 1.553835
v -6.857780 2.872852 -2.034124
v -6.869311 2.812647 -2.034124
v -6.846249 2.933060 1.553835
v -6.846249 2.933052 -2.034124
v -6.869311 2.812660 1.553835
v -6.822026 2.812660 1.583713
v -6.830181 2.752455 1.585847
v -6.771542 2.752455 1.595928
v -6.813872 2.872858 1.581578
v -6.763051 2.872858 1.590316
v -6.857976 2.812660 1.569388
v -6.868699 2.752455 1.570499
v -6.847255 2.872858 1.568277
v -6.707871 2.752455 1.599107
v -6.741442 2.692255 1.601319
v -6.707871 2.692255 1.602124
v -6.808832 2.692255 1.594253
v -6.775785 2.692255 1.598734
v -6.838334 2.692255 1.587981
v -6.767296 2.812660 1.593122
v -6.707871 2.872858 1.593070
v -6.707871 2.812660 1.596089
v -6.707871 2.933060 1.590052
v -6.758807 2.933060 1.587509
v -6.862300 2.692255 1.580259
v -6.879419 2.692255 1.571610
v -6.880843 2.752455 1.553835
v -6.889293 2.692255 1.562621
v -6.892374 2.692255 1.553835
v -6.869311 2.812660 1.553835
v -6.805719 2.933060 1.579444
v -6.836532 2.933060 1.567166
v -6.857780 2.872858 1.553835
v -6.846249 2.933060 1.553835
v -6.707871 2.752445 -2.079397
v 0.303243 2.752445 -2.079397
v 0.303243 2.692242 -2.082415
v -6.707871 2.872852 -2.073361
v 0.303243 2.872852 -2.073361
v 0.303243 2.812647 -2.076379
v -6.707871 2.933052 -2.070342
v 0.303243 2.933052 -2.070342
v -6.707871 2.812647 -2.076379
v 0.476215 2.752445 -2.034124
v 0.476215 2.752455 1.553835
v 0.487746 2.692255 1.553835
v 0.453152 2.872852 -2.034124
v 0.453152 2.872858 1.553835
v 0.464683 2.812660 1.553835
v 0.441620 2.933052 -2.034124
v 0.441620 2.933060 1.553835
v 0.464683 2.812647 -2.034124
v 0.303243 2.752455 1.599107
v -6.707871 2.752455 1.599107
v -6.707871 2.692255 1.602124
v 0.303243 2.872858 1.593070
v -6.707871 2.872858 1.593070
v -6.707871 2.812660 1.596089
v 0.303243 2.933060 1.590052
v -6.707871 2.933060 1.590052
v 0.303243 2.812660 1.596089
v -6.822026 2.812647 -2.064003
v -6.830181 2.752445 -2.066137
v -6.857976 2.812647 -2.049678
v -6.813872 2.872852 -2.061868
v -6.767296 2.812647 -2.073412
v -6.771542 2.752445 -2.076218
v -6.763051 2.872852 -2.070606
v -6.880843 2.752445 -2.034124
v -6.889293 2.692242 -2.042912
v -6.892374 2.692242 -2.034124
v -6.868699 2.752445 -2.050789
v -6.862300 2.692242 -2.060549
v -6.879419 2.692242 -2.051900
v -6.838334 2.692242 -2.068271
v -6.857780 2.872852 -2.034124
v -6.847255 2.872852 -2.048567
v -6.846249 2.933052 -2.034124
v -6.836532 2.933052 -2.047456
v -6.805719 2.933052 -2.059734
v -6.808832 2.692242 -2.074543
v -6.775785 2.692242 -2.079024
v -6.707871 2.812647 -2.076379
v -6.707871 2.752445 -2.079397
v -6.741442 2.692242 -2.081609
v -6.707871 2.692242 -2.082415
v -6.758807 2.933052 -2.067800
v -6.707871 2.933052 -2.070342
v 0.417398 2.812647 -2.064003
v 0.425553 2.752445 -2.066137
v 0.366914 2.752445 -2.076218
v 0.409245 2.872852 -2.061868
v 0.358423 2.872852 -2.070606
v 0.453348 2.812647 -2.049678
v 0.464071 2.752445 -2.050789
v 0.442627 2.872852 -2.048567
v 0.303243 2.752445 -2.079397
v 0.336815 2.692242 -2.081609
v 0.303243 2.692242 -2.082415
v 0.404204 2.692242 -2.074543
v 0.371157 2.692242 -2.079024
v 0.433706 2.692242 -2.068271
v 0.362668 2.812647 -2.073412
v 0.303243 2.872852 -2.073361
v 0.303243 2.812647 -2.076379
v 0.303243 2.933052 -2.070342
v 0.354180 2.933052 -2.067800
v 0.457672 2.692242 -2.060549
v 0.474791 2.692242 -2.051900
v 0.476215 2.752445 -2.034124
v 0.484665 2.692242 -2.042912
v 0.487746 2.692242 -2.034124
v 0.401092 2.933052 -2.059734
v 0.431904 2.933052 -2.047456
v 0.453152 2.872852 -2.034124
v 0.441620 2.933052 -2.034124
v 0.417398 2.812660 1.583713
v 0.425553 2.752455 1.585847
v 0.453348 2.812660 1.569388
v 0.409245 2.872858 1.581578
v 0.362668 2.812660 1.593122
v 0.366914 2.752455 1.595928
v 0.358423 2.872858 1.590316
v 0.476215 2.752455 1.553835
v 0.484665 2.692255 1.562621
v 0.487746 2.692255 1.553835
v 0.464071 2.752455 1.570499
v 0.474791 2.692255 1.571610
v 0.457672 2.692255 1.580259
v 0.433706 2.692255 1.587981
v 0.464683 2.812660 1.553835
v 0.453152 2.872858 1.553835
v 0.442627 2.872858 1.568277
v 0.441620 2.933060 1.553835
v 0.431904 2.933060 1.567166
v 0.401092 2.933060 1.579444
v 0.404204 2.692255 1.594253
v 0.371157 2.692255 1.598734
v 0.336815 2.692255 1.601319
v 0.303243 2.752455 1.599107
v 0.303243 2.692255 1.602124
v 0.354180 2.933060 1.587509
v 0.303243 2.933060 1.590052
v 0.303243 2.812660 1.596089
v 0.487746 1.729008 -1.394755
v 0.487746 1.849407 -2.034124
v 0.487746 2.692242 -2.034124
v 0.487746 1.474777 -1.448745
v 0.487746 1.006573 -2.034124
v 0.487746 1.664587 -1.422492
v 0.487746 2.692255 1.553835
v 0.487746 0.163742 -2.034124
v 0.487746 -0.679092 -1.737140
v 0.487746 -0.679092 -2.034124
v 0.487746 -0.424864 -1.639214
v 0.487746 -0.679092 -1.693204
v 0.487746 -0.614676 -1.665467
v 0.487746 1.849421 1.553835
v 0.487746 1.664593 0.942202
v 0.487746 1.729010 0.914464
v 0.487746 1.474781 0.968455
v 0.487746 1.006582 1.553835
v 0.487746 0.163748 1.553835
v 0.487746 -0.679085 1.212914
v 0.487746 -0.614666 1.185177
v 0.487746 -0.679085 1.256850
v 0.487746 -0.424858 1.158924
v 0.487746 -0.679085 1.553835
v -6.892374 1.729010 0.914464
v -6.892374 1.849421 1.553835
v -6.892374 2.692255 1.553835
v -6.892374 1.474781 0.968455
v -6.892374 1.006582 1.553835
v -6.892374 1.664593 0.942202
v -6.892374 1.729008 -1.394755
v -6.892374 0.163748 1.553835
v -6.892374 -0.679085 1.256850
v -6.892374 -0.679085 1.553835
v -6.892374 -0.424858 1.158924
v -6.892374 -0.679085 1.212914
v -6.892374 -0.614666 1.185177
v -6.892374 1.849407 -2.034124
v -6.892374 1.664587 -1.422492
v -6.892374 1.474777 -1.448745
v -6.892374 2.692242 -2.034124
v -6.892374 1.006573 -2.034124
v -6.892374 0.163742 -2.034124
v -6.892374 -0.679092 -1.693204
v -6.892374 -0.614676 -1.665467
v -6.892374 -0.679092 -1.737140
v -6.892374 -0.424864 -1.639214
v -6.892374 -0.679092 -2.034124
v 0.303243 0.976662 1.594881
v -6.707871 0.976662 1.594881
v -6.707871 1.804533 1.594881
v -6.707871 -0.679085 1.594881
v 0.303243 0.148787 1.594881
v 0.303243 -0.679085 1.594881
v 0.303243 2.632401 1.594881
v -6.707871 2.632401 1.594881
v -6.818764 0.976662 1.582859
v -6.853688 0.976662 1.568944
v -6.853688 1.804533 1.568944
v -6.765598 0.976662 1.591999
v -6.818764 1.804533 1.582859
v -6.818764 0.148787 1.582859
v -6.853688 0.148787 1.568944
v -6.765598 0.148787 1.591999
v -6.864699 2.632401 1.553835
v -6.862082 2.632401 1.561304
v -6.853688 2.632401 1.568944
v -6.864699 0.976662 1.553835
v -6.839136 2.632401 1.576296
v -6.864699 0.148787 1.553835
v -6.818764 2.632401 1.582859
v -6.793688 2.632401 1.588191
v -6.765598 1.804533 1.591999
v -6.765598 2.632401 1.591999
v -6.736407 2.632401 1.594196
v -6.707871 1.804533 1.594881
v -6.707871 2.632401 1.594881
v -6.707871 0.976662 1.594881
v -6.853688 -0.679085 1.568944
v -6.862082 -0.679085 1.561304
v -6.864699 -0.679085 1.553835
v -6.818764 -0.679085 1.582859
v -6.839136 -0.679085 1.576296
v -6.707871 -0.679085 1.594881
v -6.793688 -0.679085 1.588191
v -6.765598 -0.679085 1.591999
v -6.736407 -0.679085 1.594196
v -6.707871 0.976646 -2.075171
v 0.303243 0.976646 -2.075171
v 0.303243 1.804525 -2.075171
v 0.303243 -0.679092 -2.075171
v -6.707871 0.148777 -2.075171
v -6.707871 -0.679092 -2.075171
v -6.707871 2.632395 -2.075171
v 0.303243 2.632395 -2.075171
v -6.818764 0.976646 -2.063149
v -6.853688 0.976646 -2.049234
v -6.853688 0.148777 -2.049234
v -6.765598 0.976646 -2.072289
v -6.818764 0.148777 -2.063149
v -6.818764 1.804525 -2.063149
v -6.853688 1.804525 -2.049234
v -6.765598 1.804525 -2.072289
v -6.864699 0.148777 -2.034124
v -6.864699 -0.679092 -2.034124
v -6.862082 -0.679092 -2.041594
v -6.853688 -0.679092 -2.049234
v -6.864699 0.976646 -2.034124
v -6.839136 -0.679092 -2.056586
v -6.818764 -0.679092 -2.063149
v -6.793688 -0.679092 -2.068480
v -6.765598 0.148777 -2.072289
v -6.765598 -0.679092 -2.072289
v -6.736407 -0.679092 -2.074486
v -6.707871 0.148777 -2.075171
v -6.707871 -0.679092 -2.075171
v -6.707871 0.976646 -2.075171
v -6.862082 2.632395 -2.041594
v -6.864699 1.804525 -2.034124
v -6.853688 2.632395 -2.049234
v -6.839136 2.632395 -2.056586
v -6.818764 2.632395 -2.063149
v -6.707871 2.632395 -2.075171
v -6.765598 2.632395 -2.072289
v -6.793688 2.632395 -2.068480
v -6.736407 2.632395 -2.074486
v 0.414136 0.976646 -2.063149
v 0.360970 0.976646 -2.072289
v 0.360970 0.148777 -2.072289
v 0.449060 0.976646 -2.049234
v 0.414136 0.148777 -2.063149
v 0.414136 1.804525 -2.063149
v 0.360970 1.804525 -2.072289
v 0.449060 1.804525 -2.049234
v 0.303243 -0.679092 -2.075171
v 0.331779 -0.679092 -2.074486
v 0.360970 -0.679092 -2.072289
v 0.303243 0.976646 -2.075171
v 0.389060 -0.679092 -2.068480
v 0.303243 1.804525 -2.075171
v 0.414136 -0.679092 -2.063149
v 0.434508 -0.679092 -2.056586
v 0.449060 0.148777 -2.049234
v 0.449060 -0.679092 -2.049234
v 0.457454 -0.679092 -2.041594
v 0.460071 0.148777 -2.034124
v 0.460071 0.976646 -2.034124
v 0.360970 2.632395 -2.072289
v 0.331779 2.632395 -2.074486
v 0.303243 2.632395 -2.075171
v 0.414136 2.632395 -2.063149
v 0.389060 2.632395 -2.068480
v 0.460071 2.632395 -2.034124
v 0.449060 2.632395 -2.049234
v 0.434508 2.632395 -2.056586
v 0.457454 2.632395 -2.041594
v 0.414136 0.976662 1.582859
v 0.449060 0.976662 1.568944
v 0.449060 0.148787 1.568944
v 0.360970 0.976662 1.591999
v 0.414136 0.148787 1.582859
v 0.414136 1.804533 1.582859
v 0.449060 1.804533 1.568944
v 0.360970 1.804533 1.591999
v 0.460071 -0.679085 1.553835
v 0.457454 -0.679085 1.561304
v 0.449060 -0.679085 1.568944
v 0.460071 0.976662 1.553835
v 0.434508 -0.679085 1.576296
v 0.460071 1.804533 1.553835
v 0.414136 -0.679085 1.582859
v 0.389060 -0.679085 1.588191
v 0.360970 0.148787 1.591999
v 0.360970 -0.679085 1.591999
v 0.331779 -0.679085 1.594196
v 0.303243 0.148787 1.594881
v 0.303243 0.976662 1.594881
v 0.449060 2.632401 1.568944
v 0.457454 2.632401 1.561304
v 0.460071 2.632401 1.553835
v 0.414136 2.632401 1.582859
v 0.434508 2.632401 1.576296
v 0.303243 2.632401 1.594881
v 0.360970 2.632401 1.591999
v 0.389060 2.632401 1.588191
v 0.331779 2.632401 1.594196
v 0.460071 1.664587 -1.422492
v 0.460071 2.632395 -2.034124
v 0.460071 0.976646 -2.034124
v 0.460071 1.474777 -1.448745
v 0.460071 1.729008 -1.394755
v 0.460071 1.729010 0.914464
v 0.460071 0.148777 -2.034124
v 0.460071 -0.679092 -1.737140
v 0.460071 -0.424864 -1.639214
v 0.460071 -0.679092 -2.034124
v 0.460071 -0.679092 -1.693204
v 0.460071 -0.614676 -1.665467
v 0.460071 1.804533 1.553835
v 0.460071 1.664593 0.942202
v 0.460071 1.474781 0.968455
v 0.460071 2.632401 1.553835
v 0.460071 0.976662 1.553835
v 0.460071 -0.679085 1.212914
v 0.460071 -0.679085 1.256850
v 0.460071 -0.614666 1.185177
v 0.460071 -0.424858 1.158924
v 0.460071 -0.679085 1.553835
v -6.864699 1.664593 0.942202
v -6.864699 2.632401 1.553835
v -6.864699 0.976662 1.553835
v -6.864699 1.474781 0.968455
v -6.864699 1.729010 0.914464
v -6.864699 1.729008 -1.394755
v -6.864699 0.148787 1.553835
v -6.864699 -0.679085 1.256850
v -6.864699 -0.424858 1.158924
v -6.864699 -0.679085 1.553835
v -6.864699 -0.679085 1.212914
v -6.864699 -0.614666 1.185177
v -6.864699 1.804525 -2.034124
v -6.864699 1.664587 -1.422492
v -6.864699 1.474777 -1.448745
v -6.864699 2.632395 -2.034124
v -6.864699 0.976646 -2.034124
v -6.864699 0.148777 -2.034124
v -6.864699 -0.679092 -1.693204
v -6.864699 -0.679092 -1.737140
v -6.864699 -0.614676 -1.665467
v -6.864699 -0.424864 -1.639214
v -6.864699 -0.679092 -2.034124
v -6.707871 -0.679085 1.600314
v 0.303243 -0.679085 1.600314
v 0.303243 -0.679085 1.602124
v -6.707871 -0.679085 1.596692
v 0.303243 -0.679085 1.596692
v 0.303243 -0.679085 1.598503
v -6.707871 -0.679085 1.594881
v 0.303243 -0.679085 1.594881
v -6.707871 -0.679085 1.598503
v -6.828550 -0.679085 1.585420
v -6.833442 -0.679085 1.586700
v -6.872987 -0.679085 1.570944
v -6.823656 -0.679085 1.584139
v -6.860120 -0.679085 1.569610
v -6.770693 -0.679085 1.595367
v -6.773240 -0.679085 1.597051
v -6.768146 -0.679085 1.593683
v -6.889293 -0.679085 1.562621
v -6.892374 -0.679085 1.553835
v -6.879419 -0.679085 1.571610
v -6.838334 -0.679085 1.587981
v -6.862300 -0.679085 1.580259
v -6.808832 -0.679085 1.594253
v -6.866554 -0.679085 1.570277
v -6.864699 -0.679085 1.553835
v -6.862082 -0.679085 1.561304
v -6.853688 -0.679085 1.568944
v -6.839136 -0.679085 1.576296
v -6.818764 -0.679085 1.582859
v -6.775785 -0.679085 1.598734
v -6.741442 -0.679085 1.601319
v -6.707871 -0.679085 1.600314
v -6.707871 -0.679085 1.602124
v -6.793688 -0.679085 1.588191
v -6.765598 -0.679085 1.591999
v -6.736407 -0.679085 1.594196
v -6.707871 -0.679085 1.596692
v -6.707871 -0.679085 1.594881
v -6.707871 -0.679085 1.598503
v -6.878537 -0.679092 -1.693204
v -6.885455 -0.679092 -1.693204
v -6.885455 -0.679092 -1.737140
v -6.871618 -0.679092 -1.693204
v -6.878537 -0.679092 -1.737140
v -6.878537 -0.614676 -1.665467
v -6.885455 -0.614676 -1.665467
v -6.871618 -0.614676 -1.665467
v -6.878537 -0.424864 -1.639214
v -6.885455 -0.424864 -1.639214
v -6.871618 -0.424864 -1.639214
v -6.878537 1.474777 -1.448745
v -6.885455 1.474777 -1.448745
v -6.871618 1.474777 -1.448745
v -6.878537 1.664587 -1.422492
v -6.885455 1.664587 -1.422492
v -6.871618 1.664587 -1.422492
v -6.878537 1.729008 -1.394755
v -6.885455 1.729008 -1.394755
v -6.871618 1.729008 -1.394755
v -6.878537 1.729010 0.914464
v -6.885455 1.729010 0.914464
v -6.871618 1.729010 0.914464
v -6.878537 1.664593 0.942202
v -6.885455 1.664593 0.942202
v -6.871618 1.664593 0.942202
v -6.878537 1.474781 0.968455
v -6.885455 1.474781 0.968455
v -6.871618 1.474781 0.968455
v -6.878537 -0.424858 1.158924
v -6.885455 -0.424858 1.158924
v -6.871618 -0.424858 1.158924
v -6.878537 -0.614666 1.185177
v -6.885455 -0.614666 1.185177
v -6.871618 -0.614666 1.185177
v -6.878537 -0.679085 1.256850
v -6.885455 -0.679085 1.256850
v -6.885455 -0.679085 1.212914
v -6.871618 -0.679085 1.256850
v -6.878537 -0.679085 1.212914
v -6.892374 -0.679092 -1.737140
v -6.892374 -0.679092 -2.034124
v -6.892374 -0.614676 -1.665467
v -6.892374 -0.679092 -1.693204
v -6.892374 -0.424864 -1.639214
v -6.892374 1.664587 -1.422492
v -6.892374 1.474777 -1.448745
v -6.892374 1.729010 0.914464
v -6.892374 1.729008 -1.394755
v -6.864699 -0.679092 -2.034124
v -6.871618 -0.679092 -1.737140
v -6.864699 -0.679092 -1.693204
v -6.864699 -0.679092 -1.737140
v -6.864699 -0.614676 -1.665467
v -6.864699 -0.424864 -1.639214
v -6.864699 1.664587 -1.422492
v -6.864699 1.474777 -1.448745
v -6.864699 1.729008 -1.394755
v -6.864699 1.729010 0.914464
v -6.892374 1.474781 0.968455
v -6.892374 1.664593 0.942202
v -6.892374 -0.614666 1.185177
v -6.892374 -0.424858 1.158924
v -6.892374 -0.679085 1.212914
v -6.892374 -0.679085 1.256850
v -6.892374 -0.679085 1.553835
v -6.864699 1.474781 0.968455
v -6.864699 1.664593 0.942202
v -6.864699 -0.424858 1.158924
v -6.864699 -0.614666 1.185177
v -6.871618 -0.679085 1.212914
v -6.864699 -0.679085 1.553835
v -6.864699 -0.679085 1.212914
v -6.864699 -0.679085 1.256850
v -6.828550 -0.679092 -2.065710
v -6.833442 -0.679092 -2.066991
v -6.770693 -0.679092 -2.075657
v -6.823656 -0.679092 -2.064430
v -6.866554 -0.679092 -2.050567
v -6.872987 -0.679092 -2.051234
v -6.860120 -0.679092 -2.049900
v -6.741442 -0.679092 -2.081609
v -6.707871 -0.679092 -2.082415
v -6.707871 -0.679092 -2.080604
v -6.707871 -0.679092 -2.078793
v -6.773240 -0.679092 -2.077341
v -6.775785 -0.679092 -2.079024
v -6.808832 -0.679092 -2.074543
v -6.707871 -0.679092 -2.075171
v -6.736407 -0.679092 -2.074486
v -6.707871 -0.679092 -2.076982
v -6.768146 -0.679092 -2.073973
v -6.765598 -0.679092 -2.072289
v -6.793688 -0.679092 -2.068480
v -6.862300 -0.679092 -2.060549
v -6.838334 -0.679092 -2.068271
v -6.889293 -0.679092 -2.042912
v -6.879419 -0.679092 -2.051900
v -6.892374 -0.679092 -2.034124
v -6.839136 -0.679092 -2.056586
v -6.818764 -0.679092 -2.063149
v -6.862082 -0.679092 -2.041594
v -6.853688 -0.679092 -2.049234
v -6.864699 -0.679092 -2.034124
v 0.303243 -0.679092 -2.080604
v -6.707871 -0.679092 -2.080604
v -6.707871 -0.679092 -2.082415
v 0.303243 -0.679092 -2.076982
v -6.707871 -0.679092 -2.076982
v -6.707871 -0.679092 -2.078793
v 0.303243 -0.679092 -2.075171
v -6.707871 -0.679092 -2.075171
v 0.303243 -0.679092 -2.078793
v 0.423922 -0.679085 1.585420
v 0.428814 -0.679085 1.586700
v 0.366065 -0.679085 1.595367
v 0.419028 -0.679085 1.584139
v 0.461927 -0.679085 1.570277
v 0.468359 -0.679085 1.570944
v 0.455492 -0.679085 1.569610
v 0.336815 -0.679085 1.601319
v 0.303243 -0.679085 1.602124
v 0.303243 -0.679085 1.600314
v 0.303243 -0.679085 1.598503
v 0.368612 -0.679085 1.597051
v 0.371157 -0.679085 1.598734
v 0.404204 -0.679085 1.594253
v 0.303243 -0.679085 1.594881
v 0.331779 -0.679085 1.594196
v 0.303243 -0.679085 1.596692
v 0.363518 -0.679085 1.593683
v 0.389060 -0.679085 1.588191
v 0.360970 -0.679085 1.591999
v 0.457672 -0.679085 1.580259
v 0.433706 -0.679085 1.587981
v 0.484665 -0.679085 1.562621
v 0.474791 -0.679085 1.571610
v 0.487746 -0.679085 1.553835
v 0.434508 -0.679085 1.576296
v 0.414136 -0.679085 1.582859
v 0.449060 -0.679085 1.568944
v 0.460071 -0.679085 1.553835
v 0.457454 -0.679085 1.561304
v -6.707871 -0.679085 1.602124
v -6.707871 2.692255 1.602124
v 0.303243 -0.679092 -2.082415
v -6.707871 -0.679092 -2.082415
v -6.892374 2.692242 -2.034124
v 0.303243 -0.679085 1.602124
v -6.892374 2.692255 1.553835
v -6.707871 2.692242 -2.082415
v 0.487746 2.692242 -2.034124
v 0.303243 2.692255 1.602124
v -6.869311 2.812647 -2.034124
v -6.707871 2.872852 -2.073361
v 0.464683 2.812647 -2.034124
v 0.303243 2.872858 1.593070
v -6.864699 2.632395 -2.034124
v 0.460071 -0.679092 -2.034124
v 0.303243 -0.679085 1.594881
v -6.707871 -0.679085 1.602124
v 0.303243 -0.679092 -2.082415
v -6.643337 2.714739 -0.549977
v -6.643337 2.843189 -0.020064
v -6.643337 4.754297 -1.044363
v -6.643337 4.882748 -0.514450
v 0.378922 2.714739 -0.549977
v 0.378922 2.843189 -0.020064
v 0.378922 4.754297 -1.044363
v 0.378922 4.882748 -0.514450
v -6.643337 2.714739 -0.549977
v -6.643337 2.843189 -0.020064
v 0.378922 2.714739 -0.549977
v 0.378922 2.843189 -0.020064
v -6.643337 2.843189 -0.020064
v 0.378922 2.843189 -0.020064
v -6.643337 2.881123 -0.536481
v -6.643337 4.881123 -0.536481
v -6.643337 2.881123 -2.031639
v -6.643337 4.881123 -2.031639
v 0.378923 2.881123 -0.536481
v 0.378923 4.881123 -0.536481
v 0.378923 2.881123 -2.031639
v 0.378923 4.881123 -2.031639
v -6.643337 2.881123 -0.536481
v -6.643337 4.881123 -0.536481
v 0.378923 2.881123 -0.536481
v 0.378923 4.881123 -0.536481
v -6.643337 4.881123 -0.536481
v 0.378923 4.881123 -0.536481
vn -0.0000 -0.0000 1.0000
vn -0.2532 -0.0000 0.9674
vn -0.2374 -0.0005 0.9714
vn -0.5360 -0.0007 0.8442
vn -0.1078 -0.0000 0.9942
vn -0.1071 -0.0005 0.9943
vn -0.2699 0.0006 0.9629
vn -0.5342 -0.0000 0.8454
vn -0.1073 0.0003 0.9942
vn -0.8369 -0.0013 0.5473
vn -0.8082 -0.0016 0.5890
vn -0.9437 -0.0000 0.3309
vn -0.3702 -0.0010 0.9290
vn -0.5470 -0.0000 0.8371
vn -0.8081 -0.0000 0.5890
vn -0.8287 0.0009 0.5597
vn -0.1694 -0.0007 0.9855
vn -0.0499 -0.0005 0.9988
vn -0.1043 -0.0000 0.9945
vn -0.0462 -0.0003 0.9989
vn -0.5368 0.0010 0.8437
vn -0.8082 0.0016 0.5890
vn -0.3702 0.0010 0.9290
vn -0.1694 0.0007 0.9855
vn -0.0447 0.0004 0.9990
vn -0.0499 -0.0000 0.9988
vn -0.0499 0.0005 0.9988
vn -0.0240 -0.0000 0.9997
vn -0.0000 -0.0000 -1.0000
vn -0.2532 -0.0000 -0.9674
vn -0.2374 0.0005 -0.9714
vn -0.5360 0.0007 -0.8442
vn -0.1078 -0.0000 -0.9942
vn -0.1071 0.0005 -0.9943
vn -0.2699 -0.0006 -0.9629
vn -0.5342 -0.0000 -0.8454
vn -0.1073 -0.0003 -0.9942
vn -0.8369 0.0013 -0.5473
vn -0.8081 0.0016 -0.5890
vn -0.9437 -0.0000 -0.3307
vn -0.3702 0.0010 -0.9290
vn -0.5470 -0.0000 -0.8371
vn -0.8082 -0.0000 -0.5890
vn -0.8287 -0.0009 -0.5596
vn -0.1694 0.0007 -0.9855
vn -0.0499 0.0005 -0.9988
vn -0.1043 -0.0000 -0.9945
vn -0.0462 0.0003 -0.9989
vn -0.5368 -0.0010 -0.8437
vn -0.8081 -0.0016 -0.5890
vn -0.3702 -0.0010 -0.9290
vn -0.5470 -0.0000 -0.8372
vn -0.1694 -0.0007 -0.9855
vn -0.0447 -0.0004 -0.9990
vn -0.0499 -0.0000 -0.9988
vn -0.0499 -0.0005 -0.9988
vn -0.0240 -0.0000 -0.9997
vn 0.2532 -0.0000 -0.9674
vn 0.2699 0.0006 -0.9629
vn 0.1073 0.0003 -0.9942
vn 0.5342 -0.0000 -0.8454
vn 0.5367 0.0010 -0.8437
vn 0.2374 -0.0005 -0.9714
vn 0.1078 -0.0000 -0.9942
vn 0.5360 -0.0007 -0.8442
vn 0.0447 0.0004 -0.9990
vn 0.0499 0.0005 -0.9988
vn 0.0240 -0.0000 -0.9997
vn 0.1694 0.0007 -0.9855
vn 0.1043 -0.0000 -0.9945
vn 0.0499 -0.0000 -0.9988
vn 0.0462 -0.0003 -0.9989
vn 0.3702 0.0010 -0.9290
vn 0.8081 0.0016 -0.5890
vn 0.5470 -0.0000 -0.8372
vn 0.8287 0.0009 -0.5596
vn 0.9437 -0.0000 -0.3309
vn 0.0499 -0.0005 -0.9988
vn 0.1071 -0.0005 -0.9943
vn 0.1694 -0.0007 -0.9855
vn 0.3702 -0.0010 -0.9290
vn 0.8369 -0.0013 -0.5473
vn 0.8081 -0.0000 -0.5890
vn 0.8081 -0.0016 -0.5890
vn 0.2532 -0.0000 0.9674
vn 0.2374 0.0005 0.9714
vn 0.5360 0.0007 0.8442
vn 0.1078 -0.0000 0.9942
vn 0.1071 0.0005 0.9943
vn 0.2699 -0.0006 0.9629
vn 0.5342 -0.0000 0.8454
vn 0.1073 -0.0003 0.9942
vn 0.8369 0.0013 0.5473
vn 0.8081 0.0016 0.5890
vn 0.9437 -0.0000 0.3309
vn 0.3702 0.0010 0.9290
vn 0.5470 -0.0000 0.8371
vn 0.8081 -0.0000 0.5890
vn 0.8287 -0.0009 0.5596
vn 0.1694 0.0007 0.9855
vn 0.0499 0.0005 0.9988
vn 0.1043 -0.0000 0.9945
vn 0.0462 0.0003 0.9989
vn 0.5368 -0.0010 0.8437
vn 0.8082 -0.0016 0.5890
vn 0.3702 -0.0010 0.9290
vn 0.1694 -0.0007 0.9855
vn 0.0447 -0.0004 0.9990
vn 0.0499 -0.0000 0.9988
vn 0.0499 -0.0005 0.9988
vn 0.0240 -0.0000 0.9997
vn -0.0000 1.0000 -0.0000
vn -0.0001 1.0000 -0.0000
vn 0.0001 1.0000 -0.0000
vn -0.9821 0.1881 -0.0000
vn -0.2218 0.0645 0.9730
vn -0.2680 0.0782 0.9603
vn -0.1162 0.0601 0.9914
vn -0.2682 0.0704 0.9608
vn -0.0999 0.0534 0.9936
vn -0.4667 0.0993 0.8788
vn -0.5666 0.1281 0.8140
vn -0.6079 0.1227 0.7845
vn -0.0459 0.0542 0.9975
vn -0.0498 0.0574 0.9971
vn -0.0240 0.0501 0.9985
vn -0.1690 0.0679 0.9833
vn -0.1041 0.0536 0.9931
vn -0.2526 0.0684 0.9651
vn -0.0951 0.0530 0.9941
vn -0.0498 0.0500 0.9975
vn -0.1288 0.0552 0.9901
vn -0.3684 0.0972 0.9246
vn -0.5436 0.1121 0.8318
vn -0.8254 0.1761 0.5364
vn -0.7957 0.1751 0.5799
vn -0.9286 0.1779 0.3256
vn -0.7986 0.1530 0.5820
vn -0.4636 0.0988 0.8805
vn -0.0000 0.0501 -0.9987
vn 0.9821 0.1881 -0.0000
vn -0.0000 0.0501 0.9987
vn -0.2218 0.0645 -0.9730
vn -0.2679 0.0782 -0.9603
vn -0.5309 0.1101 -0.8402
vn -0.2682 0.0704 -0.9608
vn -0.0951 0.0530 -0.9941
vn -0.1162 0.0601 -0.9914
vn -0.0999 0.0534 -0.9936
vn -0.8183 0.1698 -0.5492
vn -0.7957 0.1751 -0.5799
vn -0.9286 0.1779 -0.3257
vn -0.5328 0.1240 -0.8371
vn -0.3684 0.0972 -0.9246
vn -0.5435 0.1121 -0.8319
vn -0.2526 0.0684 -0.9652
vn -0.7986 0.1530 -0.5821
vn -0.5310 0.1101 -0.8402
vn -0.2526 0.0684 -0.9651
vn -0.1690 0.0679 -0.9833
vn -0.1041 0.0536 -0.9931
vn -0.0498 0.0500 -0.9975
vn -0.0459 0.0542 -0.9975
vn -0.0498 0.0574 -0.9971
vn -0.0240 0.0500 -0.9985
vn -0.1288 0.0552 -0.9901
vn 0.2218 0.0645 -0.9730
vn 0.2679 0.0782 -0.9603
vn 0.1162 0.0601 -0.9914
vn 0.2682 0.0704 -0.9608
vn 0.0999 0.0534 -0.9936
vn 0.5309 0.1101 -0.8402
vn 0.5328 0.1240 -0.8371
vn 0.0459 0.0542 -0.9975
vn 0.0498 0.0574 -0.9971
vn 0.0240 0.0501 -0.9985
vn 0.1690 0.0679 -0.9833
vn 0.1041 0.0536 -0.9931
vn 0.2526 0.0684 -0.9652
vn 0.0951 0.0530 -0.9941
vn 0.0498 0.0500 -0.9975
vn 0.1288 0.0552 -0.9901
vn 0.3684 0.0972 -0.9246
vn 0.5435 0.1121 -0.8319
vn 0.8183 0.1698 -0.5492
vn 0.7957 0.1751 -0.5799
vn 0.9286 0.1779 -0.3256
vn 0.2526 0.0684 -0.9651
vn 0.5310 0.1101 -0.8402
vn 0.7987 0.1530 -0.5820
vn 0.7986 0.1530 -0.5820
vn 0.2218 0.0645 0.9730
vn 0.2680 0.0782 0.9602
vn 0.4667 0.0993 0.8788
vn 0.2682 0.0704 0.9608
vn 0.0951 0.0530 0.9941
vn 0.1162 0.0601 0.9914
vn 0.0999 0.0534 0.9936
vn 0.8254 0.1761 0.5364
vn 0.7957 0.1751 0.5799
vn 0.9286 0.1779 0.3256
vn 0.5666 0.1281 0.8140
vn 0.5436 0.1121 0.8318
vn 0.3684 0.0972 0.9246
vn 0.2526 0.0684 0.9651
vn 0.7986 0.1530 0.5820
vn 0.6079 0.1228 0.7844
vn 0.7987 0.1530 0.5820
vn 0.4636 0.0988 0.8805
vn 0.1690 0.0679 0.9833
vn 0.1041 0.0536 0.9931
vn 0.0498 0.0574 0.9971
vn 0.0459 0.0542 0.9975
vn 0.0240 0.0501 0.9985
vn 0.1288 0.0552 0.9901
vn 0.0498 0.0500 0.9975
vn 1.0000 -0.0000 -0.0000
vn -1.0000 -0.0000 -0.0000
vn 0.5569 0.0006 -0.8306
vn 0.2374 0.0005 -0.9714
vn 0.2699 -0.0005 -0.9629
vn 0.5368 -0.0009 -0.8437
vn 0.1016 -0.0003 -0.9948
vn 0.8370 0.0011 -0.5472
vn 0.8081 0.0028 -0.5890
vn 0.8082 -0.0000 -0.5889
vn 0.3702 0.0009 -0.9290
vn 0.8287 -0.0008 -0.5596
vn 0.1694 0.0006 -0.9855
vn 0.1071 0.0004 -0.9943
vn 0.0499 0.0004 -0.9988
vn 0.0462 0.0003 -0.9989
vn 0.5470 -0.0000 -0.8371
vn 0.8082 -0.0014 -0.5890
vn 0.9437 -0.0000 -0.3307
vn 0.3702 -0.0009 -0.9290
vn 0.0447 -0.0004 -0.9990
vn 0.1694 -0.0006 -0.9855
vn 0.0499 -0.0009 -0.9988
vn 0.5360 -0.0006 0.8442
vn 0.2374 -0.0005 0.9714
vn 0.2699 0.0005 0.9629
vn 0.5368 0.0009 0.8437
vn 0.1016 0.0003 0.9948
vn 0.8370 -0.0011 0.5472
vn 0.9437 -0.0000 0.3307
vn 0.8082 -0.0014 0.5889
vn 0.3702 -0.0009 0.9290
vn 0.1694 -0.0006 0.9855
vn 0.1071 -0.0004 0.9943
vn 0.0499 -0.0004 0.9988
vn 0.0462 -0.0003 0.9989
vn 0.8082 0.0014 0.5889
vn 0.8288 0.0008 0.5596
vn 0.3702 0.0009 0.9290
vn 0.0447 0.0004 0.9990
vn 0.1694 0.0006 0.9855
vn 0.0499 0.0009 0.9988
vn -0.1016 -0.0003 0.9948
vn -0.2699 -0.0005 0.9629
vn -0.2374 0.0005 0.9714
vn -0.1071 0.0004 0.9943
vn -0.5569 0.0006 0.8306
vn -0.0447 -0.0004 0.9990
vn -0.0499 -0.0009 0.9988
vn -0.1694 -0.0006 0.9855
vn -0.0462 0.0003 0.9989
vn -0.3701 -0.0009 0.9290
vn -0.5368 -0.0009 0.8437
vn -0.8082 -0.0014 0.5890
vn -0.8288 -0.0008 0.5596
vn -0.8082 -0.0000 0.5890
vn -0.1043 -0.0000 0.9946
vn -0.0499 0.0004 0.9988
vn -0.1694 0.0006 0.9855
vn -0.8370 0.0011 0.5472
vn -0.5470 -0.0000 0.8372
vn -0.3701 0.0009 0.9290
vn -0.8082 0.0028 0.5889
vn -0.5569 -0.0006 -0.8306
vn -0.2374 -0.0005 -0.9714
vn -0.2699 0.0005 -0.9629
vn -0.5368 0.0009 -0.8437
vn -0.1016 0.0003 -0.9948
vn -0.8370 -0.0011 -0.5472
vn -0.8082 -0.0028 -0.5890
vn -0.5469 -0.0000 -0.8372
vn -0.3701 -0.0009 -0.9290
vn -0.8288 0.0008 -0.5596
vn -0.1694 -0.0006 -0.9855
vn -0.1071 -0.0004 -0.9943
vn -0.0499 -0.0004 -0.9988
vn -0.0462 -0.0003 -0.9989
vn -0.8081 0.0014 -0.5890
vn -0.3701 0.0009 -0.9290
vn -0.0447 0.0004 -0.9990
vn -0.1694 0.0006 -0.9855
vn -0.0499 0.0009 -0.9988
vn -0.0000 -1.0000 -0.0000
vn 0.0001 -1.0000 -0.0000
vn -0.0002 -1.0000 -0.0000
vn 0.0002 -1.0000 -0.0000
vn -0.0000 -0.7437 0.6685
vn -0.0000 -0.6109 0.7917
vn -0.0000 -0.8734 0.4869
vn -0.0000 -0.2077 0.9782
vn -0.0000 -0.1778 0.9841
vn -0.0000 -0.2484 0.9687
vn -0.0000 -0.1032 0.9947
vn -0.0000 -0.1016 0.9948
vn -0.0000 -0.1060 0.9944
vn -0.0000 -0.2484 0.9686
vn -0.0000 -0.9996 0.0274
vn -0.0000 -0.9999 0.0144
vn -0.0000 -0.9985 0.0544
vn -0.0000 -0.9996 -0.0282
vn -0.0000 -0.9985 -0.0543
vn -0.0000 -0.9999 -0.0143
vn -0.0000 -0.2077 -0.9782
vn -0.0000 -0.1778 -0.9841
vn -0.0000 -0.2484 -0.9686
vn -0.0000 -0.1032 -0.9947
vn -0.0000 -0.1016 -0.9948
vn -0.0000 -0.1060 -0.9944
vn -0.0000 -0.2305 -0.9731
vn -0.0000 -0.1939 -0.9810
vn -0.0000 -0.8015 -0.5980
vn -0.0000 -0.7437 -0.6685
vn -0.0000 -0.8734 0.4871
vn 0.0001 -0.9999 -0.0142
vn -0.0000 -0.9985 0.0543
vn -0.0000 -0.6111 0.7916
vn -0.0000 -0.9999 0.0142
vn -0.0000 -0.9985 -0.0550
vn -0.0000 -0.2484 -0.9687
vn -0.0000 -0.1015 -0.9948
vn -0.0000 -0.6108 -0.7918
vn -0.0000 -0.6631 -0.7486
vn -0.0000 -0.8733 -0.4872
vn -0.0001 -1.0000 -0.0000
vn 0.0003 -1.0000 -0.0000
vn -0.9437 -0.0000 -0.3308
vn -0.7986 0.1530 -0.5820
vn -0.9437 -0.0000 0.3307
vn -0.0000 0.9719 -0.2356
vn -0.0000 -0.2356 -0.9719
vn -0.0000 0.2356 0.9719
vn -0.0000 -0.9719 0.2356
vn -0.0000 -0.0000 -0.0000
vt 0.000000 0.000000
vt 0.375000 0.000000
vt 0.625000 0.000000
vt 0.625000 0.250000
vt 0.375000 0.250000
vt 0.625000 0.500000
vt 0.375000 0.500000
vt 0.625000 0.750000
vt 0.375000 0.750000
vt 0.125000 0.500000
vt 0.125000 0.750000
vt 0.875000 0.500000
vt 0.875000 0.750000
vt 0.625000 1.000000
vt 0.375000 1.000000
s 1
f 1/1/1 2/1/1 3/1/1
f 4/1/1 5/1/1 6/1/1
f 7/1/1 4/1/1 8/1/1
f 5/1/1 1/1/1 9/1/1
f 10/1/2 11/1/3 12/1/4
f 13/1/5 14/1/6 11/1/3
f 15/1/7 10/1/2 16/1/8
f 17/1/9 13/1/5 10/1/2
f 18/1/10 19/1/11 20/1/12
f 12/1/4 21/1/13 22/1/14
f 22/1/14 19/1/11 12/1/4
f 23/1/15 16/1/8 12/1/4
f 12/1/4 11/1/3 21/1/13
f 16/1/8 23/1/15 24/1/16
f 19/1/11 18/1/10 12/1/4
f 11/1/3 25/1/17 26/1/2
f 14/1/6 27/1/18 28/1/19
f 28/1/19 25/1/17 14/1/6
f 14/1/6 29/1/20 27/1/18
f 29/1/20 14/1/6 13/1/5
f 11/1/3 14/1/6 25/1/17
f 30/1/21 24/1/16 31/1/22
f 15/1/7 30/1/21 32/1/23
f 33/1/12 31/1/22 24/1/16
f 30/1/21 34/1/14 32/1/23
f 35/1/24 15/1/7 36/1/2
f 17/1/9 37/1/25 38/1/26
f 37/1/25 17/1/9 39/1/27
f 17/1/9 35/1/24 40/1/19
f 37/1/25 39/1/27 41/1/28
f 17/1/9 40/1/19 39/1/27
f 17/1/9 15/1/7 35/1/24
f 42/1/29 43/1/29 44/1/29
f 45/1/29 46/1/29 47/1/29
f 48/1/29 45/1/29 49/1/29
f 46/1/29 42/1/29 50/1/29
f 51/1/30 52/1/31 53/1/32
f 54/1/33 55/1/34 52/1/31
f 56/1/35 51/1/30 57/1/36
f 58/1/37 54/1/33 51/1/30
f 59/1/38 60/1/39 61/1/40
f 53/1/32 62/1/41 63/1/42
f 63/1/42 60/1/39 53/1/32
f 64/1/43 57/1/36 53/1/32
f 52/1/31 62/1/41 53/1/32
f 57/1/36 64/1/43 65/1/44
f 60/1/39 59/1/38 53/1/32
f 52/1/31 66/1/45 67/1/30
f 55/1/34 68/1/46 69/1/47
f 69/1/47 66/1/45 55/1/34
f 55/1/34 70/1/48 68/1/46
f 70/1/48 55/1/34 54/1/33
f 52/1/31 55/1/34 66/1/45
f 52/1/31 67/1/30 62/1/41
f 71/1/49 65/1/44 72/1/50
f 56/1/35 71/1/49 73/1/51
f 71/1/49 72/1/50 74/1/52
f 56/1/35 73/1/51 75/1/30
f 76/1/53 56/1/35 75/1/30
f 58/1/37 77/1/54 78/1/55
f 77/1/54 58/1/37 79/1/56
f 58/1/37 76/1/53 80/1/47
f 77/1/54 79/1/56 81/1/57
f 58/1/37 56/1/35 76/1/53
f 82/1/58 83/1/59 84/1/60
f 85/1/61 86/1/62 83/1/59
f 87/1/63 82/1/58 88/1/64
f 89/1/65 85/1/61 82/1/58
f 90/1/66 91/1/67 92/1/68
f 84/1/60 93/1/69 94/1/70
f 94/1/70 91/1/67 84/1/60
f 95/1/71 88/1/64 84/1/60
f 83/1/59 93/1/69 84/1/60
f 88/1/64 95/1/71 96/1/72
f 91/1/67 90/1/66 84/1/60
f 83/1/59 97/1/73 98/1/58
f 86/1/62 99/1/74 100/1/75
f 100/1/75 97/1/73 86/1/62
f 86/1/62 101/1/76 99/1/74
f 101/1/76 102/1/77 99/1/74
f 101/1/76 86/1/62 85/1/61
f 83/1/59 86/1/62 97/1/73
f 83/1/59 98/1/58 93/1/69
f 103/1/78 104/1/79 96/1/72
f 87/1/63 104/1/79 105/1/80
f 106/1/68 103/1/78 96/1/72
f 104/1/79 103/1/78 107/1/70
f 87/1/63 105/1/80 108/1/58
f 109/1/81 87/1/63 108/1/58
f 89/1/65 110/1/82 111/1/83
f 110/1/82 89/1/65 112/1/84
f 89/1/65 109/1/81 113/1/75
f 110/1/82 112/1/84 114/1/77
f 89/1/65 87/1/63 109/1/81
f 115/1/85 116/1/86 117/1/87
f 118/1/88 119/1/89 116/1/86
f 120/1/90 115/1/85 121/1/91
f 122/1/92 118/1/88 115/1/85
f 123/1/93 124/1/94 125/1/95
f 117/1/87 126/1/96 127/1/97
f 127/1/97 124/1/94 117/1/87
f 128/1/98 121/1/91 117/1/87
f 117/1/87 116/1/86 126/1/96
f 121/1/91 128/1/98 129/1/99
f 124/1/94 123/1/93 117/1/87
f 116/1/86 130/1/100 131/1/85
f 119/1/89 132/1/101 133/1/102
f 133/1/102 130/1/100 119/1/89
f 119/1/89 134/1/103 132/1/101
f 134/1/103 119/1/89 118/1/88
f 116/1/86 119/1/89 130/1/100
f 135/1/104 129/1/99 136/1/105
f 120/1/90 135/1/104 137/1/106
f 138/1/95 136/1/105 129/1/99
f 135/1/104 139/1/97 137/1/106
f 140/1/107 120/1/90 141/1/85
f 122/1/92 142/1/108 143/1/109
f 142/1/108 122/1/92 144/1/110
f 122/1/92 140/1/107 145/1/102
f 142/1/108 144/1/110 146/1/111
f 122/1/92 145/1/102 144/1/110
f 122/1/92 120/1/90 140/1/107
f 147/1/112 148/1/113 149/1/112
f 149/1/112 150/1/112 151/1/112
f 147/1/112 149/1/112 151/1/112
f 152/1/112 150/1/112 149/1/112
f 153/1/112 154/1/112 155/1/112
f 153/1/112 156/1/112 154/1/112
f 152/1/112 154/1/112 156/1/112
f 152/1/112 149/1/112 154/1/112
f 150/1/112 152/1/112 157/1/112
f 158/1/112 159/1/112 160/1/112
f 158/1/112 161/1/114 162/1/112
f 159/1/112 158/1/112 162/1/112
f 163/1/112 158/1/112 160/1/112
f 163/1/112 157/1/112 164/1/112
f 165/1/112 163/1/112 166/1/114
f 164/1/112 166/1/114 163/1/112
f 163/1/112 160/1/112 157/1/112
f 167/1/115 168/1/115 169/1/115
f 170/1/115 171/1/115 172/1/115
f 173/1/115 174/1/115 171/1/115
f 175/1/115 172/1/115 168/1/115
f 176/1/116 177/1/117 178/1/118
f 179/1/119 176/1/116 180/1/120
f 181/1/121 182/1/122 177/1/117
f 183/1/123 181/1/121 179/1/119
f 184/1/124 185/1/125 186/1/126
f 178/1/118 185/1/125 184/1/124
f 178/1/118 187/1/127 188/1/128
f 187/1/127 178/1/118 177/1/117
f 177/1/117 189/1/129 187/1/127
f 185/1/125 178/1/118 188/1/128
f 178/1/118 184/1/124 190/1/130
f 191/1/131 180/1/120 192/1/131
f 193/1/131 194/1/132 180/1/120
f 179/1/119 180/1/120 194/1/132
f 182/1/122 195/1/133 177/1/117
f 196/1/134 195/1/133 182/1/122
f 197/1/135 198/1/136 182/1/122
f 198/1/136 197/1/135 199/1/137
f 197/1/135 182/1/122 200/1/138
f 201/1/129 202/1/139 179/1/119
f 183/1/123 203/1/138 200/1/138
f 202/1/139 204/1/138 183/1/123
f 205/1/140 206/1/140 207/1/140
f 208/1/140 209/1/140 210/1/140
f 211/1/140 212/1/140 209/1/140
f 213/1/140 210/1/140 206/1/140
f 214/1/141 215/1/141 216/1/141
f 217/1/141 218/1/141 219/1/141
f 220/1/141 221/1/141 218/1/141
f 222/1/141 219/1/141 215/1/141
f 223/1/142 224/1/142 225/1/142
f 226/1/142 227/1/142 228/1/142
f 229/1/142 230/1/142 227/1/142
f 231/1/142 228/1/142 224/1/142
f 232/1/143 233/1/144 234/1/145
f 235/1/146 232/1/143 234/1/145
f 236/1/147 237/1/148 232/1/143
f 238/1/149 236/1/147 232/1/143
f 239/1/150 240/1/151 241/1/152
f 242/1/153 240/1/151 239/1/150
f 242/1/153 243/1/154 244/1/155
f 245/1/156 243/1/154 233/1/144
f 242/1/153 233/1/144 243/1/154
f 240/1/151 242/1/153 244/1/155
f 242/1/153 239/1/150 234/1/145
f 246/1/157 247/1/145 234/1/145
f 248/1/157 249/1/158 246/1/157
f 249/1/158 250/1/159 235/1/146
f 233/1/144 251/1/160 245/1/156
f 252/1/161 251/1/160 237/1/148
f 236/1/147 253/1/162 254/1/163
f 254/1/163 255/1/164 237/1/148
f 255/1/164 254/1/163 256/1/165
f 250/1/159 257/1/166 235/1/146
f 257/1/166 258/1/162 238/1/149
f 253/1/162 236/1/147 238/1/149
f 251/1/160 233/1/144 237/1/148
f 259/1/167 260/1/168 261/1/169
f 262/1/170 259/1/167 263/1/171
f 264/1/172 265/1/173 260/1/168
f 266/1/172 264/1/172 262/1/170
f 267/1/174 268/1/175 269/1/176
f 261/1/169 268/1/175 267/1/174
f 261/1/169 270/1/177 271/1/178
f 270/1/177 261/1/169 260/1/168
f 260/1/168 272/1/179 270/1/177
f 268/1/175 261/1/169 271/1/178
f 261/1/169 267/1/174 273/1/180
f 274/1/181 263/1/171 275/1/181
f 276/1/181 277/1/182 263/1/171
f 262/1/170 263/1/171 277/1/182
f 265/1/173 278/1/183 260/1/168
f 279/1/184 278/1/183 265/1/173
f 280/1/185 281/1/186 265/1/173
f 281/1/186 280/1/185 282/1/187
f 280/1/185 265/1/173 264/1/172
f 283/1/188 284/1/189 262/1/170
f 266/1/172 285/1/190 264/1/172
f 284/1/189 286/1/191 285/1/190
f 287/1/192 288/1/193 289/1/194
f 290/1/195 287/1/192 289/1/194
f 291/1/196 292/1/197 287/1/192
f 293/1/198 291/1/196 287/1/192
f 294/1/199 295/1/200 296/1/201
f 297/1/202 298/1/203 295/1/200
f 297/1/202 299/1/204 298/1/203
f 300/1/205 299/1/204 288/1/193
f 297/1/202 288/1/193 299/1/204
f 297/1/202 294/1/199 301/1/206
f 302/1/206 303/1/207 301/1/206
f 304/1/208 305/1/209 303/1/207
f 305/1/209 306/1/205 290/1/195
f 288/1/193 307/1/210 300/1/205
f 292/1/197 308/1/211 307/1/210
f 309/1/212 308/1/211 292/1/197
f 310/1/213 311/1/214 309/1/212
f 310/1/213 292/1/197 291/1/196
f 309/1/212 292/1/197 310/1/213
f 306/1/205 312/1/215 290/1/195
f 312/1/215 313/1/216 293/1/198
f 314/1/216 291/1/196 293/1/198
f 307/1/210 288/1/193 292/1/197
f 315/1/217 316/1/217 317/1/217
f 318/1/217 319/1/217 316/1/217
f 316/1/217 320/1/217 318/1/217
f 316/1/217 315/1/217 320/1/217
f 315/1/217 317/1/217 321/1/217
f 322/1/217 319/1/217 318/1/217
f 323/1/217 324/1/217 325/1/217
f 322/1/217 325/1/217 324/1/217
f 326/1/217 323/1/217 327/1/217
f 325/1/217 327/1/217 323/1/217
f 325/1/217 322/1/217 318/1/217
f 328/1/217 329/1/217 330/1/217
f 328/1/217 331/1/217 329/1/217
f 330/1/217 321/1/217 328/1/217
f 331/1/217 328/1/217 332/1/217
f 321/1/217 330/1/217 315/1/217
f 333/1/217 331/1/217 332/1/217
f 334/1/217 335/1/217 336/1/217
f 337/1/217 336/1/217 335/1/217
f 336/1/217 337/1/217 338/1/217
f 333/1/217 338/1/217 337/1/217
f 333/1/217 337/1/217 331/1/217
f 339/1/218 340/1/218 341/1/218
f 342/1/218 343/1/218 340/1/218
f 340/1/218 344/1/218 342/1/218
f 340/1/218 339/1/218 344/1/218
f 339/1/218 341/1/218 345/1/218
f 346/1/218 343/1/218 342/1/218
f 347/1/218 348/1/218 349/1/218
f 346/1/218 349/1/218 348/1/218
f 350/1/218 347/1/218 351/1/218
f 349/1/218 351/1/218 347/1/218
f 349/1/218 346/1/218 342/1/218
f 352/1/218 353/1/218 345/1/218
f 352/1/218 354/1/218 353/1/218
f 345/1/218 355/1/218 352/1/218
f 354/1/218 352/1/218 356/1/218
f 355/1/218 345/1/218 341/1/218
f 357/1/218 354/1/218 356/1/218
f 358/1/218 359/1/218 360/1/218
f 361/1/218 360/1/218 359/1/218
f 360/1/218 361/1/218 362/1/218
f 357/1/218 362/1/218 361/1/218
f 357/1/218 361/1/218 354/1/218
f 363/1/29 364/1/29 365/1/29
f 366/1/29 367/1/29 368/1/29
f 367/1/29 364/1/29 363/1/29
f 369/1/29 365/1/29 370/1/29
f 367/1/29 366/1/29 364/1/29
f 371/1/58 372/1/61 373/1/219
f 374/1/64 371/1/58 375/1/220
f 376/1/221 377/1/222 372/1/61
f 378/1/223 376/1/221 371/1/58
f 373/1/219 379/1/224 380/1/225
f 373/1/219 380/1/225 381/1/75
f 372/1/61 382/1/226 373/1/219
f 381/1/75 383/1/227 373/1/219
f 383/1/227 375/1/220 373/1/219
f 372/1/61 377/1/222 384/1/228
f 382/1/226 379/1/224 373/1/219
f 375/1/220 385/1/58 386/1/229
f 387/1/230 388/1/70 389/1/231
f 388/1/70 387/1/230 386/1/229
f 387/1/230 389/1/231 390/1/232
f 390/1/232 389/1/231 391/1/68
f 390/1/232 392/1/71 374/1/64
f 375/1/220 386/1/229 387/1/230
f 375/1/220 383/1/227 385/1/58
f 377/1/222 393/1/233 394/1/234
f 395/1/235 384/1/228 394/1/234
f 376/1/221 396/1/58 397/1/236
f 377/1/222 397/1/236 393/1/233
f 398/1/237 378/1/223 392/1/71
f 374/1/64 392/1/71 378/1/223
f 378/1/223 399/1/238 376/1/221
f 378/1/223 400/1/70 399/1/238
f 378/1/223 398/1/237 401/1/239
f 378/1/223 401/1/239 400/1/70
f 402/1/1 403/1/1 404/1/1
f 405/1/1 406/1/1 407/1/1
f 406/1/1 403/1/1 402/1/1
f 408/1/1 404/1/1 409/1/1
f 406/1/1 405/1/1 403/1/1
f 410/1/85 411/1/91 412/1/240
f 413/1/88 410/1/85 414/1/241
f 415/1/242 416/1/243 411/1/91
f 417/1/244 415/1/242 410/1/85
f 418/1/245 419/1/246 420/1/247
f 412/1/240 420/1/247 421/1/97
f 412/1/240 411/1/91 422/1/98
f 412/1/240 421/1/97 423/1/248
f 418/1/245 420/1/247 412/1/240
f 414/1/241 424/1/85 425/1/249
f 426/1/250 427/1/102 428/1/251
f 427/1/102 426/1/250 425/1/249
f 426/1/250 428/1/251 429/1/252
f 429/1/252 428/1/251 430/1/111
f 429/1/252 431/1/109 413/1/88
f 414/1/241 425/1/249 426/1/250
f 414/1/241 423/1/248 424/1/85
f 416/1/243 432/1/253 433/1/254
f 433/1/254 422/1/98 411/1/91
f 416/1/243 434/1/97 432/1/253
f 415/1/242 435/1/255 416/1/243
f 435/1/255 415/1/242 436/1/85
f 437/1/256 417/1/244 431/1/109
f 417/1/244 438/1/102 439/1/257
f 417/1/244 437/1/256 440/1/258
f 417/1/244 440/1/258 438/1/102
f 439/1/257 436/1/85 415/1/242
f 441/1/2 442/1/5 443/1/259
f 444/1/8 441/1/2 445/1/260
f 446/1/261 447/1/262 442/1/5
f 448/1/263 446/1/261 441/1/2
f 443/1/259 449/1/264 450/1/265
f 443/1/259 450/1/265 451/1/19
f 442/1/5 452/1/26 443/1/259
f 451/1/19 453/1/266 443/1/259
f 443/1/259 453/1/266 445/1/260
f 442/1/5 447/1/262 454/1/267
f 452/1/26 449/1/264 443/1/259
f 445/1/260 455/1/2 456/1/268
f 457/1/269 458/1/14 459/1/270
f 458/1/14 457/1/269 456/1/268
f 457/1/269 459/1/270 460/1/271
f 460/1/271 461/1/272 444/1/8
f 445/1/260 456/1/268 457/1/269
f 447/1/262 462/1/273 463/1/274
f 464/1/28 454/1/267 463/1/274
f 446/1/261 465/1/2 466/1/275
f 447/1/262 466/1/275 462/1/273
f 467/1/276 448/1/263 461/1/272
f 444/1/8 461/1/272 448/1/263
f 448/1/263 468/1/277 469/1/278
f 448/1/263 467/1/276 470/1/279
f 448/1/263 470/1/279 468/1/277
f 469/1/278 465/1/2 446/1/261
f 471/1/30 472/1/36 473/1/280
f 474/1/33 471/1/30 475/1/281
f 476/1/282 477/1/283 472/1/36
f 478/1/284 476/1/282 471/1/30
f 473/1/280 479/1/285 480/1/286
f 473/1/280 480/1/286 481/1/287
f 472/1/36 482/1/43 473/1/280
f 481/1/287 483/1/288 473/1/280
f 483/1/288 475/1/281 473/1/280
f 472/1/36 477/1/283 484/1/289
f 482/1/43 479/1/285 473/1/280
f 475/1/281 485/1/30 486/1/290
f 487/1/291 488/1/47 489/1/292
f 488/1/47 487/1/291 486/1/290
f 487/1/291 489/1/292 490/1/293
f 490/1/293 491/1/55 474/1/33
f 475/1/281 486/1/290 487/1/291
f 475/1/281 483/1/288 485/1/30
f 477/1/283 492/1/52 493/1/294
f 494/1/40 484/1/289 493/1/294
f 476/1/282 495/1/30 496/1/295
f 477/1/283 496/1/295 492/1/52
f 497/1/296 478/1/284 491/1/55
f 478/1/284 498/1/47 499/1/297
f 478/1/284 497/1/296 500/1/298
f 478/1/284 500/1/298 498/1/47
f 499/1/297 495/1/30 476/1/282
f 501/1/218 502/1/218 503/1/218
f 503/1/218 504/1/218 501/1/218
f 502/1/218 501/1/218 505/1/218
f 505/1/218 506/1/218 502/1/218
f 507/1/218 504/1/218 503/1/218
f 508/1/218 509/1/218 510/1/218
f 507/1/218 510/1/218 509/1/218
f 511/1/218 512/1/218 508/1/218
f 509/1/218 508/1/218 512/1/218
f 509/1/218 504/1/218 507/1/218
f 513/1/218 506/1/218 514/1/218
f 515/1/218 513/1/218 514/1/218
f 516/1/218 506/1/218 513/1/218
f 517/1/218 513/1/218 515/1/218
f 516/1/218 502/1/218 506/1/218
f 518/1/218 519/1/218 520/1/218
f 521/1/218 520/1/218 519/1/218
f 519/1/218 522/1/218 521/1/218
f 517/1/218 521/1/218 522/1/218
f 517/1/218 515/1/218 521/1/218
f 523/1/217 524/1/217 525/1/217
f 525/1/217 526/1/217 523/1/217
f 524/1/217 523/1/217 527/1/217
f 527/1/217 528/1/217 524/1/217
f 529/1/217 526/1/217 525/1/217
f 530/1/217 531/1/217 532/1/217
f 529/1/217 532/1/217 531/1/217
f 533/1/217 534/1/217 530/1/217
f 531/1/217 530/1/217 534/1/217
f 531/1/217 526/1/217 529/1/217
f 535/1/217 528/1/217 536/1/217
f 535/1/217 536/1/217 537/1/217
f 528/1/217 535/1/217 538/1/217
f 537/1/217 539/1/217 535/1/217
f 538/1/217 524/1/217 528/1/217
f 540/1/217 539/1/217 537/1/217
f 541/1/217 542/1/217 543/1/217
f 544/1/217 543/1/217 542/1/217
f 542/1/217 545/1/217 544/1/217
f 540/1/217 544/1/217 545/1/217
f 540/1/217 537/1/217 544/1/217
f 546/1/299 547/1/299 548/1/299
f 549/1/299 550/1/299 551/1/299
f 552/1/299 553/1/299 550/1/299
f 554/1/299 551/1/299 547/1/299
f 555/1/299 556/1/299 557/1/300
f 558/1/299 555/1/299 559/1/300
f 560/1/299 561/1/299 556/1/299
f 562/1/299 560/1/299 558/1/299
f 557/1/300 563/1/301 564/1/299
f 557/1/300 565/1/302 563/1/301
f 556/1/299 566/1/299 567/1/299
f 567/1/299 557/1/300 556/1/299
f 556/1/299 568/1/299 566/1/299
f 565/1/302 557/1/300 567/1/299
f 569/1/300 557/1/300 564/1/299
f 559/1/300 570/1/299 571/1/301
f 564/1/299 570/1/299 569/1/300
f 569/1/300 570/1/299 559/1/300
f 559/1/300 572/1/300 573/1/299
f 573/1/299 574/1/300 558/1/299
f 571/1/301 572/1/300 559/1/300
f 561/1/299 575/1/299 568/1/299
f 576/1/299 575/1/299 561/1/299
f 577/1/299 578/1/299 576/1/299
f 577/1/299 561/1/299 560/1/299
f 576/1/299 561/1/299 577/1/299
f 574/1/300 579/1/299 558/1/299
f 579/1/299 562/1/299 558/1/299
f 562/1/299 579/1/299 580/1/299
f 580/1/299 581/1/299 562/1/299
f 562/1/299 581/1/299 582/1/299
f 582/1/299 581/1/299 583/1/299
f 584/1/299 560/1/299 562/1/299
f 561/1/299 568/1/299 556/1/299
f 585/1/303 586/1/304 587/1/299
f 588/1/305 585/1/303 589/1/299
f 590/1/306 591/1/307 586/1/304
f 592/1/308 590/1/306 585/1/303
f 593/1/309 594/1/310 591/1/307
f 595/1/311 593/1/309 590/1/306
f 596/1/309 597/1/311 594/1/310
f 598/1/310 596/1/309 593/1/309
f 599/1/306 600/1/312 597/1/311
f 601/1/307 599/1/306 596/1/309
f 602/1/313 603/1/314 600/1/312
f 604/1/315 602/1/313 599/1/306
f 605/1/316 606/1/317 603/1/314
f 607/1/318 605/1/316 602/1/313
f 608/1/319 609/1/320 606/1/317
f 610/1/321 608/1/319 605/1/316
f 611/1/322 612/1/323 609/1/320
f 613/1/324 611/1/322 608/1/319
f 614/1/322 615/1/324 612/1/323
f 616/1/323 614/1/322 611/1/322
f 617/1/319 618/1/325 615/1/324
f 619/1/326 617/1/319 614/1/322
f 620/1/299 621/1/299 622/1/327
f 623/1/299 620/1/299 624/1/328
f 587/1/299 625/1/299 626/1/299
f 627/1/308 628/1/329 586/1/304
f 628/1/329 625/1/299 587/1/299
f 629/1/311 627/1/308 591/1/307
f 589/1/299 587/1/299 626/1/299
f 630/1/307 631/1/310 597/1/311
f 603/1/314 606/1/317 632/1/330
f 633/1/331 630/1/307 600/1/312
f 631/1/310 629/1/311 594/1/310
f 634/1/299 635/1/299 589/1/299
f 592/1/308 588/1/305 636/1/332
f 588/1/305 635/1/299 637/1/299
f 635/1/299 634/1/299 637/1/299
f 638/1/307 639/1/310 595/1/311
f 626/1/299 634/1/299 589/1/299
f 598/1/310 595/1/311 639/1/310
f 604/1/315 601/1/307 640/1/312
f 601/1/307 598/1/310 641/1/311
f 642/1/333 643/1/334 607/1/318
f 644/1/324 645/1/335 609/1/320
f 615/1/324 618/1/325 646/1/320
f 647/1/336 644/1/324 612/1/323
f 645/1/335 632/1/330 606/1/317
f 648/1/337 646/1/320 618/1/325
f 649/1/299 648/1/337 622/1/327
f 650/1/299 649/1/299 621/1/299
f 622/1/327 618/1/325 617/1/319
f 624/1/328 617/1/319 619/1/326
f 620/1/299 650/1/299 621/1/299
f 610/1/321 607/1/318 643/1/334
f 616/1/323 613/1/324 651/1/323
f 613/1/324 610/1/321 652/1/320
f 653/1/324 654/1/335 619/1/326
f 655/1/338 619/1/326 654/1/335
f 656/1/299 620/1/299 623/1/299
f 623/1/299 655/1/338 657/1/339
f 623/1/299 658/1/299 656/1/299
f 656/1/299 650/1/299 620/1/299
f 659/1/340 660/1/299 661/1/299
f 662/1/299 659/1/340 661/1/299
f 663/1/299 664/1/299 659/1/340
f 665/1/340 663/1/299 659/1/340
f 666/1/299 667/1/299 668/1/299
f 669/1/299 661/1/299 668/1/299
f 670/1/299 671/1/299 666/1/299
f 671/1/299 670/1/299 672/1/299
f 668/1/299 670/1/299 666/1/299
f 673/1/299 674/1/299 675/1/299
f 676/1/299 675/1/299 674/1/299
f 661/1/299 669/1/299 676/1/299
f 676/1/299 677/1/299 678/1/299
f 674/1/299 677/1/299 676/1/299
f 672/1/299 670/1/299 660/1/299
f 679/1/299 680/1/299 660/1/299
f 664/1/299 679/1/299 660/1/299
f 664/1/299 681/1/299 682/1/299
f 663/1/299 683/1/299 664/1/299
f 681/1/299 664/1/299 683/1/299
f 679/1/299 664/1/299 682/1/299
f 662/1/299 684/1/341 665/1/340
f 662/1/299 685/1/299 684/1/341
f 662/1/299 678/1/299 685/1/299
f 686/1/299 665/1/340 687/1/301
f 665/1/340 686/1/299 688/1/299
f 688/1/299 663/1/299 665/1/340
f 688/1/299 683/1/299 663/1/299
f 680/1/299 672/1/299 660/1/299
f 689/1/299 690/1/299 691/1/299
f 692/1/299 693/1/299 694/1/299
f 695/1/299 696/1/299 693/1/299
f 697/1/299 694/1/299 690/1/299
f 698/1/299 699/1/299 700/1/299
f 701/1/299 698/1/299 700/1/299
f 702/1/340 703/1/299 698/1/299
f 704/1/340 702/1/340 698/1/299
f 705/1/299 706/1/299 707/1/299
f 708/1/299 700/1/299 707/1/299
f 709/1/299 710/1/299 705/1/299
f 710/1/299 709/1/299 711/1/299
f 707/1/299 709/1/299 705/1/299
f 712/1/299 713/1/299 714/1/299
f 714/1/299 713/1/299 715/1/299
f 715/1/299 716/1/301 701/1/299
f 715/1/299 717/1/299 716/1/301
f 700/1/299 708/1/299 715/1/299
f 711/1/299 709/1/299 699/1/299
f 718/1/300 719/1/299 699/1/299
f 703/1/299 718/1/300 699/1/299
f 703/1/299 720/1/341 721/1/340
f 702/1/340 722/1/299 703/1/299
f 720/1/341 703/1/299 722/1/299
f 718/1/300 703/1/299 721/1/340
f 723/1/299 701/1/299 724/1/340
f 723/1/299 725/1/300 704/1/340
f 704/1/340 701/1/299 723/1/299
f 726/1/299 702/1/340 704/1/340
f 704/1/340 727/1/302 726/1/299
f 726/1/299 722/1/299 702/1/340
f 725/1/300 727/1/302 704/1/340
f 719/1/299 711/1/299 699/1/299
f 1/1/1 3/1/1 9/1/1
f 4/1/1 6/1/1 8/1/1
f 7/1/1 8/1/1 728/1/1
f 5/1/1 9/1/1 6/1/1
f 10/1/2 12/1/4 16/1/8
f 13/1/5 11/1/3 10/1/2
f 15/1/7 16/1/8 30/1/21
f 17/1/9 10/1/2 15/1/7
f 23/1/15 12/1/4 18/1/10
f 11/1/3 26/1/2 21/1/13
f 16/1/8 24/1/16 30/1/21
f 29/1/20 729/1/28 27/1/18
f 29/1/20 13/1/5 38/1/26
f 30/1/21 31/1/22 34/1/14
f 15/1/7 32/1/23 36/1/2
f 17/1/9 38/1/26 13/1/5
f 42/1/29 44/1/29 50/1/29
f 45/1/29 47/1/29 49/1/29
f 48/1/29 49/1/29 730/1/29
f 46/1/29 50/1/29 47/1/29
f 51/1/30 53/1/32 57/1/36
f 54/1/33 52/1/31 51/1/30
f 56/1/35 57/1/36 71/1/49
f 58/1/37 51/1/30 56/1/35
f 64/1/43 53/1/32 59/1/38
f 57/1/36 65/1/44 71/1/49
f 70/1/48 731/1/57 68/1/46
f 70/1/48 54/1/33 78/1/55
f 65/1/44 732/1/342 72/1/50
f 71/1/49 74/1/52 73/1/51
f 58/1/37 78/1/55 54/1/33
f 58/1/37 80/1/47 79/1/56
f 82/1/58 84/1/60 88/1/64
f 85/1/61 83/1/59 82/1/58
f 87/1/63 88/1/64 104/1/79
f 89/1/65 82/1/58 87/1/63
f 95/1/71 84/1/60 90/1/66
f 88/1/64 96/1/72 104/1/79
f 101/1/76 85/1/61 111/1/83
f 104/1/79 107/1/70 105/1/80
f 89/1/65 111/1/83 85/1/61
f 89/1/65 113/1/75 112/1/84
f 115/1/85 117/1/87 121/1/91
f 118/1/88 116/1/86 115/1/85
f 120/1/90 121/1/91 135/1/104
f 122/1/92 115/1/85 120/1/90
f 128/1/98 117/1/87 123/1/93
f 116/1/86 131/1/85 126/1/96
f 121/1/91 129/1/99 135/1/104
f 134/1/103 733/1/111 132/1/101
f 134/1/103 118/1/88 143/1/109
f 135/1/104 136/1/105 139/1/97
f 120/1/90 137/1/106 141/1/85
f 122/1/92 143/1/109 118/1/88
f 150/1/112 157/1/112 160/1/112
f 167/1/115 169/1/115 734/1/115
f 170/1/115 172/1/115 175/1/115
f 173/1/115 171/1/115 170/1/115
f 175/1/115 168/1/115 167/1/115
f 176/1/116 178/1/118 190/1/130
f 176/1/116 190/1/130 180/1/120
f 181/1/121 177/1/117 176/1/116
f 181/1/121 176/1/116 179/1/119
f 184/1/124 192/1/131 190/1/130
f 180/1/120 190/1/130 192/1/131
f 193/1/131 180/1/120 191/1/131
f 179/1/119 194/1/132 201/1/129
f 195/1/133 189/1/129 177/1/117
f 198/1/136 196/1/134 182/1/122
f 182/1/122 181/1/121 200/1/138
f 202/1/139 183/1/123 179/1/119
f 183/1/123 200/1/138 181/1/121
f 204/1/138 203/1/138 183/1/123
f 205/1/140 207/1/140 735/1/140
f 208/1/140 210/1/140 213/1/140
f 211/1/140 209/1/140 208/1/140
f 213/1/140 206/1/140 205/1/140
f 214/1/141 216/1/141 736/1/141
f 217/1/141 219/1/141 222/1/141
f 220/1/141 218/1/141 217/1/141
f 222/1/141 215/1/141 214/1/141
f 223/1/142 225/1/142 737/1/142
f 226/1/142 228/1/142 231/1/142
f 229/1/142 227/1/142 226/1/142
f 231/1/142 224/1/142 223/1/142
f 233/1/144 242/1/153 234/1/145
f 235/1/146 234/1/145 247/1/145
f 237/1/148 233/1/144 232/1/143
f 238/1/149 232/1/143 235/1/146
f 239/1/150 738/1/343 234/1/145
f 246/1/157 234/1/145 738/1/343
f 249/1/158 247/1/145 246/1/157
f 249/1/158 235/1/146 247/1/145
f 236/1/147 254/1/163 237/1/148
f 255/1/164 252/1/161 237/1/148
f 257/1/166 238/1/149 235/1/146
f 258/1/162 739/1/162 238/1/149
f 253/1/162 238/1/149 739/1/162
f 259/1/167 261/1/169 273/1/180
f 259/1/167 273/1/180 263/1/171
f 264/1/172 260/1/168 259/1/167
f 264/1/172 259/1/167 262/1/170
f 267/1/174 275/1/181 273/1/180
f 263/1/171 273/1/180 275/1/181
f 276/1/181 263/1/171 274/1/181
f 262/1/170 277/1/182 283/1/188
f 278/1/183 272/1/179 260/1/168
f 281/1/186 279/1/184 265/1/173
f 280/1/185 264/1/172 740/1/190
f 284/1/189 266/1/172 262/1/170
f 285/1/190 740/1/190 264/1/172
f 284/1/189 285/1/190 266/1/172
f 288/1/193 297/1/202 289/1/194
f 290/1/195 289/1/194 303/1/207
f 292/1/197 288/1/193 287/1/192
f 293/1/198 287/1/192 290/1/195
f 297/1/202 295/1/200 294/1/199
f 297/1/202 301/1/206 289/1/194
f 303/1/207 289/1/194 301/1/206
f 304/1/208 303/1/207 302/1/206
f 305/1/209 290/1/195 303/1/207
f 310/1/213 291/1/196 314/1/216
f 312/1/215 293/1/198 290/1/195
f 313/1/216 741/1/216 293/1/198
f 314/1/216 293/1/198 741/1/216
f 363/1/29 365/1/29 369/1/29
f 371/1/58 373/1/219 375/1/220
f 374/1/64 375/1/220 387/1/230
f 376/1/221 372/1/61 371/1/58
f 378/1/223 371/1/58 374/1/64
f 372/1/61 384/1/228 382/1/226
f 390/1/232 374/1/64 387/1/230
f 377/1/222 394/1/234 384/1/228
f 376/1/221 397/1/236 377/1/222
f 399/1/238 396/1/58 376/1/221
f 402/1/1 404/1/1 408/1/1
f 410/1/85 412/1/240 414/1/241
f 413/1/88 414/1/241 426/1/250
f 415/1/242 411/1/91 410/1/85
f 417/1/244 410/1/85 413/1/88
f 412/1/240 422/1/98 418/1/245
f 412/1/240 423/1/248 414/1/241
f 429/1/252 413/1/88 426/1/250
f 432/1/253 742/1/246 433/1/254
f 433/1/254 411/1/91 416/1/243
f 435/1/255 434/1/97 416/1/243
f 417/1/244 413/1/88 431/1/109
f 417/1/244 439/1/257 415/1/242
f 441/1/2 443/1/259 445/1/260
f 444/1/8 445/1/260 457/1/269
f 446/1/261 442/1/5 441/1/2
f 448/1/263 441/1/2 444/1/8
f 453/1/266 455/1/2 445/1/260
f 442/1/5 454/1/267 452/1/26
f 459/1/270 743/1/344 460/1/271
f 460/1/271 444/1/8 457/1/269
f 447/1/262 463/1/274 454/1/267
f 446/1/261 466/1/275 447/1/262
f 448/1/263 469/1/278 446/1/261
f 471/1/30 473/1/280 475/1/281
f 474/1/33 475/1/281 487/1/291
f 476/1/282 472/1/36 471/1/30
f 478/1/284 471/1/30 474/1/33
f 472/1/36 484/1/289 482/1/43
f 489/1/292 744/1/57 490/1/293
f 490/1/293 474/1/33 487/1/291
f 477/1/283 493/1/294 484/1/289
f 476/1/282 496/1/295 477/1/283
f 478/1/284 474/1/33 491/1/55
f 478/1/284 499/1/297 476/1/282
f 546/1/299 548/1/299 745/1/299
f 549/1/299 551/1/299 554/1/299
f 552/1/299 550/1/299 549/1/299
f 554/1/299 547/1/299 546/1/299
f 555/1/299 557/1/300 569/1/300
f 555/1/299 569/1/300 559/1/300
f 560/1/299 556/1/299 555/1/299
f 560/1/299 555/1/299 558/1/299
f 559/1/300 573/1/299 558/1/299
f 577/1/299 560/1/299 584/1/299
f 584/1/299 562/1/299 582/1/299
f 585/1/303 587/1/299 589/1/299
f 588/1/305 589/1/299 635/1/299
f 590/1/306 586/1/304 585/1/303
f 592/1/308 585/1/303 588/1/305
f 593/1/309 591/1/307 590/1/306
f 595/1/311 590/1/306 592/1/308
f 596/1/309 594/1/310 593/1/309
f 598/1/310 593/1/309 595/1/311
f 599/1/306 597/1/311 596/1/309
f 601/1/307 596/1/309 598/1/310
f 602/1/313 600/1/312 599/1/306
f 604/1/315 599/1/306 601/1/307
f 605/1/316 603/1/314 602/1/313
f 607/1/318 602/1/313 604/1/315
f 608/1/319 606/1/317 605/1/316
f 610/1/321 605/1/316 607/1/318
f 611/1/322 609/1/320 608/1/319
f 613/1/324 608/1/319 610/1/321
f 614/1/322 612/1/323 611/1/322
f 616/1/323 611/1/322 613/1/324
f 617/1/319 615/1/324 614/1/322
f 619/1/326 614/1/322 616/1/323
f 620/1/299 622/1/327 624/1/328
f 623/1/299 624/1/328 655/1/338
f 627/1/308 586/1/304 591/1/307
f 628/1/329 587/1/299 586/1/304
f 629/1/311 591/1/307 594/1/310
f 630/1/307 597/1/311 600/1/312
f 603/1/314 632/1/330 633/1/331
f 633/1/331 600/1/312 603/1/314
f 631/1/310 594/1/310 597/1/311
f 592/1/308 636/1/332 638/1/307
f 588/1/305 637/1/299 636/1/332
f 638/1/307 595/1/311 592/1/308
f 598/1/310 639/1/310 641/1/311
f 604/1/315 640/1/312 642/1/333
f 601/1/307 641/1/311 640/1/312
f 642/1/333 607/1/318 604/1/315
f 644/1/324 609/1/320 612/1/323
f 615/1/324 646/1/320 647/1/336
f 647/1/336 612/1/323 615/1/324
f 645/1/335 606/1/317 609/1/320
f 648/1/337 618/1/325 622/1/327
f 649/1/299 622/1/327 621/1/299
f 622/1/327 617/1/319 624/1/328
f 624/1/328 619/1/326 655/1/338
f 610/1/321 643/1/334 652/1/320
f 616/1/323 651/1/323 653/1/324
f 613/1/324 652/1/320 651/1/323
f 653/1/324 619/1/326 616/1/323
f 655/1/338 654/1/335 657/1/339
f 623/1/299 657/1/339 658/1/299
f 660/1/299 670/1/299 661/1/299
f 662/1/299 661/1/299 676/1/299
f 664/1/299 660/1/299 659/1/340
f 665/1/340 659/1/340 662/1/299
f 661/1/299 670/1/299 668/1/299
f 669/1/299 675/1/299 676/1/299
f 676/1/299 678/1/299 662/1/299
f 684/1/341 687/1/301 665/1/340
f 689/1/299 691/1/299 746/1/299
f 692/1/299 694/1/299 697/1/299
f 695/1/299 693/1/299 692/1/299
f 697/1/299 690/1/299 689/1/299
f 699/1/299 709/1/299 700/1/299
f 701/1/299 700/1/299 715/1/299
f 703/1/299 699/1/299 698/1/299
f 704/1/340 698/1/299 701/1/299
f 700/1/299 709/1/299 707/1/299
f 713/1/299 717/1/299 715/1/299
f 716/1/301 724/1/340 701/1/299
f 708/1/299 714/1/299 715/1/299
s 0
f 747/2/218 748/3/218 750/4/218 749/5/218
f 749/5/345 750/4/345 754/6/345 753/7/345
f 753/7/217 754/6/217 752/8/217 751/9/217
f 748/3/112 747/2/112 755/2/112 756/3/112
f 749/10/346 753/7/346 751/9/346 747/11/346
f 754/6/347 750/12/347 748/13/347 752/8/347
f 757/9/348 758/8/348 756/14/348 755/15/348
f 747/11/112 751/9/112 757/9/112 755/11/112
f 752/8/112 748/13/112 756/13/112 758/8/112
f 751/9/112 752/8/112 758/8/112 757/9/112
f 758/8/112 756/14/112 759/14/112 760/8/112
f 761/2/218 762/3/218 764/4/218 763/5/218
f 763/5/29 764/4/29 768/6/29 767/7/29
f 767/7/217 768/6/217 766/8/217 765/9/217
f 762/3/349 761/2/349 769/2/349 770/3/349
f 763/10/299 767/7/299 765/9/299 761/11/299
f 768/6/112 764/12/112 762/13/112 766/8/112
f 771/9/1 772/8/1 770/14/1 769/15/1
f 761/11/112 765/9/112 771/9/112 769/11/112
f 766/8/112 762/13/112 770/13/112 772/8/112
f 765/9/349 766/8/349 772/8/349 771/9/349
f 772/8/112 770/14/112 773/14/112 774/8/112
