# Blender 5.0.1
# www.blender.org
mtllib control table.mtl
o leg4
v -7.215441 7.279679 -2.432264
v -6.771126 7.279679 -2.432264
v -7.215441 7.279679 -2.825915
v -6.771126 7.279679 -2.825915
v -7.215441 1.849289 -2.432264
v -6.771126 1.849289 -2.432264
v -7.215441 1.849289 -2.825915
v -6.771126 1.849289 -2.825915
v -7.241652 7.267185 -0.544590
v -7.241651 9.212599 -1.444999
v -7.241652 7.257052 -2.873342
v -7.241651 9.208522 -2.873722
v 0.321204 7.267185 -0.544590
v 0.321204 9.212599 -1.444999
v 0.321204 7.257052 -2.873342
v 0.321204 9.208522 -2.873722
v -3.460223 7.288392 -1.245709
v -3.460223 7.288392 -2.071333
v -5.354006 7.288392 -1.245709
v -5.354006 7.288392 -2.071333
v -7.262012 6.877405 0.409565
v -7.262012 7.321720 0.409565
v -7.262012 6.877405 -2.900985
v -7.262012 7.321720 -2.900985
v 0.341565 6.877405 0.409565
v 0.341565 7.321720 0.409565
v 0.341565 6.877405 -2.900985
v 0.341565 7.321720 -2.900985
v -7.215441 7.279679 0.334498
v -6.771126 7.279679 0.334498
v -7.215441 7.279679 -0.059154
v -6.771126 7.279679 -0.059154
v -7.215441 1.849289 0.334498
v -6.771126 1.849289 0.334498
v -7.215441 1.849289 -0.059154
v -6.771126 1.849289 -0.059154
v -0.149320 7.279679 0.334497
v 0.294995 7.279679 0.334497
v -0.149320 7.279679 -0.059155
v 0.294995 7.279679 -0.059155
v -0.149321 1.849288 0.334497
v 0.294995 1.849288 0.334497
v -0.149321 1.849288 -0.059155
v 0.294995 1.849288 -0.059155
v -0.149320 7.279679 -2.432264
v 0.294995 7.279679 -2.432264
v -0.149320 7.279679 -2.825915
v 0.294995 7.279679 -2.825915
v -0.149321 1.849288 -2.432264
v 0.294995 1.849288 -2.432264
v -0.149321 1.849288 -2.825915
v 0.294995 1.849288 -2.825915
vn -0.0000 1.0000 -0.0000
vn -0.0000 -0.0000 -1.0000
vn -0.0000 -1.0000 -0.0000
vn -0.0000 -0.0000 1.0000
vn -1.0000 -0.0000 -0.0000
vn 1.0000 -0.0000 -0.0000
vn -0.0000 -0.0002 -1.0000
vn -0.0000 0.4200 0.9075
vn -0.0000 -1.0000 0.0044
vn -0.0000 1.0000 -0.0029
vt 0.375000 0.000000
vt 0.625000 0.000000
vt 0.625000 0.250000
vt 0.375000 0.250000
vt 0.625000 0.500000
vt 0.375000 0.500000
vt 0.625000 0.750000
vt 0.375000 0.750000
vt 0.625000 1.000000
vt 0.375000 1.000000
vt 0.125000 0.500000
vt 0.125000 0.750000
vt 0.875000 0.500000
vt 0.875000 0.750000
vt 0.750000 0.562500
vt 0.812500 0.562500
vt 0.812500 0.625000
vt 0.750000 0.625000
s 0
usemtl 
f 1/1/1 2/2/1 4/3/1 3/4/1
f 3/4/2 4/3/2 8/5/2 7/6/2
f 7/6/3 8/5/3 6/7/3 5/8/3
f 5/8/4 6/7/4 2/9/4 1/10/4
f 3/11/5 7/6/5 5/8/5 1/12/5
f 8/5/6 4/13/6 2/14/6 6/7/6
f 9/1/5 10/2/5 12/3/5 11/4/5
f 11/4/7 12/3/7 16/5/7 15/6/7
f 15/6/6 16/5/6 14/7/6 13/8/6
f 13/8/8 14/7/8 10/9/8 9/10/8
f 11/11/9 15/6/9 13/8/9 9/12/9
f 16/5/10 12/13/10 10/14/10 14/7/10
f 21/1/5 22/2/5 24/3/5 23/4/5
f 23/4/2 24/3/2 28/5/2 27/6/2
f 27/6/6 28/5/6 26/7/6 25/8/6
f 25/8/4 26/7/4 22/9/4 21/10/4
f 23/11/3 27/6/3 25/8/3 21/12/3
f 28/5/1 24/13/1 22/14/1 26/7/1
f 29/1/1 30/2/1 32/3/1 31/4/1
f 31/4/2 32/3/2 36/5/2 35/6/2
f 35/6/3 36/5/3 34/7/3 33/8/3
f 33/8/4 34/7/4 30/9/4 29/10/4
f 31/11/5 35/6/5 33/8/5 29/12/5
f 36/5/6 32/13/6 30/14/6 34/7/6
f 37/1/1 38/2/1 40/3/1 39/4/1
f 39/4/2 40/3/2 44/5/2 43/6/2
f 43/6/3 44/5/3 42/7/3 41/8/3
f 41/8/4 42/7/4 38/9/4 37/10/4
f 39/11/5 43/6/5 41/8/5 37/12/5
f 44/5/6 40/13/6 38/14/6 42/7/6
f 45/1/1 46/2/1 48/3/1 47/4/1
f 47/4/2 48/3/2 52/5/2 51/6/2
f 51/6/3 52/5/3 50/7/3 49/8/3
f 49/8/4 50/7/4 46/9/4 45/10/4
f 47/11/5 51/6/5 49/8/5 45/12/5
f 52/5/6 48/13/6 46/14/6 50/7/6
usemtl Material
f 18/15/1 20/16/1 19/17/1 17/18/1
