# Blender 5.0.1
# www.blender.org
mtllib control table final.mtl
o holder
v -3.781428 8.431629 0.701120
v -3.781428 10.377043 -0.199289
v -3.781428 8.421496 -1.627632
v -3.781428 10.372965 -1.628012
v 3.781428 8.431629 0.701120
v 3.781428 10.377043 -0.199289
v 3.781428 8.421496 -1.627632
v 3.781428 10.372965 -1.628012
v 0.000000 8.452836 0.000000
v 0.000000 8.452836 -0.825624
v -1.893783 8.452836 0.000000
v -1.893783 8.452836 -0.825624
v -3.801789 8.041849 1.655275
v -3.801789 8.486164 1.655275
v -3.801789 8.041849 -1.655275
v -3.801789 8.486164 -1.655275
v 3.801789 8.041849 1.655275
v 3.801789 8.486164 1.655275
v 3.801789 8.041849 -1.655275
v 3.801789 8.486164 -1.655275
v -3.755218 8.444123 1.580208
v -3.310903 8.444123 1.580208
v -3.755218 8.444123 1.186556
v -3.310903 8.444123 1.186556
v -3.755218 3.013733 1.580208
v -3.310903 3.013733 1.580208
v -3.755218 3.013733 1.186556
v -3.310903 3.013733 1.186556
v 3.310903 8.444123 1.580206
v 3.755218 8.444123 1.580206
v 3.310903 8.444123 1.186554
v 3.755218 8.444123 1.186554
v 3.310902 3.013733 1.580206
v 3.755217 3.013733 1.580206
v 3.310902 3.013733 1.186554
v 3.755217 3.013733 1.186554
v 3.310903 8.444123 -1.186554
v 3.755218 8.444123 -1.186554
v 3.310903 8.444123 -1.580206
v 3.755218 8.444123 -1.580206
v 3.310902 3.013733 -1.186554
v 3.755217 3.013733 -1.186554
v 3.310902 3.013733 -1.580206
v 3.755217 3.013733 -1.580206
v -3.755218 8.444123 -1.186554
v -3.310902 8.444123 -1.186554
v -3.755218 8.444123 -1.580206
v -3.310902 8.444123 -1.580206
v -3.755218 3.013733 -1.186554
v -3.310903 3.013733 -1.186554
v -3.755218 3.013733 -1.580206
v -3.310903 3.013733 -1.580206
vn -1.0000 -0.0000 -0.0000
vn -0.0000 -0.0002 -1.0000
vn 1.0000 -0.0000 -0.0000
vn -0.0000 0.4200 0.9075
vn -0.0000 -1.0000 0.0044
vn -0.0000 1.0000 -0.0029
vn -0.0000 1.0000 -0.0000
vn -0.0000 -0.0000 -1.0000
vn -0.0000 -0.0000 1.0000
vn -0.0000 -1.0000 -0.0000
vt 0.375000 0.000000
vt 0.625000 0.000000
vt 0.625000 0.250000
vt 0.375000 0.250000
vt 0.625000 0.500000
vt 0.375000 0.500000
vt 0.625000 0.750000
vt 0.375000 0.750000
vt 0.625000 1.000000
vt 0.375000 1.000000
vt 0.125000 0.500000
vt 0.125000 0.750000
vt 0.875000 0.500000
vt 0.875000 0.750000
vt 0.750000 0.562500
vt 0.812500 0.562500
vt 0.812500 0.625000
vt 0.750000 0.625000
s 0
usemtl 
f 1/1/1 2/2/1 4/3/1 3/4/1
f 3/4/2 4/3/2 8/5/2 7/6/2
f 7/6/3 8/5/3 6/7/3 5/8/3
f 5/8/4 6/7/4 2/9/4 1/10/4
f 3/11/5 7/6/5 5/8/5 1/12/5
f 8/5/6 4/13/6 2/14/6 6/7/6
f 13/1/1 14/2/1 16/3/1 15/4/1
f 15/4/8 16/3/8 20/5/8 19/6/8
f 19/6/3 20/5/3 18/7/3 17/8/3
f 17/8/9 18/7/9 14/9/9 13/10/9
f 15/11/10 19/6/10 17/8/10 13/12/10
f 20/5/7 16/13/7 14/14/7 18/7/7
f 21/1/7 22/2/7 24/3/7 23/4/7
f 23/4/8 24/3/8 28/5/8 27/6/8
f 27/6/10 28/5/10 26/7/10 25/8/10
f 25/8/9 26/7/9 22/9/9 21/10/9
f 23/11/1 27/6/1 25/8/1 21/12/1
f 28/5/3 24/13/3 22/14/3 26/7/3
f 29/1/7 30/2/7 32/3/7 31/4/7
f 31/4/8 32/3/8 36/5/8 35/6/8
f 35/6/10 36/5/10 34/7/10 33/8/10
f 33/8/9 34/7/9 30/9/9 29/10/9
f 31/11/1 35/6/1 33/8/1 29/12/1
f 36/5/3 32/13/3 30/14/3 34/7/3
f 37/1/7 38/2/7 40/3/7 39/4/7
f 39/4/8 40/3/8 44/5/8 43/6/8
f 43/6/10 44/5/10 42/7/10 41/8/10
f 41/8/9 42/7/9 38/9/9 37/10/9
f 39/11/1 43/6/1 41/8/1 37/12/1
f 44/5/3 40/13/3 38/14/3 42/7/3
f 45/1/7 46/2/7 48/3/7 47/4/7
f 47/4/8 48/3/8 52/5/8 51/6/8
f 51/6/10 52/5/10 50/7/10 49/8/10
f 49/8/9 50/7/9 46/9/9 45/10/9
f 47/11/1 51/6/1 49/8/1 45/12/1
f 52/5/3 48/13/3 46/14/3 50/7/3
usemtl Material
f 10/15/7 12/16/7 11/17/7 9/18/7
